<svg xmlns="http://www.w3.org/2000/svg" width="912" height="144"><defs><clipPath id="e"><path fill="none" d="M0 0h912v144H0z"/></clipPath><style>.f{fill:#fff}</style></defs><g id="b"><g id="c"><g clip-path="url(#e)" id="d"><path class="f" d="M279.358 56.641V81.6h-38.973V56.641h5.28c2.016 0 3.743-1.536 4.703-3.36l4.32-9.311c1.44-2.784-.672-4.608-3.552-4.608h-3.647V14.404h50.108c1.728 0 3.456 1.152 4.224 2.976l13.534 35.901c.865 2.016 2.688 3.36 4.704 3.36h4.224V81.6h-40.51V56.641h3.36c2.496 0 3.648-1.248 2.784-3.072l-.768-1.92h-15.167l-.767 1.92c-.864 1.824.384 3.072 2.784 3.072h3.36Zm-4.32-9.791h11.04l-2.208-4.224c-1.056-1.92-1.92-4.224-2.496-6.24h-1.632c-.672 2.016-1.535 4.32-2.592 6.24l-2.111 4.224ZM332.545 81.6V56.544h4.8c2.4 0 4.32-1.824 4.32-4.224v-8.64c0-2.399-1.92-4.223-4.32-4.223h-4.416V14.404h47.133c17.854 0 26.11 5.951 26.11 15.743 0 9.695-7.2 15.647-19.2 15.647v1.632c16.031-.288 23.615 5.183 23.615 16.51 0 10.656-8.735 17.663-27.55 17.663h-50.492Zm33.31-36.19h11.71c2.497 0 3.936-1.44 3.936-3.072s-1.536-3.072-4.32-3.072h-11.327v6.144Zm0 11.327h14.686c3.36 0 5.184-1.728 5.184-3.744 0-1.92-1.632-3.647-4.704-3.647h-15.167v7.39ZM414.817 48.001c0-19.678 12.959-35.037 38.973-35.037 26.11 0 38.974 15.359 38.974 35.037 0 19.775-12.864 35.038-38.974 35.038-26.014 0-38.973-15.263-38.973-35.038Zm51.356 0c0-5.567-4.32-9.79-12.383-9.79-8.255 0-12.48 4.223-12.48 9.79 0 5.664 4.225 9.888 12.48 9.888 8.064 0 12.383-4.224 12.383-9.888ZM504.864 53.857l1.728-10.271c.48-2.304-1.728-4.224-4.224-4.224h-4.8V14.404h40.606v24.958h-2.976c-2.592 0-4.032 1.92-4.32 4.512l-.48 4.032c-.576 5.087 3.36 9.407 9.984 9.407 6.623 0 10.558-4.224 9.983-9.407l-.48-4.032c-.288-2.592-1.823-4.512-4.32-4.512h-2.975V14.404h40.509v24.958h-4.704c-2.496 0-4.704 1.92-4.224 4.224l1.728 10.27c3.264 17.184-11.807 28.703-35.517 28.703-23.614 0-38.877-11.615-35.518-28.702ZM659.323 56.641V81.6h-56.06V56.641h12.095a4.2 4.2 0 0 0 4.224-4.224V36.002h-1.632c-2.304 0-3.263 1.824-3.263 4.704v10.272h-23.903V14.404h81.114v36.574H647.9V40.706c0-2.88-.96-4.704-3.264-4.704H643.1v16.415c0 2.4 1.823 4.224 4.223 4.224h12ZM439.057 140.88c-.073.168-.145.384-.384.384-.168 0-.385-.432-.649-1.032-.072-.12-.12-.264-.192-.408-.144-.288-.624-1.248-.624-1.488 0-.168.097-.192.96-.528.48-.192.576-.408.576-.912v-3.385c0-.287 0-.431-.143-.431-.145 0-.264.336-.48.863-.072.12-.169.288-.337.288-.191 0-.36-.288-.552-.624-.047-.071-.072-.12-.168-.12s-.12.073-.12.312v5.185c0 1.08.048 2.16.048 3.264 0 .576-.216.624-.912.624h-1.2c-.72 0-.984-.048-.984-.6 0-1.104.072-2.208.072-3.288v-1.992c0-.264 0-.432-.144-.432-.168 0-.24.264-.288.384-.072.24-.24.72-.528.72-.312 0-1.609-1.896-1.609-2.473 0-.168.097-.336.17-.48.599-1.104 1.127-2.544 1.439-3.72.24-.888.288-1.248.456-2.064 0-.048.024-.144.024-.192 0-.336-.24-.384-.528-.384-.192 0-.384.024-.528.024-.36 0-.409-.288-.409-.864v-1.44c0-.672.05-.96.433-.96.216 0 .696.048.84.048.36 0 .672-.288.672-.792v-1.104c0-.673 0-1.416-.072-1.825v-.191c0-.193.144-.24.408-.24.216 0 1.944.12 2.472.167.552.048.6.097.6.336 0 .168-.12.24-.24.36-.167.145-.192.384-.192.576v2.137c0 .384.24.552.456.552.048 0 .096-.024.12-.024h.289c.408 0 .456.24.456.936v1.464c0 .624-.048.864-.456.864-.145 0-.289-.024-.433-.024-.168 0-.432.048-.432.288 0 .192.384.744.504.912.048.072.12.168.168.264.288.408.696.984.912.984.193 0 .216-.168.216-.48v-4.2c0-1.032-.023-2.064-.023-3.097 0-.671.095-1.344.935-1.344.504 0 1.032.073 1.584.073h1.153c.552 0 1.08-.073 1.584-.073.84 0 .96.649.96 1.344 0 1.033-.048 2.065-.048 3.097v3.432c0 .816.072 1.632.072 2.328 0 .72-.312.792-.792.792h-1.393c-.527 0-.527-.047-.551-.144-.048-.071-.336-.071-.432-.071-.288 0-.36.24-.36.48v2.688c0 .216 0 .552.288.552.12 0 .936-.336.936-.72 0-.24-.36-.865-.505-1.08-.048-.097-.119-.24-.119-.336 0-.385 1.655-1.128 1.992-1.128.287 0 .456.336.84.984.336.552.624 1.151.888 1.751.072.168.192.385.408.385.168 0 .264-.168.336-.288.264-.553.504-1.104.744-1.68.12-.313.672-1.849.672-2.113 0-.312-.264-.384-.528-.384-.528 0-1.056.048-1.584.048-.648 0-.696-.24-.696-.912v-.624c0-1.08 0-1.248.432-1.368.192-.048.24-.216.24-.384v-3.408c0-.24-.072-.312-.288-.36-.312-.072-.36-.384-.36-.936v-.528c0-1.177 0-1.392.696-1.392.576 0 1.248.048 1.945.048h3.024c.695 0 1.392-.048 1.943-.048.649 0 .697.24.697.912v.552c0 1.272-.024 1.44-.745 1.44-.215 0-.551-.024-.6-.024-.383 0-.552.288-.552.648v.048c0 .48-.096 2.112-.143 2.568v.192c0 .36.312.672.671.672.36 0 .745-.024 1.128-.024.577 0 .624.336.624.936v1.08c0 .648-.047.912-.647.912-.649 0-1.296-.048-1.944-.048-.313 0-.48.336-.48.6 0 .24.167.313.384.336.168.024.432.12.432.336 0 .192-.168.24-.312.312-.217.12-.217.24-.217 1.009v5.16q0 .192.168.192h.12c.336 0 .336-1.584.336-1.848 0-.24.05-.456.576-.456.385 0 .913.096 1.248.264.265.12.336.312.336.6 0 .816-.263 2.568-.551 3.336-.312.816-.768 1.2-1.609 1.2h-1.103c-2.233 0-2.257-.648-2.257-2.76 0-.312-.024-.48-.192-.48-.215 0-.383.336-.48.504a23.175 23.175 0 0 1-1.776 2.569c-.287.383-.408.456-.624.456-.552 0-2.352-1.129-2.352-1.657 0-.12.24-.408.648-.888.192-.24.456-.528.72-.864a.546.546 0 0 0 .072-.264c0-.168-.096-.312-.24-.672-.048-.168-.168-.288-.336-.288s-.505.192-.768.36c-.12.072-.216.144-.288.168a33.077 33.077 0 0 1-3.288 1.752c-.193.096-.264.12-.336.336Zm2.376-15.505a.38.38 0 0 0 .383.384h.12a.38.38 0 0 0 .384-.384v-.504a.379.379 0 0 0-.383-.384h-.12a.379.379 0 0 0-.384.384v.504Zm0 3.912c0 .192.168.384.383.384h.12a.395.395 0 0 0 .384-.384v-.576a.395.395 0 0 0-.383-.384h-.12a.379.379 0 0 0-.384.384v.576Zm6.913-4.728c-.168 0-.313.12-.313.288v3.48c0 .168.048.408.264.408.288 0 .288-.504.312-.696.096-1.032.096-2.064.168-3.096v-.096c0-.192-.072-.288-.336-.288h-.095ZM474.554 137.16c-.168.216-.384.528-.384.72 0 .456.864.648 1.224.768.888.288 2.28.816 3 1.2.408.216.576.288.576.624 0 .744-.816 2.472-1.68 2.472-.168 0-.408-.096-.696-.24-.985-.48-4.489-2.088-5.4-2.088-.432 0-.72.168-1.08.36-2.281 1.2-6.553 1.776-9.313 1.776-.697 0-.96-.096-1.128-.432-.265-.552-.553-1.56-.553-2.16 0-.456.168-.528.456-.528.193 0 1.393.072 2.233.072 1.728 0 4.848-.24 4.848-.576 0-.072-.072-.12-.312-.192-.144-.048-.624-.168-.792-.216a1.874 1.874 0 0 0-.504-.096c-.336 0-.529.168-.792.384a.565.565 0 0 1-.384.168c-.192 0-2.809-.48-2.809-1.128 0-.24.313-.504.48-.672.192-.192.768-.84 1.129-1.296.12-.144.191-.265.191-.312 0-.168-.239-.192-.36-.192h-.888c-.792 0-1.584.048-2.351.048-.6 0-.649-.192-.649-.816v-1.153c0-.648.048-.84.649-.84.767 0 1.56.048 2.351.048h2.64c.457 0 .673-.095.84-.24.193-.167.337-.384.481-.623a.407.407 0 0 0 .071-.24c0-.24-.263-.289-.455-.289h-1.129c-.168 0-.288.12-.359.264-.144.288-.433.312-.936.312h-1.296c-.769 0-1.105-.072-1.105-.671 0-.505.072-1.105.072-1.633v-1.776c0-.816-.047-1.44-.047-1.92 0-.84.624-.936 1.295-.936.792 0 1.584.048 2.376.048h.769a.395.395 0 0 0 .384-.384v-.168a.413.413 0 0 0-.384-.384h-2.328c-.96 0-1.944.071-2.929.071-.504 0-.552-.263-.552-.911v-.744c0-.72.025-.985.552-.985.985 0 1.969.049 2.929.049h13.513c.96 0 1.944-.049 2.928-.049.504 0 .552.24.552.865v.84c0 .672-.048.935-.552.935-.984 0-1.968-.071-2.928-.071h-2.544a.412.412 0 0 0-.384.384v.168c0 .216.191.384.384.384h.984c.744 0 1.488-.048 2.231-.048.697 0 1.345.072 1.345.936 0 .576-.048 1.2-.048 1.92v1.776c0 .552.048 1.08.048 1.584 0 .673-.288.72-1.177.72h-.72c-.935 0-1.127 0-1.32-.312-.07-.12-.215-.264-.383-.264h-3.913c-.095 0-.24.024-.24.144v.12c0 .265-.384.312-.576.336a.543.543 0 0 0-.48.504c0 .264.264.288.48.288h7.105c.792 0 1.584-.048 2.377-.048.6 0 .647.192.647.936v.96c0 .72-.048.913-.647.913-.793 0-1.585-.048-2.377-.048h-.936c-.168 0-.36 0-.36.144 0 .095.12.168.192.216.071.048.12.144.12.24 0 .264-.312.312-.528.384a1.703 1.703 0 0 0-.313.12 2.3 2.3 0 0 0-.431.48Zm-9.337-8.905a.568.568 0 0 0-.576-.576h-.36a.568.568 0 0 0-.576.576v.144c0 .312.264.576.576.576h.36c.312 0 .576-.24.576-.576v-.144Zm2.616 7.32c-.312 0-.936.145-.936.433 0 .263.696.432 1.56.624.408.096.84.192 1.248.312.192.048.408.12.6.12.648 0 1.176-1.08 1.176-1.224 0-.264-.312-.264-.528-.264h-3.12Zm.888-11.352a.395.395 0 0 0-.384.384v.168c0 .216.168.384.384.384h.84a.379.379 0 0 0 .384-.384v-.168c0-.192-.143-.36-.383-.384h-.841Zm1.224 4.032a.568.568 0 0 0-.576-.576h-.456a.569.569 0 0 0-.576.576v.144c0 .312.265.576.576.576h.456c.336 0 .576-.24.576-.576v-.144Zm4.849 0a.555.555 0 0 0-.576-.576h-.552a.568.568 0 0 0-.576.576v.144c0 .312.264.576.576.576h.552c.336 0 .576-.24.576-.576v-.144ZM545 126l-3.537 3.515a4.955 4.955 0 0 0 0 7.032 5.03 5.03 0 0 0 7.074 0 4.955 4.955 0 0 0 0-7.032L545 126ZM367 126l-3.537 3.515a4.955 4.955 0 0 0 0 7.032 5.03 5.03 0 0 0 7.074 0 4.955 4.955 0 0 0 0-7.032L367 126Z"/></g></g></g></svg>