<svg xmlns="http://www.w3.org/2000/svg" width="350" height="84"><defs><clipPath id="e"><path fill="none" d="M0 0h350v84H0z"/></clipPath><style>.f{fill:#fff8ee}</style></defs><g id="b"><g id="c"><g clip-path="url(#e)" id="d"><path class="f" d="M89.905 27.139v11.96H71.228V27.14h2.53c.966 0 1.794-.737 2.254-1.61l2.07-4.464c.69-1.334-.322-2.208-1.702-2.208h-1.748V6.896h24.014c.829 0 1.657.552 2.025 1.426l6.486 17.206c.414.966 1.288 1.61 2.254 1.61h2.025V39.1H92.02V27.139h1.61c1.197 0 1.749-.599 1.335-1.473l-.368-.92h-7.269l-.368.92c-.414.874.184 1.473 1.334 1.473h1.61Zm-2.07-4.694h5.291l-1.059-2.023c-.505-.921-.92-2.025-1.196-2.991h-.782c-.321.966-.735 2.07-1.242 2.99l-1.012 2.024ZM115.388 39.1V27.092h2.3c1.15 0 2.07-.874 2.07-2.024v-4.14c0-1.15-.92-2.025-2.07-2.025h-2.117V6.896h22.59c8.556 0 12.512 2.852 12.512 7.544 0 4.647-3.45 7.5-9.2 7.5v.782c7.682-.138 11.316 2.484 11.316 7.913 0 5.106-4.186 8.465-13.203 8.465h-24.198Zm15.963-17.344h5.613c1.196 0 1.886-.69 1.886-1.473s-.736-1.471-2.07-1.471h-5.43v2.944Zm0 5.429h7.039c1.61 0 2.484-.829 2.484-1.795 0-.92-.782-1.748-2.254-1.748h-7.27v3.543ZM155.729 22.998c0-9.432 6.21-16.792 18.678-16.792 12.513 0 18.678 7.36 18.678 16.792 0 9.477-6.165 16.792-18.678 16.792-12.468 0-18.678-7.315-18.678-16.792Zm24.613 0c0-2.669-2.07-4.692-5.935-4.692-3.957 0-5.981 2.023-5.981 4.692 0 2.714 2.024 4.738 5.981 4.738 3.864 0 5.935-2.024 5.935-4.738ZM199.336 25.804l.828-4.922c.23-1.105-.828-2.025-2.023-2.025h-2.301V6.896h19.46v11.961h-1.426c-1.242 0-1.933.92-2.07 2.163l-.23 1.932c-.276 2.438 1.61 4.508 4.784 4.508s5.06-2.023 4.785-4.508l-.23-1.932c-.139-1.243-.874-2.163-2.07-2.163h-1.427V6.896h19.415v11.961h-2.255c-1.196 0-2.254.92-2.024 2.025l.828 4.922c1.564 8.235-5.658 13.756-17.022 13.756-11.317 0-18.631-5.567-17.022-13.756ZM273.354 27.139v11.96h-26.867V27.14h5.797a2.013 2.013 0 0 0 2.025-2.025v-7.867h-.783c-1.103 0-1.564.874-1.564 2.254v4.923h-11.455V6.896h38.875v17.528H267.88V19.5c0-1.38-.46-2.254-1.564-2.254h-.736v7.867c0 1.15.874 2.025 2.024 2.025h5.75ZM162.293 81.66c-.054.126-.107.288-.287.288-.127 0-.29-.324-.486-.774-.055-.09-.09-.198-.145-.307-.107-.216-.468-.935-.468-1.116 0-.126.072-.144.72-.396.36-.144.433-.306.433-.684v-2.54c0-.215 0-.323-.109-.323-.107 0-.198.253-.36.648-.054.09-.126.216-.252.216-.144 0-.27-.216-.414-.468-.036-.054-.054-.09-.126-.09s-.09.054-.09.235v3.888c0 .81.036 1.62.036 2.45 0 .431-.162.467-.684.467h-.9c-.54 0-.74-.036-.74-.45 0-.828.056-1.656.056-2.467v-1.494c0-.198 0-.324-.109-.324-.126 0-.18.198-.216.288-.053.18-.18.54-.396.54-.234 0-1.206-1.423-1.206-1.854 0-.126.072-.252.126-.36.45-.829.846-1.909 1.08-2.792.18-.666.217-.935.343-1.548 0-.036.017-.108.017-.144 0-.252-.18-.288-.396-.288-.144 0-.288.018-.396.018-.27 0-.306-.216-.306-.648v-1.08c0-.505.036-.72.324-.72.162 0 .522.035.63.035.27 0 .505-.216.505-.594v-.829c0-.504 0-1.061-.055-1.368v-.143c0-.145.108-.181.307-.181.162 0 1.458.09 1.854.126.414.036.45.072.45.253 0 .126-.09.18-.18.27-.126.108-.144.288-.144.432v1.603c0 .288.18.414.342.414.036 0 .072-.019.09-.019h.216c.306 0 .342.18.342.702v1.099c0 .468-.036.648-.342.648-.108 0-.216-.018-.324-.018-.126 0-.324.036-.324.216 0 .144.288.558.378.684.036.054.09.126.126.198.217.306.522.739.685.739.143 0 .162-.126.162-.36v-3.151c0-.774-.019-1.549-.019-2.323 0-.504.072-1.008.702-1.008.38 0 .775.054 1.189.054h.864c.414 0 .81-.054 1.188-.054.631 0 .721.485.721 1.008 0 .774-.036 1.549-.036 2.323v2.574c0 .612.054 1.225.054 1.747 0 .54-.235.594-.594.594h-1.045c-.395 0-.395-.036-.414-.108-.036-.054-.252-.054-.324-.054-.216 0-.27.18-.27.36v2.017c0 .162 0 .414.216.414.09 0 .702-.252.702-.54 0-.18-.27-.649-.378-.81-.036-.073-.09-.18-.09-.253 0-.288 1.243-.846 1.495-.846.215 0 .341.252.63.738.251.414.468.864.666 1.314.054.126.144.288.306.288.126 0 .198-.125.252-.215.198-.414.378-.828.559-1.261.09-.233.504-1.386.504-1.584 0-.234-.199-.288-.397-.288-.395 0-.792.036-1.188.036-.486 0-.522-.18-.522-.685v-.467c0-.81 0-.937.324-1.027.144-.036.18-.162.18-.288v-2.556c0-.181-.054-.235-.216-.271-.234-.054-.27-.288-.27-.702v-.397c0-.881 0-1.044.522-1.044.432 0 .937.037 1.458.037h2.269c.522 0 1.045-.037 1.459-.037.486 0 .522.18.522.685v.414c0 .954-.018 1.08-.558 1.08-.163 0-.415-.017-.45-.017-.289 0-.415.215-.415.485v.036c0 .36-.072 1.585-.108 1.927v.144c0 .27.234.504.505.504.27 0 .557-.018.845-.018.433 0 .47.253.47.702v.81c0 .487-.037.685-.487.685-.486 0-.973-.036-1.46-.036-.232 0-.358.252-.358.45 0 .18.126.233.288.252.126.018.323.09.323.252 0 .144-.126.18-.234.234-.162.09-.162.18-.162.756v3.871q0 .145.126.145h.09c.252 0 .252-1.189.252-1.387 0-.18.036-.342.433-.342.288 0 .683.072.935.199.199.09.253.233.253.449 0 .612-.198 1.927-.414 2.503-.234.612-.576.9-1.207.9h-.828c-1.675 0-1.692-.486-1.692-2.07 0-.235-.019-.36-.145-.36-.161 0-.288.251-.36.377a17.538 17.538 0 0 1-1.332 1.927c-.216.288-.306.342-.468.342-.414 0-1.765-.846-1.765-1.242 0-.09.18-.306.487-.666.143-.18.341-.397.54-.649a.41.41 0 0 0 .053-.198c0-.126-.07-.233-.18-.504-.035-.126-.125-.216-.251-.216s-.378.144-.576.27c-.09.055-.163.108-.216.127-.793.485-1.621.918-2.467 1.314-.145.072-.198.09-.253.252Zm1.783-11.632c0 .162.126.288.288.288h.09a.284.284 0 0 0 .288-.288v-.378a.284.284 0 0 0-.288-.288h-.09a.284.284 0 0 0-.288.288v.378Zm0 2.935c0 .144.126.288.288.288h.09a.296.296 0 0 0 .288-.288v-.432a.296.296 0 0 0-.288-.288h-.09a.284.284 0 0 0-.288.288v.432Zm5.186-3.547c-.126 0-.235.09-.235.216v2.611c0 .126.036.306.199.306.215 0 .215-.378.234-.522.071-.774.071-1.548.126-2.323v-.072c0-.144-.055-.216-.252-.216h-.072ZM188.917 78.87c-.126.161-.288.395-.288.54 0 .341.648.486.919.575.666.216 1.71.613 2.25.9.306.163.432.217.432.469 0 .558-.612 1.854-1.26 1.854-.126 0-.306-.071-.523-.18-.737-.36-3.366-1.566-4.05-1.566-.325 0-.54.126-.811.27-1.71.9-4.915 1.332-6.985 1.332-.523 0-.721-.072-.847-.324-.198-.414-.414-1.17-.414-1.62 0-.343.126-.396.342-.396.144 0 1.045.053 1.674.053 1.296 0 3.637-.18 3.637-.431 0-.055-.054-.09-.233-.145-.109-.036-.469-.126-.595-.162s-.252-.072-.378-.072c-.252 0-.396.127-.594.289a.43.43 0 0 1-.288.126c-.144 0-2.107-.36-2.107-.847 0-.18.234-.378.36-.504.145-.144.576-.63.847-.972.09-.108.143-.199.143-.235 0-.126-.18-.143-.27-.143h-.665c-.595 0-1.189.036-1.765.036-.45 0-.486-.145-.486-.613v-.864c0-.486.036-.63.486-.63.576 0 1.17.036 1.765.036h1.98c.342 0 .504-.072.63-.18.144-.126.252-.288.36-.468a.306.306 0 0 0 .054-.18c0-.18-.198-.216-.342-.216h-.846c-.126 0-.216.09-.27.198-.108.216-.324.234-.703.234h-.972c-.576 0-.828-.055-.828-.505 0-.378.054-.828.054-1.223v-1.333c0-.613-.036-1.08-.036-1.44 0-.63.469-.703.973-.703.593 0 1.188.036 1.782.036h.576a.296.296 0 0 0 .288-.288v-.126a.31.31 0 0 0-.288-.288h-1.746c-.72 0-1.46.054-2.197.054-.378 0-.414-.198-.414-.684v-.558c0-.54.018-.739.414-.739.738 0 1.476.036 2.197.036h10.137c.72 0 1.458-.036 2.196-.036.379 0 .414.18.414.649v.63c0 .504-.035.702-.414.702-.738 0-1.476-.054-2.196-.054h-1.909a.31.31 0 0 0-.288.288v.126c0 .162.144.288.288.288h.739c.557 0 1.116-.036 1.674-.036.522 0 1.008.055 1.008.702 0 .433-.036.9-.036 1.44v1.334c0 .414.036.81.036 1.188 0 .504-.215.54-.882.54h-.54c-.703 0-.846 0-.99-.234-.054-.09-.163-.198-.289-.198h-2.934c-.073 0-.181.018-.181.108v.09c0 .198-.288.234-.432.252a.408.408 0 0 0-.36.378c0 .198.198.216.36.216h5.33c.594 0 1.188-.036 1.783-.036.45 0 .486.144.486.703v.72c0 .54-.036.684-.486.684-.595 0-1.189-.036-1.784-.036h-.702c-.126 0-.27 0-.27.108 0 .071.09.126.144.162.055.035.09.108.09.18 0 .198-.233.234-.395.288a1.215 1.215 0 0 0-.235.09 1.68 1.68 0 0 0-.324.36Zm-7.004-6.68a.426.426 0 0 0-.432-.433h-.27a.426.426 0 0 0-.432.432v.108c0 .234.198.432.432.432h.27c.234 0 .432-.18.432-.432v-.108Zm1.963 5.49c-.234 0-.702.11-.702.325 0 .198.521.324 1.17.468.306.072.63.144.936.234.144.036.306.09.45.09.487 0 .882-.81.882-.918 0-.198-.233-.198-.395-.198h-2.341Zm.666-8.516a.296.296 0 0 0-.288.288v.126c0 .162.126.288.288.288h.63a.284.284 0 0 0 .288-.288v-.126c0-.143-.107-.27-.288-.288h-.63Zm.918 3.025a.426.426 0 0 0-.432-.432h-.342a.426.426 0 0 0-.432.432v.108c0 .234.198.432.432.432h.342c.252 0 .432-.18.432-.432v-.108Zm3.638 0a.416.416 0 0 0-.433-.432h-.414a.426.426 0 0 0-.432.432v.108c0 .234.198.432.432.432h.414c.252 0 .433-.18.433-.432v-.108ZM241.75 70.5l-2.653 2.637a3.716 3.716 0 0 0 0 5.273 3.773 3.773 0 0 0 5.306 0 3.716 3.716 0 0 0 0-5.273L241.75 70.5ZM108.25 70.5l-2.653 2.637a3.716 3.716 0 0 0 0 5.273 3.773 3.773 0 0 0 5.306 0 3.716 3.716 0 0 0 0-5.273L108.25 70.5Z"/></g></g></g></svg>