<svg xmlns="http://www.w3.org/2000/svg" width="500" height="144"><defs><clipPath id="e"><path fill="none" d="M0 0h500v144H0z"/></clipPath><style>.h{fill:#542e14}</style></defs><g id="b"><g id="c"><g clip-path="url(#e)" id="d"><path class="h" d="M.576 45.794c0-18.815 9.695-32.83 27.262-32.83 12.863 0 21.022 7.391 21.022 20.35h2.016v-18.91h24.767v33.022H51.548c.096-5.472-3.551-9.504-11.903-9.504-7.775 0-11.615 3.456-11.615 8.832 0 7.008 6.431 11.23 20.927 11.23 10.27 0 18.91-2.111 26.686-6.431V77.95c-7.2 3.264-17.087 5.088-28.414 5.088C18.814 83.04.576 71.712.576 45.794ZM124.22 56.64V81.6H85.247V56.64h5.28c2.015 0 3.743-1.535 4.703-3.359l4.32-9.311c1.44-2.784-.672-4.608-3.552-4.608h-3.647V14.404h50.108c1.728 0 3.456 1.152 4.224 2.976l13.534 35.901c.865 2.016 2.688 3.36 4.704 3.36h4.224V81.6h-40.51V56.64h3.36c2.496 0 3.648-1.247 2.784-3.07l-.768-1.92h-15.167l-.767 1.92c-.865 1.823.383 3.07 2.783 3.07h3.36Zm-4.32-9.79h11.04l-2.208-4.224c-1.056-1.92-1.92-4.224-2.496-6.24h-1.632c-.672 2.016-1.536 4.32-2.592 6.24L119.9 46.85ZM176.255 75.84V47.426c7.391 6.431 22.942 10.655 36.957 10.655 6.048 0 10.752-.864 10.752-3.265 0-8.543-47.71 4.033-47.71-23.805 0-11.904 9.504-18.047 22.176-18.047 14.494 0 24.286 8.351 24.286 20.83h1.824l.096-19.39h24.382v30.91l-23.902-.096c0-4.609-6.528-6.911-13.247-6.911-5.376 0-8.928 1.343-8.928 3.743 0 8.735 48.285-1.92 48.285 21.598 0 13.823-18.143 19.391-38.302 19.391-11.999 0-27.261-2.687-36.67-7.2ZM327.161 56.64V81.6h-56.06V56.64h12.095c2.304 0 4.224-1.824 4.224-4.223V36.002h-1.632c-2.304 0-3.264 1.824-3.264 4.704v10.272h-23.902V14.404h81.114v36.574h-23.998V40.706c0-2.88-.96-4.704-3.264-4.704h-1.536v16.415c0 2.4 1.824 4.224 4.224 4.224h12ZM50.73 126.383a.649.649 0 0 0 .575-.649c0-.168-.048-.311-.072-.48l-.144-.623c-.048-.288-.504-2.16-.504-2.256 0-.265.36-.336.792-.36.96-.073 1.944-.144 2.929-.144.215 0 .431 0 .431.168 0 .12-.048.24-.12.36a.972.972 0 0 0-.191.576c0 .312.239 1.44.311 1.824l.048.191c.072.408.36.698.769.698h.095l1.513-.24c.456-.05 3.24-.505 3.36-.505.552 0 .576.528.696 1.104.048.384.24 1.416.24 1.752 0 .576-.36.624-1.92.816-.504.048-1.104.12-1.872.24l-1.465.216a.644.644 0 0 0-.504.648v.12l.288 1.464c.073.36.36.6.721.6h.096l3.216-.456c.48-.072 3.408-.552 3.528-.552.553 0 .624.529.696 1.224l.072.48c.048.288.12.84.12 1.104 0 .433-.167.649-.6.72-.216.024-2.976.385-3.336.433l-3.072.431c-.336.072-.552.36-.552.6 0 .049 0 .12.023.193l.168.863c.145.697.89 4.08.89 4.489 0 .384-.41.457-.722.528-.504.12-1.895.433-2.376.433-.431 0-.551-.336-.624-1.057-.143-1.225-.383-2.424-.6-3.624l-.216-1.08c-.071-.384-.384-.648-.744-.648h-.096l-3.72.528c-.504.072-3.024.504-3.264.504-.456 0-.552-.288-.649-.672-.071-.336-.311-2.016-.311-2.328 0-.48.336-.529 1.68-.672.528-.049 1.2-.12 2.064-.24l3.576-.504c.336-.073.552-.313.552-.625 0-.047 0-.072-.024-.168l-.264-1.392c-.072-.384-.336-.624-.696-.624h-.168l-1.632.24c-.504.073-3.216.504-3.456.504-.409 0-.552-.36-.624-.72-.073-.432-.264-1.824-.264-2.184 0-.527.336-.576 1.8-.744.528-.073 1.248-.145 2.135-.288l1.417-.216ZM77.105 130.967c.313-.072.529-.312.529-.6 0-.072-.025-.144-.025-.168l-.215-1.128c-.025-.096-.12-.6-.24-1.128-.144-.648-.289-1.248-.289-1.297 0-.215.24-.263.408-.287.672-.096 1.8-.192 2.449-.192.312 0 .696.024.696.432 0 .12-.048.215-.096.311a.733.733 0 0 0-.072.313c0 .168.191 1.104.24 1.343l.216 1.057c.071.313.336.528.624.528.048 0 .12-.024.144-.024l3.216-.648c.624-.12 1.272-.24 1.872-.408.12-.048.264-.072.409-.072.431 0 1.992 1.368 1.992 1.92 0 .24-.168.384-.336.552-.625.625-1.273 1.656-1.776 2.424-.289.409-1.2 1.777-1.489 2.04-.144.168-.336.289-.551.289-.36 0-2.28-.769-2.28-1.32 0-.169.167-.384.287-.552.168-.168 1.008-1.153 1.008-1.344 0-.096-.072-.265-.312-.265-.048 0-.096.025-.144.025l-1.272.263c-.24.05-.504.24-.504.649v.095c0 .024 0 .145.024.24l.96 4.657c.12.456.504 2.112.504 2.473 0 .311-.192.383-.456.455-.288.096-1.968.408-2.208.408-.408 0-.456-.24-.672-1.488-.072-.336-.144-.745-.24-1.224l-1.008-4.849a.622.622 0 0 0-.624-.527c-.049 0-.12.023-.169.023l-1.224.264c-.431.097-2.423.528-2.711.528-.336 0-.457-.311-.529-.575-.072-.289-.336-1.728-.336-1.969 0-.456.384-.528 1.752-.744.36-.072.792-.144 1.296-.24l1.152-.24ZM109.938 124.343c.48 0 1.175 0 1.656-.073.168-.024.431-.047.6-.047.743 0 2.064 1.8 2.064 2.136 0 .12-.193.455-.36.745-.457.815-1.873 3.311-3.336 5.183-.12.145-.193.264-.193.456 0 .24.12.384.336.505a49.464 49.464 0 0 1 4.37 3.408c.238.215 1.08.96 1.247 1.176a.342.342 0 0 1 .144.287c0 .673-2.016 2.785-2.689 2.785-.359 0-.672-.384-.935-.696a.44.44 0 0 0-.12-.168c-1.224-1.464-2.712-2.712-4.225-3.864-.24-.168-.576-.408-.792-.408-.24 0-.432.12-.6.288a27.471 27.471 0 0 1-3.768 2.88c-.528.335-2.857 1.705-3.336 1.705-.433 0-1.32-1.32-1.585-1.705-.191-.288-.6-.985-.6-1.296 0-.36.336-.504.624-.601 3.721-1.32 7.706-4.56 9.866-7.872.12-.168.336-.504.336-.72 0-.408-.409-.456-.817-.456h-3.648c-1.08 0-2.184.048-3.288.048-.6 0-.649-.288-.649-1.152v-1.608c0-.84.049-1.009.624-1.009 1.105 0 2.21.073 3.313.073h5.76ZM134.082 138.863c0 .793.023 1.585.023 2.4 0 1.153-.072 1.249-1.631 1.249h-1.08c-.96 0-1.249-.12-1.249-.744 0-.96.048-1.896.048-2.856v-13.85c0-.984-.048-2.232-.048-2.976 0-.312.048-.455.384-.455.288 0 3.12.311 3.697.48.144.047.263.143.263.287 0 .12-.071.217-.143.289-.12.168-.264.36-.264.864v4.656c0 .12.023.336.288.336.144 0 .288-.096.407-.096.193 0 .505.168.889.384.768.48 1.752 1.248 2.064 1.488.6.48 1.68 1.392 2.208 1.945.096.119.168.24.168.383 0 .48-1.752 2.425-2.304 2.425-.216 0-.456-.24-.6-.384-.408-.384-2.376-2.16-2.76-2.16-.337 0-.36.335-.36.576v5.76ZM183 126l-3.537 3.515a4.955 4.955 0 0 0 0 7.032 5.03 5.03 0 0 0 7.074 0 4.955 4.955 0 0 0 0-7.032L183 126ZM5 126l-3.537 3.515a4.955 4.955 0 0 0 0 7.032 5.03 5.03 0 0 0 7.074 0 4.955 4.955 0 0 0 0-7.032L5 126Z"/></g></g></g></svg>