<svg xmlns="http://www.w3.org/2000/svg" width="343" height="54"><defs><clipPath id="e"><path fill="none" d="M0 0h343v54H0z"/></clipPath><style>.h{fill:#542e14}</style></defs><g id="b"><g id="c"><g clip-path="url(#e)" id="d"><path class="h" d="M14.472 7.56c.432.108 1.188.324 1.188.756 0 .215-.216.377-.378.432-.864.486-.972 1.134-1.242 2.484-1.35 6.642-1.728 13.446-1.728 20.196 0 4.266 0 8.64 4.32 8.64 3.402 0 6.642-1.998 8.694-4.59 1.782-2.214 2.97-5.076 3.456-7.83.217-1.08.378-2.052 1.297-2.052 1.188 0 2.807 1.459 3.671 2.215.973.863 2.592 2.322 2.592 3.671 0 1.62-1.511 5.184-2.321 6.643-3.457 6.371-9.559 10.584-16.957 10.584-3.834 0-7.938-1.297-10.422-4.429-2.7-3.456-3.024-9.18-3.024-13.5 0-6.21.54-12.852.972-18.684.108-1.134.162-2.97.162-4.212 0-1.189 0-1.89.918-1.89 1.242 0 7.074 1.188 8.802 1.567ZM76.356 5.13a171.4 171.4 0 0 1 5.13 5.347c.27.27.702.755.702 1.24 0 .325-.324.379-.972.379-.54 0-.918.216-1.35.54-2.268 1.727-4.536 3.456-6.75 5.292-2.538 2.106-4.914 4.158-7.236 6.318-.54.486-1.08 1.025-1.08 1.782 0 1.08 1.782 2.863 2.754 3.834 3.618 3.564 7.668 7.183 11.988 11.179 1.08.97 1.836 2.05 1.836 2.7 0 1.673-4.914 6.21-6.372 6.21-.324 0-1.026-.54-1.566-1.188-2.97-3.673-7.074-7.722-10.746-11.395-1.944-1.944-4.428-4.428-5.994-6.534-1.188-1.62-1.89-3.186-1.89-5.184 0-1.511.432-2.808 1.296-4.05 1.458-2.106 5.184-4.968 7.452-6.804 4.266-3.401 7.236-6.265 10.53-10.422.162-.216.378-.433.702-.433.432 0 .918.541 1.566 1.189Zm11.827 16.794c0 1.026-2.646 3.024-3.295 3.024-.216 0-.54-.324-1.134-1.08-1.35-1.836-2.7-3.186-3.401-3.942-.27-.27-.595-.54-.595-.863 0-.756 2.808-2.647 3.456-2.647.486 0 4.969 4.752 4.969 5.508Zm1.89-9.397c.323.325 1.404 1.35 2.267 2.323 1.08 1.188 1.945 2.16 1.945 2.591 0 1.028-2.646 3.026-3.24 3.026-.324 0-.649-.433-.81-.649-1.242-1.511-2.485-2.97-3.835-4.32-.162-.162-.54-.54-.54-.81 0-.81 2.808-2.754 3.403-2.754.216 0 .54.324.81.593ZM127.332 4.266c.594.108.81.324.81.702s-.27.594-.54.81c-.702.54-.702.755-.864 2.43-.054.378-.432 3.834-.432 4.32 0 .648.216.917.648 1.35.594.54 1.674 1.944 1.674 2.754 0 .27-.108.486-.108.702 0 .324.216.378.27.378.27 0 .81-.594 1.242-1.026 2.322-2.213 5.13-4.428 8.478-4.428 2.106 0 4.536.918 5.778 2.7 1.242 1.728 1.242 4.158 1.242 6.21 0 2.916-.108 5.832-.216 8.694-.054 1.783-.216 3.564-.216 5.292 0 .865 0 1.998.864 1.998.756 0 2.916-2.376 3.51-3.023.324-.379.702-.757 1.242-.757.703 0 1.566 1.728 1.836 2.269.487.971 1.783 3.564 1.783 4.482 0 .594-.595 1.133-1.783 2.106-2.7 2.213-6.102 4.482-9.72 4.482-1.89 0-3.564-1.135-4.482-2.701-1.35-2.322-1.404-5.184-1.404-7.776 0-5.238.702-10.692.702-13.554 0-.701-.216-1.512-1.08-1.512-2.052 0-8.208 6.049-9.774 7.668-.972.973-1.026 1.512-1.026 2.809 0 4.427.108 11.232.594 15.551.054.27.054.54.054.757 0 .54-.432.648-.972.701a47.666 47.666 0 0 1-4.806.217c-2.268 0-3.024-.055-3.024-1.08 0-.108.324-3.834.324-5.617 0-.377-.054-.863-.486-.863-.486 0-1.404 1.89-1.944 2.97-.108.27-.216.486-.27.594-.162.323-.432.81-.864.81-1.134 0-5.67-3.78-5.67-4.914 0-.433.81-1.566 1.134-1.999 2.754-4.104 5.562-8.748 8.1-13.014.324-.54.432-.972.432-1.404 0-.54-.108-1.026-.702-1.026-.486 0-1.08.27-2.268.81-1.242.54-3.294 1.296-4.05 1.296-1.134 0-1.728-1.08-2.106-2.051-.378-.92-1.62-4.375-1.62-5.185 0-.864.702-1.188 2.268-1.242 1.566-.216 7.398-1.296 8.316-2.268.378-.377.432-1.133.432-1.728v-.433c.054-2.159.108-4.319.108-6.48 0-.54-.054-1.026-.054-1.565 0-.756.432-.918 1.08-.918 1.134 0 6.372.486 7.56.702ZM200.287 28.566c0 9.073-6.967 16.903-14.689 20.953-.864.485-2.916 1.458-3.888 1.458-2.322 0-5.616-5.67-5.616-6.643 0-.54.54-.756.972-.863 3.834-1.135 7.074-2.647 9.99-5.346 2.592-2.377 4.536-5.347 4.536-8.965 0-3.564-2.646-5.724-6.102-5.724-4.158 0-7.992 2.268-11.178 4.752-.27.27-.756.54-1.134.54-1.782 0-4.212-5.562-4.212-7.343 0-.865.864-1.297 1.512-1.621 4.32-2.16 10.692-4.266 15.552-4.266 8.046 0 14.257 4.59 14.257 13.068ZM178.902 3.834c3.456 1.674 10.206 2.538 14.094 2.809 1.296.107 1.782.214 1.782.918 0 .485-.215 1.835-.432 3.185-.27 1.781-.594 3.996-2.16 3.996-2.7 0-10.26-1.674-13.014-2.43-3.402-.917-4.32-1.188-4.32-2.052 0-1.08 1.134-4.158 1.566-5.292.216-.594.54-1.512 1.35-1.512.378 0 .81.216 1.134.378ZM228.744 13.068c.54.108 1.134.27 1.134.756 0 .216-.162.378-.54.649-.702.539-.864 1.565-1.026 2.375-.486 2.484-.702 5.076-.702 7.56 0 3.403.486 7.29 1.944 10.368.432.918 1.404 2.646 2.592 2.646 1.242 0 2.484-2.213 2.97-3.078.378-.648.864-1.35 1.674-1.35 1.62 0 5.616 3.078 5.616 4.374s-2.484 4.158-3.402 5.185c-1.89 2.105-3.78 3.887-6.75 3.887-3.618 0-6.696-2.645-8.694-5.454-3.996-5.616-4.374-13.5-4.374-20.142 0-1.026.216-7.56.27-8.317.054-.593.324-.863.918-.863.702 0 7.02 1.134 8.37 1.404Zm19.764-1.728c1.458 0 5.724 3.348 8.1 7.181 2.106 3.403 3.402 7.183 3.996 11.07.108.865.27 2.16.27 2.81 0 1.133-.27 1.62-1.35 1.943-1.566.486-3.51.918-5.13.918-1.998 0-2.052-.701-2.214-2.754-.486-6.48-2.754-11.61-7.884-15.281-.324-.271-.54-.487-.54-.918 0-1.243 3.132-4.97 4.752-4.97Z"/></g></g></g></svg>