<svg xmlns="http://www.w3.org/2000/svg" width="350" height="84"><defs><clipPath id="e"><path fill="none" d="M0 0h350v84H0z"/></clipPath><style>.h{fill:#542e14}</style></defs><g id="b"><g id="c"><g clip-path="url(#e)" id="d"><path class="h" d="M93.994 21.94c0-9.017 4.647-15.734 13.066-15.734 6.165 0 10.075 3.542 10.075 9.753h.967V6.896h11.869v15.826h-11.548c.046-2.622-1.702-4.555-5.704-4.555-3.727 0-5.568 1.656-5.568 4.232 0 3.359 3.083 5.383 10.03 5.383 4.923 0 9.063-1.012 12.79-3.082v12.652c-3.45 1.564-8.19 2.438-13.618 2.438-13.618 0-22.359-5.429-22.359-17.85ZM152.784 27.139v11.96h-18.678V27.14h2.53c.967 0 1.795-.737 2.255-1.61l2.07-4.464c.69-1.334-.322-2.208-1.702-2.208h-1.748V6.896h24.014c.829 0 1.657.552 2.025 1.426l6.486 17.206c.414.966 1.288 1.61 2.254 1.61h2.024V39.1H154.9V27.139h1.61c1.197 0 1.749-.599 1.335-1.473l-.368-.92h-7.269l-.368.92c-.414.874.183 1.473 1.334 1.473h1.61Zm-2.07-4.694h5.29l-1.058-2.023c-.506-.921-.92-2.025-1.196-2.991h-.782c-.322.966-.736 2.07-1.242 2.99l-1.012 2.024ZM178.174 36.339V22.722c3.543 3.082 10.995 5.106 17.712 5.106 2.898 0 5.153-.414 5.153-1.564 0-4.094-22.865 1.932-22.865-11.41 0-5.704 4.555-8.648 10.628-8.648 6.946 0 11.638 4.002 11.638 9.983h.874l.046-9.293h11.686V21.71l-11.455-.046c0-2.209-3.128-3.312-6.349-3.312-2.576 0-4.278.643-4.278 1.794 0 4.186 23.14-.92 23.14 10.351 0 6.624-8.695 9.293-18.356 9.293-5.75 0-13.065-1.288-17.574-3.451ZM249.57 27.139v11.96h-26.868V27.14h5.797a2.013 2.013 0 0 0 2.024-2.025v-7.867h-.782c-1.103 0-1.564.874-1.564 2.254v4.923h-11.455V6.896h38.875v17.528h-11.502V19.5c0-1.38-.46-2.254-1.564-2.254h-.736v7.867c0 1.15.874 2.025 2.024 2.025h5.75ZM142.548 70.784a.486.486 0 0 0 .431-.485c0-.127-.036-.235-.053-.36l-.109-.47c-.036-.215-.378-1.62-.378-1.692 0-.197.271-.252.595-.27.72-.054 1.458-.108 2.196-.108.163 0 .325 0 .325.126a.54.54 0 0 1-.09.27.72.72 0 0 0-.145.433c0 .234.181 1.08.235 1.368l.036.144c.054.306.27.523.576.523h.071l1.135-.181c.342-.036 2.43-.378 2.52-.378.415 0 .433.397.523.828.036.288.18 1.063.18 1.315 0 .432-.27.468-1.44.612-.379.036-.829.09-1.405.18l-1.098.162a.484.484 0 0 0-.379.486v.09l.217 1.099c.054.27.27.45.54.45h.073l2.412-.342c.36-.055 2.556-.414 2.646-.414.414 0 .469.395.523.918l.053.36c.036.216.091.63.091.828 0 .325-.126.487-.45.54-.162.018-2.233.288-2.503.325l-2.305.324c-.252.054-.414.27-.414.45 0 .036 0 .09.018.144l.126.648c.108.522.666 3.06.666 3.367 0 .288-.306.342-.54.396-.378.09-1.422.324-1.782.324-.325 0-.415-.252-.468-.792-.109-.918-.288-1.818-.45-2.719l-.163-.81a.576.576 0 0 0-.558-.487h-.072l-2.79.397c-.378.054-2.269.378-2.45.378-.341 0-.414-.216-.486-.504-.054-.252-.233-1.513-.233-1.747 0-.36.252-.396 1.26-.504.396-.036.9-.09 1.548-.18l2.683-.378c.252-.054.414-.234.414-.469 0-.036 0-.053-.018-.126l-.198-1.043c-.054-.289-.252-.468-.522-.468h-.126l-1.225.18c-.378.053-2.412.377-2.593.377-.305 0-.414-.27-.468-.54-.053-.324-.198-1.368-.198-1.638 0-.397.252-.432 1.35-.558.397-.055.937-.108 1.603-.217l1.063-.162ZM162.33 74.224c.233-.054.396-.235.396-.45 0-.054-.018-.109-.018-.127l-.162-.846c-.019-.072-.09-.45-.18-.846-.108-.486-.217-.936-.217-.973 0-.162.18-.198.306-.215.505-.073 1.35-.145 1.837-.145.234 0 .522.019.522.324 0 .091-.036.162-.072.235s-.054.162-.054.234c0 .126.144.828.18 1.008l.162.792a.495.495 0 0 0 .468.396c.036 0 .09-.017.108-.017l2.414-.487c.467-.09.954-.18 1.404-.306a.859.859 0 0 1 .305-.054c.325 0 1.496 1.026 1.496 1.44 0 .18-.127.289-.253.415-.468.468-.954 1.242-1.332 1.818-.216.307-.9 1.333-1.117 1.531-.108.126-.252.216-.414.216-.27 0-1.71-.576-1.71-.99 0-.126.125-.288.216-.414.126-.126.756-.865.756-1.01 0-.071-.054-.197-.234-.197-.036 0-.073.018-.108.018l-.955.198c-.18.036-.378.18-.378.486v.072c0 .019 0 .108.019.18l.72 3.493c.09.343.377 1.585.377 1.854 0 .235-.143.289-.341.343-.216.071-1.477.306-1.657.306-.306 0-.342-.18-.503-1.116-.055-.252-.109-.558-.181-.918l-.756-3.638a.467.467 0 0 0-.469-.396c-.036 0-.09.018-.126.018l-.918.198c-.324.073-1.818.397-2.034.397-.253 0-.343-.235-.396-.433-.054-.216-.252-1.296-.252-1.476 0-.342.288-.396 1.314-.558.27-.055.594-.108.972-.18l.864-.18ZM186.955 69.254c.36 0 .882 0 1.242-.054a3.68 3.68 0 0 1 .45-.036c.558 0 1.548 1.35 1.548 1.603 0 .09-.143.341-.27.557-.341.613-1.404 2.486-2.502 3.89-.09.108-.144.198-.144.342 0 .18.09.288.252.378a37.28 37.28 0 0 1 3.277 2.557c.18.162.81.72.936.882a.256.256 0 0 1 .109.216c0 .505-1.513 2.089-2.017 2.089-.27 0-.505-.288-.702-.523-.019-.053-.055-.09-.091-.126-.918-1.097-2.034-2.034-3.169-2.898-.18-.126-.432-.307-.594-.307-.18 0-.324.091-.45.217a20.593 20.593 0 0 1-2.827 2.16c-.396.252-2.143 1.279-2.503 1.279-.323 0-.99-.99-1.187-1.279-.145-.216-.45-.738-.45-.971 0-.271.251-.38.467-.45 2.791-.99 5.78-3.423 7.4-5.907.09-.126.252-.378.252-.54 0-.306-.305-.342-.612-.342h-2.736c-.81 0-1.639.036-2.467.036-.45 0-.486-.216-.486-.864v-1.207c0-.63.036-.756.467-.756.829 0 1.657.054 2.486.054h4.321ZM205.063 80.147c0 .594.018 1.189.018 1.801 0 .865-.054.936-1.225.936h-.81c-.72 0-.936-.09-.936-.558 0-.72.036-1.423.036-2.142v-10.39c0-.738-.036-1.674-.036-2.232 0-.235.036-.342.288-.342.216 0 2.341.233 2.773.36.108.035.198.107.198.216 0 .09-.054.162-.108.216-.09.126-.198.27-.198.648v3.493c0 .09.018.252.216.252.108 0 .216-.072.306-.072.144 0 .378.126.666.288.576.36 1.314.937 1.549 1.116.45.36 1.26 1.044 1.656 1.46.072.09.126.179.126.287 0 .36-1.314 1.819-1.728 1.819-.163 0-.342-.18-.45-.288-.306-.288-1.783-1.621-2.071-1.621-.252 0-.27.252-.27.432v4.321ZM241.75 70.5l-2.653 2.637a3.716 3.716 0 0 0 0 5.273 3.773 3.773 0 0 0 5.306 0 3.716 3.716 0 0 0 0-5.273L241.75 70.5ZM108.25 70.5l-2.653 2.637a3.716 3.716 0 0 0 0 5.273 3.773 3.773 0 0 0 5.306 0 3.716 3.716 0 0 0 0-5.273L108.25 70.5Z"/></g></g></g></svg>