<svg id="_レイヤー_2" xmlns="http://www.w3.org/2000/svg" width="108" height="108"><defs><clipPath id="clippath"><path class="cls-1" d="M0 0h108v108H0z"/></clipPath><style>.cls-1{fill:none}</style></defs><g id="Layout"><g clip-path="url(#clippath)" id="design_mid"><path d="M107 54c0 5.39-6.71 9.66-8.29 14.53s1.22 12.43-1.83 16.63-11.01 3.79-15.25 6.87-6.2 10.75-11.24 12.39C65.52 106 59.4 101 54.01 101s-11.51 5-16.38 3.42-7.05-9.33-11.24-12.39-12.17-2.63-15.25-6.87-.19-11.58-1.83-16.63S1 59.39 1 54s6.71-9.66 8.29-14.53c1.64-5.04-1.22-12.43 1.83-16.63s11.01-3.79 15.25-6.87 6.2-10.75 11.24-12.39S48.6 7 53.99 7 65.5 2 70.37 3.58c5.04 1.64 7.05 9.33 11.24 12.39s12.17 2.63 15.25 6.87.19 11.58 1.83 16.63 8.29 9.13 8.29 14.53Z" fill="#ffc0a8"/><path class="cls-1" d="M0 0h108v108H0z"/></g></g></svg>