<svg xmlns="http://www.w3.org/2000/svg" width="108" height="108"><defs><clipPath id="a"><path fill="none" d="M0 0h108v108H0z"/></clipPath></defs><g clip-path="url(#a)"><path d="M107 54c0 5.394-6.707 9.662-8.288 14.529-1.638 5.044 1.223 12.429-1.832 16.627-3.087 4.24-11.014 3.787-15.255 6.873-4.198 3.055-6.2 10.752-11.243 12.39C65.515 105.999 59.394 101 54 101s-11.515 5-16.382 3.419c-5.044-1.638-7.045-9.335-11.244-12.39-4.24-3.087-12.168-2.633-15.254-6.873-3.056-4.199-.194-11.583-1.832-16.627C7.708 63.662 1 59.394 1 54s6.707-9.662 8.288-14.529c1.638-5.044-1.223-12.429 1.832-16.627 3.087-4.24 11.014-3.787 15.255-6.873 4.198-3.055 6.2-10.752 11.243-12.39C42.485 2.001 48.606 7 54 7s11.515-5 16.382-3.419c5.044 1.638 7.045 9.335 11.244 12.39 4.24 3.087 12.168 2.633 15.254 6.873 3.056 4.199.194 11.583 1.832 16.627C100.292 44.338 107 48.606 107 54Z" fill="#ff622c"/></g></svg>