<svg xmlns="http://www.w3.org/2000/svg" width="66" height="16"><defs><clipPath id="e"><path fill="none" d="M0 0h66v16H0z"/></clipPath><style>.f{fill:#fff8ee}</style></defs><g id="b"><g id="c"><g clip-path="url(#e)" id="d"><path class="f" d="M7.451 14.165c-3.431 0-6.12-2.695-6.12-6.136 0-3.548 2.673-6.199 6.216-6.199 1.594 0 2.854.385 3.968 1.21a1.584 1.584 0 0 1-.958 2.85c-.412 0-.694-.144-.937-.3-.688-.51-1.345-.741-2.089-.741-1.64 0-2.876 1.34-2.876 3.117 0 1.826 1.236 3.18 2.876 3.18.992 0 1.597-.32 2.201-.8a1.52 1.52 0 0 1 2.494 1.156c0 .443-.2.867-.547 1.164-1.185 1.036-2.49 1.499-4.228 1.499ZM23.853 14.068c-.9 0-1.606-.705-1.606-1.605V9.475h-3.8v2.988c0 .9-.705 1.605-1.605 1.605s-1.606-.705-1.606-1.605V3.53c0-.9.705-1.605 1.606-1.605s1.605.705 1.605 1.605v2.925h3.8V3.531c0-.9.705-1.605 1.606-1.605s1.605.705 1.605 1.605v8.932c0 .9-.705 1.605-1.605 1.605ZM30.602 13.973c-.9 0-1.605-.705-1.605-1.606v-8.74c0-.9.705-1.605 1.605-1.605h6.21A1.48 1.48 0 0 1 38.29 3.5c0 .806-.663 1.46-1.478 1.46h-4.62v1.528h3.9a1.48 1.48 0 0 1 1.478 1.478c0 .805-.663 1.46-1.478 1.46h-3.9v1.607h4.7a1.48 1.48 0 0 1 1.478 1.478c0 .805-.663 1.462-1.477 1.462h-6.291ZM46.939 14.165c-3.432 0-6.12-2.695-6.12-6.136 0-3.548 2.673-6.199 6.216-6.199 1.594 0 2.854.385 3.967 1.21a1.584 1.584 0 0 1-.958 2.85c-.412 0-.694-.144-.937-.3-.697-.518-1.334-.741-2.088-.741-1.64 0-2.876 1.34-2.876 3.117 0 1.826 1.236 3.18 2.876 3.18.992 0 1.597-.32 2.201-.8a1.52 1.52 0 0 1 2.494 1.156c0 .443-.2.867-.547 1.164-1.186 1.036-2.49 1.499-4.228 1.499ZM63.212 14.068c-.675 0-1.054-.372-1.336-.736l-2.953-3.868-.988.92v2.079c0 .9-.706 1.605-1.606 1.605s-1.605-.705-1.605-1.605V3.53c0-.9.705-1.605 1.605-1.605s1.606.705 1.606 1.605v2.866l3.91-3.882c.274-.274.67-.59 1.303-.59.86 0 1.51.65 1.51 1.51 0 .449-.186.841-.566 1.2l-2.903 2.71 3.227 4.053c.194.243.417.587.417 1.097 0 .897-.697 1.573-1.621 1.573Z"/></g></g></g></svg>