<svg xmlns="http://www.w3.org/2000/svg" width="145.155" height="139.916"><defs><style>.e{fill:#fff}</style></defs><g id="b"><g id="c"><g id="d"><path class="e" d="M133.238 94.24c3.758-4.877 5.91-10.421 5.91-16.316 0-19.372-22.982-35.078-51.333-35.078S36.483 58.552 36.483 77.924c0 2.83.543 5.567 1.469 8.202-2.254-.387-4.575-.638-6.987-.638C13.863 85.488 0 95.773 0 108.46s13.863 22.973 30.965 22.973S61.93 121.148 61.93 108.46c0-.101-.038-.195-.04-.296.632.253 1.253.516 1.902.751-.256 1.24-.436 2.498-.436 3.787 0 15.03 18.052 27.214 40.32 27.214s40.32-12.184 40.32-27.214c0-7.135-4.103-13.609-10.758-18.462Z"/><ellipse class="e" cx="133.122" cy="9.833" rx="12.032" ry="9.833"/><path d="M130.428 133.023c-4.39-8.4-11.843-14.674-21.011-13.821-4.675.435-9.369 3.065-11.175 7.398 2.448-10.553 4.901-21.53 2.579-32.112-2.323-10.581-10.907-20.623-21.738-20.868-4.667-.107-9.223 1.583-13.254 3.937-10.966 6.406-18.68 18.095-20.255 30.697-14.605-4.885-31.16-.27-42.677 9.783 4.903 7.89 15.59 13.396 28.068 13.396 17.102 0 30.965-10.285 30.965-22.973 0-.101-.038-.195-.04-.296.632.253 1.253.516 1.902.751-.256 1.24-.436 2.498-.436 3.787 0 15.03 18.052 27.214 40.32 27.214 10.28 0 19.631-2.619 26.752-6.893Z" fill="#ffeedb"/></g></g></g></svg>