<svg xmlns="http://www.w3.org/2000/svg" width="251.888" height="168.442"><defs><style>.e{fill:#fff}</style></defs><g id="b"><g id="c"><g id="d"><path class="e" d="M193.57 39.396c-2.942 0-5.832.22-8.657.64C177.624 16.888 154.886 0 127.961 0 100.74 0 77.797 17.258 70.77 40.798a34.901 34.901 0 0 0-9.815-1.402c-18.106 0-32.99 13.789-34.728 31.438C11.536 72.084 0 84.404 0 99.42c0 15.7 12.611 28.454 28.256 28.689 6.045 19.068 23.884 32.887 44.953 32.887a46.936 46.936 0 0 0 27.44-8.805c7.32 9.86 19.051 16.25 32.275 16.25 14.34 0 26.924-7.516 34.032-18.822 7.979 4.1 17.025 6.414 26.613 6.414 32.209 0 58.319-26.11 58.319-58.319s-26.11-58.319-58.319-58.319Z"/><path d="M251.856 95.87c-2.101 2.452-12.515 14.08-30.368 15.804-18.402 1.779-31.119-8.277-33.503-10.237-1.476 2.06-17.2 23.217-44.36 22.956-22.046-.212-35.938-14.387-38.465-17.061 3.538-.505 9.46-1.848 15.51-5.895 10.06-6.727 13.765-16.44 14.89-19.853-2.46 2.49-19.617 19.29-44.98 17.062C73.26 97.123 61.84 87.58 58.01 84.066c.5 2.363 2.098 8.364 7.445 13.65 5.044 4.985 10.654 6.594 13.028 7.134-6.531 3.49-26.283 12.933-50.873 8.065C15.153 110.45 5.827 105.178.057 101.2c.13 2.095.944 11.429 8.797 18.948a28.594 28.594 0 0 0 19.402 7.962c6.045 19.068 23.884 32.887 44.953 32.887a46.936 46.936 0 0 0 27.44-8.805c7.32 9.86 19.051 16.25 32.275 16.25 14.34 0 26.924-7.516 34.032-18.822a57.94 57.94 0 0 0 9.468 3.853c.971.298 13.816 4.113 27.692 1.63 12.622-2.258 27.618-9.998 37.535-24.506 9.865-14.433 10.32-29.15 10.205-34.726Z" fill="#ffeedb"/><path class="e" d="M245.694 71.54c-9.592-19.063-29.33-32.144-52.125-32.144-2.941 0-5.831.22-8.656.64C177.624 16.888 154.886 0 127.961 0 100.74 0 77.797 17.258 70.77 40.798a34.901 34.901 0 0 0-9.815-1.402c-18.106 0-32.99 13.789-34.728 31.438-9.25.787-17.245 5.964-21.902 13.436 3.058-2.585 8.367-6.334 15.838-8.27a39.224 39.224 0 0 1 8.996-1.24c2.096-4.238 6.914-12.525 16.44-19.233 11.391-8.021 22.887-9.118 27.609-9.306.789-1.452 18.036-31.896 53.356-33.192 34.103-1.252 53.379 25.832 54.596 27.608a40.093 40.093 0 0 0-13.34 3.723c-7.386 3.537-11.958 8.535-14.268 11.477 6.025-3.204 23.273-11.361 45.91-8.375 26.124 3.445 41.933 19.424 46.231 24.078Z"/></g></g></g></svg>