<svg xmlns="http://www.w3.org/2000/svg" width="227.011" height="166.267"><defs><style>.f{fill:#ffeedb}</style></defs><g id="b"><g id="c"><g id="d"><path class="f" d="M227.011 90.63c0-17.796-14.426-32.222-32.221-32.222-3.627 0-7.114.6-10.368 1.704C180.184 26.222 151.271 0 116.232 0 84.783 0 58.27 21.12 50.101 49.95a45.31 45.31 0 0 0-5.225-.303C20.092 49.647 0 69.738 0 94.523c0 22.367 16.364 40.91 37.774 44.315 2.822 14.412 15.519 25.288 30.758 25.288 9.874 0 18.68-4.568 24.426-11.704 8.878 8.571 20.959 13.845 34.274 13.845 15.249 0 28.88-6.917 37.934-17.783a27.613 27.613 0 0 0 15.217 4.544c15.322 0 27.743-12.421 27.743-27.743 0-1.745-.163-3.452-.47-5.108 11.391-4.967 19.355-16.326 19.355-29.548Z"/><path class="f" d="M226.622 95.637c-7.65 3.643-19.679 8.006-34.855 8.422-14.213.39-25.57-2.838-32.5-5.417a29.244 29.244 0 0 0 5.077 7.786 29.287 29.287 0 0 0 8.464 6.433c-2.43 2.409-10.76 10.067-24.037 11.51-15.148 1.647-25.983-5.966-28.437-7.786 2.027-1.17 6.498-4.123 9.479-9.818a24.283 24.283 0 0 0 2.708-9.818c-4.362 3.26-19.257 13.538-40.625 12.865-18.903-.596-31.958-9.418-36.563-12.865a22.582 22.582 0 0 0 2.37 10.495 22.556 22.556 0 0 0 6.432 7.786c-5.333 2.818-16.38 7.738-31.146 7.787-11.201.037-20.34-2.744-26.607-5.417 6.686 11.128 18.06 19.118 31.392 21.238 2.822 14.412 15.519 25.288 30.758 25.288 9.874 0 18.68-4.568 24.426-11.704 8.878 8.571 20.959 13.845 34.274 13.845 15.249 0 28.88-6.917 37.934-17.783a27.614 27.614 0 0 0 15.217 4.544c15.322 0 27.743-12.421 27.743-27.743 0-1.745-.163-3.452-.47-5.108 9.923-4.327 17.244-13.506 18.966-24.54Z"/><path d="M224.964 79.309c-4.583-12.21-16.363-20.901-30.174-20.901-3.627 0-7.114.6-10.368 1.704C180.184 26.222 151.271 0 116.232 0 84.784 0 58.27 21.12 50.102 49.95a45.314 45.314 0 0 0-5.225-.303c-17.732 0-33.06 10.285-40.35 25.214C8.74 70.33 17.322 62.39 30.62 58.017a61.227 61.227 0 0 1 18.958-3.047 67.324 67.324 0 0 0-5.417 21.667c4.831-5.176 23.845-24.323 55.183-27.761 28.385-3.114 49.388 8.577 55.86 12.526a54.084 54.084 0 0 0-10.156-12.188 54.304 54.304 0 0 0-17.605-10.494c5.342-.87 20.911-2.68 36.901 6.093 9.585 5.26 15.486 12.217 18.62 16.589 4.684-.362 14.985-.507 26.068 5.078 8.002 4.033 13.137 9.402 15.932 12.829Z" fill="#fff"/></g></g></g></svg>