<svg xmlns="http://www.w3.org/2000/svg" width="564.515" height="292.51"><defs><style>.e{fill:#fff}.f{fill:#ffeedb}</style></defs><g id="b"><g id="c"><g id="d"><path class="e" d="M283.192 150.32c-4.383 0-8.552.761-12.37 2.1-9.018-15.291-29.432-25.978-53.211-25.978-30.963 0-56.203 18.112-57.991 40.937-8.9 5.69-14.692 14.77-14.692 25.033 0 17.242 16.271 31.22 36.342 31.22 10.938 0 20.724-4.172 27.386-10.742 2.926.34 5.902.568 8.955.568 17.44 0 33.045-5.77 43.706-14.864 5.792 4.502 13.421 7.317 21.875 7.317 18.002 0 32.594-12.445 32.594-27.796s-14.592-27.796-32.594-27.796ZM136.692 229.114c0-19.425-19.681-35.171-43.958-35.171s-43.956 15.746-43.956 35.171c0 10.75 6.043 20.358 15.542 26.81-4.849 3.89-7.876 9.069-7.876 14.806 0 12.029 13.043 21.78 29.131 21.78s29.132-9.751 29.132-21.78c0-3.555-1.247-6.86-3.267-9.824 14.909-5.627 25.252-17.728 25.252-31.792ZM392.86 51.393c3.759-4.876 5.91-10.42 5.91-16.315C398.77 15.705 375.79 0 347.438 0s-51.332 15.705-51.332 35.078c0 2.83.543 5.566 1.468 8.202-2.253-.387-4.574-.639-6.986-.639-17.102 0-30.965 10.286-30.965 22.973s13.863 22.973 30.965 22.973 30.965-10.285 30.965-22.973c0-.102-.038-.196-.04-.297.632.254 1.253.517 1.902.752-.256 1.24-.436 2.498-.436 3.786 0 15.03 18.052 27.214 40.32 27.214s40.32-12.184 40.32-27.214c0-7.135-4.103-13.608-10.758-18.462Z"/><ellipse class="e" cx="390.756" cy="160.455" rx="36.157" ry="28.123"/><ellipse class="e" cx="500.745" cy="101.987" rx="12.032" ry="9.833"/><ellipse class="e" cx="556.601" cy="147.053" rx="7.914" ry="7.133"/><ellipse class="e" cx="222.449" cy="26.298" rx="13.035" ry="7.306"/><ellipse class="e" cx="158.683" cy="88.51" rx="13.755" ry="9.039"/><ellipse class="e" cx="13.402" cy="169.928" rx="13.402" ry="9.473"/><ellipse class="e" cx="9.743" cy="277.204" rx="9.743" ry="6.41"/><path class="f" d="M290.062 176.278c-6.77-4.912-14.055-9.529-22.27-11.1-8.214-1.572-17.59.49-22.814 7.02l-.13-5.228c-9.692-7.785-23.092-11.528-34.954-7.807-11.861 3.721-21.153 15.791-19.81 28.15-11.842-2.866-25.105 1.226-33.274 10.266-2.898 3.206-5.075 7.003-6.543 11.06 6.382 8.979 17.86 14.992 31.003 14.992 10.938 0 20.724-4.17 27.386-10.74 2.926.338 5.902.567 8.955.567 17.44 0 33.045-5.77 43.706-14.864 5.792 4.502 13.421 7.317 21.875 7.317 6.592 0 12.704-1.697 17.833-4.566 1.372-2.915 1.996-6.108 1.48-9.287-1.102-6.793-6.873-11.74-12.443-15.78ZM390.051 90.176c-4.39-8.4-11.843-14.674-21.011-13.82-4.675.434-9.369 3.065-11.175 7.398 2.447-10.553 4.901-21.531 2.579-32.112-2.323-10.581-10.907-20.623-21.738-20.869-4.667-.106-9.223 1.583-13.254 3.938-10.967 6.405-18.68 18.094-20.255 30.696-14.605-4.885-31.16-.269-42.677 9.784 4.903 7.89 15.59 13.396 28.068 13.396 17.102 0 30.965-10.285 30.965-22.973 0-.102-.038-.196-.04-.297.632.254 1.253.517 1.902.752-.256 1.24-.436 2.498-.436 3.786 0 15.03 18.052 27.214 40.32 27.214 10.28 0 19.63-2.618 26.752-6.893ZM136.587 230.258c-4.84-4.566-10.493-7.94-17.061-8.566-8.29-.79-16.288 2.934-23.655 6.817-5.695 3.002-11.393 6.22-15.906 10.812-6.946 7.067-10.468 16.718-13.797 26.052-2.025 5.68-4.071 11.49-4.825 17.429 5.222 5.85 14.12 9.708 24.232 9.708 16.09 0 29.132-9.751 29.132-21.78 0-3.555-1.247-6.86-3.267-9.824 14.497-5.472 24.596-17.082 25.147-30.648Z"/></g></g></g></svg>