<svg xmlns="http://www.w3.org/2000/svg" width="297.201" height="254.563"><defs><style>.e{fill:#fff}</style></defs><g id="b"><g id="c"><g id="d"><path class="e" d="M262.19 25.66C259.705 11.156 245.003 0 227.186 0c-19.56 0-35.415 13.428-35.415 29.992 0 13.61 10.714 25.086 25.383 28.751a35.658 35.658 0 0 0-.264 4.2c0 20.78 17.978 37.626 40.155 37.626s40.156-16.845 40.156-37.625c0-19.143-15.27-34.912-35.011-37.283ZM71.917 75.35c-1.956-7.808-9.62-13.648-18.816-13.648-10.676 0-19.331 7.852-19.331 17.537s8.655 17.536 19.331 17.536c.707 0 1.378-.122 2.066-.189 2.95 4.67 8.793 7.892 15.605 7.892 9.758 0 17.67-6.542 17.67-14.612 0-7.746-7.31-14.02-16.525-14.517ZM194.32 183.537c-10.192 0-18.453 7.584-18.453 16.939 0 .535.118 1.04.171 1.563-2.243-.472-4.58-.799-7.052-.799-13.196 0-23.893 7.242-23.893 16.175s10.697 16.175 23.893 16.175 23.893-7.242 23.893-16.175c0-.047-.02-.09-.02-.135.49.036.96.135 1.46.135 10.191 0 18.453-7.584 18.453-16.94s-8.262-16.938-18.453-16.938Z"/><ellipse class="e" cx="103.811" cy="159.348" rx="15.699" ry="10.827"/><ellipse class="e" cx="15.699" cy="243.736" rx="15.699" ry="10.827"/><path d="M285.109 89.83a81.725 81.725 0 0 0-2.72-6.297c-4.473-9.222-10.603-17.964-19.24-23.48-8.64-5.518-20.114-7.31-29.267-2.698-4.835-14.704-16.522-26.994-30.966-32.561-3.13-1.207-6.57-1.977-10-2.247-.722 2.384-1.145 4.87-1.145 7.445 0 13.61 10.714 25.086 25.383 28.751a35.658 35.658 0 0 0-.264 4.2c0 20.78 17.978 37.626 40.155 37.626 10.928 0 20.823-4.103 28.064-10.739Z" fill="#ffeedb"/></g></g></g></svg>