<svg xmlns="http://www.w3.org/2000/svg" width="20.132" height="20.166"><path d="M18.948 8.34a9.099 9.099 0 0 0-.268-1.112 9.017 9.017 0 0 0-2.902-4.21 8.99 8.99 0 0 0-6.673-1.962 9.08 9.08 0 0 0-3.288 1.012l-.021.009c-.344.184-.659.417-.977.645a8.999 8.999 0 0 0-.974.8c-.293.279-.594.548-.852.868C.005 8.1.449 13.435 3.845 16.66c.178.17.327.359.521.516.143.115.305.19.453.295.32.227.639.456.977.636l.02.014c.452.239.921.417 1.396.575.364.12.73.204 1.103.277.4.078.799.152 1.204.176 2.838.17 5.716-.968 7.635-3.345 1.477-1.833 2.093-4.068 1.961-6.25a9.133 9.133 0 0 0-.167-1.214Z" fill="#ffd85c" stroke="#542e14" stroke-miterlimit="10" stroke-width="2"/></svg>