<svg xmlns="http://www.w3.org/2000/svg" width="24.752" height="23.689"><path d="M19.784 20.704c-1.961.567-4.137.441-5.951-.51-1.384 1.509-3.389 2.365-5.426 2.495-1.471-1.414-2.45-3.362-2.533-5.408-2-.444-3.743-1.752-4.874-3.451.49-1.981 1.686-3.803 3.417-4.898-.615-1.953-.354-4.117.551-5.946 1.961-.568 4.137-.442 5.951.51C12.303 1.986 14.308 1.13 16.345 1c1.471 1.415 2.45 3.362 2.533 5.408 2 .444 3.743 1.752 4.874 3.452-.49 1.981-1.687 3.802-3.417 4.897.229.729.338 1.495.334 2.263a8.454 8.454 0 0 1-.885 3.684Z" fill="#ffd85c" stroke="#542e14" stroke-linecap="round" stroke-linejoin="round" stroke-width="2"/></svg>