<svg xmlns="http://www.w3.org/2000/svg" width="86.601" height="52.894"><defs><style>.e{fill:#ff7063;stroke:#542e14;stroke-linecap:round;stroke-linejoin:round;stroke-width:2.83465px}</style></defs><g id="b"><g id="c"><g id="d"><path d="m42.866 43.077 16.495 7.387C44.587 43.847 57.218 15.64 42.46 9.03c-3.412-1.528-6.714-1.194-9.966.143 3.858 10.99-.975 28.822 10.373 33.904Z" fill="#fff" stroke="#542e14" stroke-linecap="round" stroke-linejoin="round" stroke-width="2.835"/><path class="e" d="m68.695 31.97 16.488 7.384c-8.463 6.073-16.738 15.178-25.821 11.11l-16.496-7.387c9.089 4.07 17.367-5.033 25.829-11.107ZM17.906 20.924 1.417 13.54C9.88 7.466 18.155-1.638 27.24 2.43l16.496 7.387c-9.09-4.07-17.368 5.033-25.829 11.107Z"/></g></g></g></svg>