<svg xmlns="http://www.w3.org/2000/svg" width="64.998" height="73.634"><defs><style>.f{stroke:#542e14;stroke-linecap:round;stroke-linejoin:round;stroke-width:2.83465px;fill:#a4e0ff}</style></defs><g id="b"><g id="c"><g id="d"><path d="M48.081 42.641 60.436 29.45c-11.066 11.816-33.624-9.31-44.679 2.494-2.555 2.728-3.315 5.958-3.11 9.469 11.648-.07 26.935 10.305 35.434 1.23Z" stroke="#542e14" stroke-linecap="round" stroke-linejoin="round" stroke-width="2.835" fill="#fff"/><path class="f" d="m45.988 14.604 12.35-13.187c2.987 9.98 8.902 20.767 2.098 28.032L48.081 42.641c6.808-7.268.896-18.06-2.093-28.037ZM19.01 59.03 6.66 72.216C3.672 62.237-2.242 51.45 4.56 44.185l12.355-13.193c-6.807 7.27-.895 18.06 2.094 28.038Z"/></g></g></g></svg>