<svg xmlns="http://www.w3.org/2000/svg" width="33.035" height="33.092"><path d="M31.72 13.562c-.127-.642-.253-1.28-.459-1.903-.909-2.738-2.558-5.264-4.967-7.205C23.06 1.846 18.998.636 14.87 1.096a15.54 15.54 0 0 0-5.627 1.732c-.011.006-.024.01-.035.015-.59.315-1.127.714-1.673 1.103-.585.419-1.14.87-1.667 1.371-.502.477-1.017.938-1.458 1.485-5.115 6.35-4.355 15.482 1.458 21.002.305.29.56.614.892.882.245.198.522.324.775.505.547.389 1.094.78 1.673 1.089.012.007.023.017.035.023.772.41 1.575.715 2.389.985.622.205 1.25.349 1.887.473.686.135 1.368.261 2.061.303 4.857.289 9.782-1.658 13.068-5.727 2.527-3.136 3.583-6.961 3.356-10.698a15.632 15.632 0 0 0-.285-2.077Z" fill="#ff7063" stroke="#542e14" stroke-miterlimit="10" stroke-width="2"/></svg>