<svg xmlns="http://www.w3.org/2000/svg" width="80.147" height="60.298"><defs><style>.f{stroke:#542e14;stroke-linecap:round;stroke-linejoin:round;stroke-width:2.83465px;fill:#ffd85c}</style></defs><g id="b"><g id="c"><g id="d"><path d="m36.479 46.391 14.785 10.395c-13.243-9.31 4.532-34.594-8.698-43.895-3.058-2.15-6.363-2.452-9.81-1.759 1.694 11.524-6.45 28.108 3.723 35.26Z" stroke="#542e14" stroke-linecap="round" stroke-linejoin="round" stroke-width="2.835" fill="#fff"/><path class="f" d="M63.95 40.41 78.73 50.8c-9.465 4.35-19.323 11.71-27.465 5.986L36.479 46.391c8.147 5.728 18.008-1.631 27.471-5.982ZM16.197 19.888 1.417 9.498c9.466-4.35 19.323-11.71 27.466-5.987l14.786 10.395c-8.147-5.727-18.008 1.632-27.472 5.982Z"/></g></g></g></svg>