<svg xmlns="http://www.w3.org/2000/svg" width="263" height="57"><defs><clipPath id="e"><path class="i" d="M0 0h263v57H0z"/></clipPath><clipPath id="f"><path class="i" d="M0 0h263v57H0z"/></clipPath><style>.g{fill:#fff8ee}.i{fill:none}</style></defs><g id="b"><g id="c"><g clip-path="url(#e)" id="d"><g clip-path="url(#f)"><path class="g" d="M4.116 10.021A5.924 5.924 0 0 1 .685 8.924a1.16 1.16 0 0 1-.474-.94c0-.647.513-1.154 1.166-1.154.257 0 .486.073.701.223.675.497 1.352.736 2.075.736.232 0 .989-.04.989-.553 0-.256 0-.474-1.553-.872C1.897 5.933.497 5.414.497 3.438c0-1.729 1.365-2.92 3.32-2.92 1.08 0 2.059.274 2.909.813.34.201.548.572.548.987 0 .647-.512 1.154-1.166 1.154-.221 0-.419-.056-.62-.174-.636-.374-1.176-.548-1.696-.548-.517 0-.85.192-.85.49 0 .362.136.514 1.677.91 1.541.4 2.967 1.027 2.967 2.874 0 1.83-1.362 2.997-3.47 2.997ZM17.882 9.97c-.689 0-1.228-.538-1.228-1.227V6.397h-2.998v2.346c0 .689-.539 1.228-1.227 1.228S11.2 9.43 11.2 8.743V1.795c0-.689.54-1.229 1.229-1.229s1.227.54 1.227 1.229V4.09h2.998V1.795c0-.689.54-1.229 1.228-1.229s1.228.54 1.228 1.229v6.948c0 .689-.54 1.228-1.228 1.228ZM24.462 9.97c-.689 0-1.229-.538-1.229-1.227V1.795c0-.689.54-1.229 1.229-1.229s1.228.54 1.228 1.229v6.948c0 .689-.54 1.228-1.228 1.228ZM34.283 10.046c-2.811 0-4.851-2-4.851-4.752 0-2.703 2.126-4.802 4.839-4.802 1.295 0 2.231.268 3.13.896.157.114.513.434.513.993a1.217 1.217 0 0 1-1.959.964c-.537-.383-1.06-.546-1.747-.546-1.231 0-2.233 1.096-2.233 2.445 0 1.47.997 2.52 2.37 2.52.594 0 1.122-.137 1.536-.398v-.83h-1.026a1.1 1.1 0 0 1-1.103-1.093c0-.608.495-1.103 1.103-1.103h2.192c.688 0 1.228.54 1.228 1.228v2.117c0 .655-.262 1.13-.803 1.45a6.09 6.09 0 0 1-3.189.91ZM45.968 10.033c-2.569 0-4.042-1.51-4.042-4.141V1.795c0-.689.54-1.229 1.228-1.229s1.228.54 1.228 1.229v4.047c0 .86.28 1.885 1.61 1.885 1.332 0 1.612-.992 1.612-1.823v-4.11c0-.688.54-1.228 1.228-1.228s1.228.54 1.228 1.229v4.034c0 2.672-1.492 4.204-4.092 4.204ZM60.492 9.97c-.463 0-.842-.197-1.158-.6l-1.786-2.263h-1.132v1.636c0 .689-.539 1.228-1.228 1.228s-1.228-.54-1.228-1.228V1.87c0-.688.54-1.228 1.228-1.228h3.026c1.156 0 2.1.333 2.73.962.54.542.827 1.296.827 2.183 0 1.28-.546 2.226-1.584 2.775l1.11 1.35c.191.24.374.503.374.905 0 .722-.6 1.154-1.179 1.154ZM58.09 4.876c.75 0 1.2-.36 1.2-.963 0-.673-.417-1-1.238-1h-1.636v1.963h1.674ZM66.675 9.896c-.689 0-1.229-.54-1.229-1.228V1.87c0-.688.54-1.228 1.229-1.228h4.83a1.13 1.13 0 0 1 1.13 1.129c0 .615-.507 1.116-1.13 1.116h-3.614v1.228h3.054a1.13 1.13 0 0 1 1.13 1.13c0 .614-.508 1.115-1.13 1.115h-3.054v1.291h3.677a1.13 1.13 0 0 1 1.128 1.13c0 .615-.506 1.115-1.128 1.115h-4.893ZM86.4 10.033c-2.568 0-4.042-1.51-4.042-4.141V1.795c0-.689.54-1.229 1.228-1.229s1.228.54 1.228 1.229v4.047c0 .86.28 1.885 1.612 1.885 1.33 0 1.61-.992 1.61-1.823v-4.11c0-.688.54-1.228 1.228-1.228s1.228.54 1.228 1.229v4.034c0 2.672-1.491 4.204-4.092 4.204ZM95.708 9.97c-.688 0-1.229-.538-1.229-1.227V1.795c0-.689.54-1.229 1.229-1.229s1.229.54 1.229 1.229v6.948c0 .689-.54 1.228-1.229 1.228ZM108.514 9.97c-.689 0-1.229-.538-1.229-1.227V1.87c0-.688.54-1.228 1.229-1.228h2.601c2.192 0 3.608 1.288 3.608 3.282 0 2.05-1.49 3.357-3.794 3.357h-1.187v1.462c0 .689-.54 1.228-1.228 1.228Zm2.477-4.933c.759 0 1.25-.412 1.25-1.05 0-.894-.7-1.076-1.287-1.076h-1.212v2.126h1.25ZM124.618 9.97c-.463 0-.842-.197-1.158-.6l-1.786-2.263h-1.131v1.636c0 .689-.54 1.228-1.229 1.228s-1.228-.54-1.228-1.228V1.87c0-.688.54-1.228 1.228-1.228h3.026c1.155 0 2.1.333 2.73.962.54.542.826 1.296.826 2.183 0 1.28-.545 2.226-1.583 2.775l1.11 1.35c.191.241.374.506.374.905 0 .722-.6 1.154-1.179 1.154Zm-2.403-5.095c.752 0 1.2-.36 1.2-.963 0-.832-.673-1-1.237-1h-1.635v1.963h1.672ZM130.8 9.896c-.688 0-1.228-.54-1.228-1.228V1.87c0-.688.54-1.228 1.229-1.228h4.83a1.13 1.13 0 0 1 1.129 1.129c0 .615-.506 1.116-1.128 1.116h-3.615v1.228h3.054a1.13 1.13 0 0 1 1.13 1.13c0 .614-.508 1.115-1.13 1.115h-3.054v1.291h3.676a1.13 1.13 0 0 1 1.13 1.13c0 .615-.508 1.115-1.13 1.115h-4.892ZM143.77 10.021a5.93 5.93 0 0 1-3.433-1.097 1.16 1.16 0 0 1-.473-.94c0-.647.513-1.154 1.166-1.154.257 0 .487.073.701.223.676.497 1.353.736 2.076.736.231 0 .988-.04.988-.553 0-.256 0-.474-1.553-.872-1.691-.431-3.092-.95-3.092-2.926 0-1.729 1.366-2.92 3.32-2.92 1.08 0 2.06.274 2.909.813.34.201.549.572.549.987 0 .647-.513 1.154-1.166 1.154-.22 0-.417-.055-.621-.173-.627-.37-1.182-.549-1.696-.549-.516 0-.85.192-.85.49 0 .36.136.514 1.677.91 1.541.4 2.966 1.028 2.966 2.874 0 1.83-1.361 2.997-3.468 2.997ZM152.081 9.896c-.688 0-1.228-.54-1.228-1.228V1.87c0-.688.54-1.228 1.228-1.228h4.831a1.13 1.13 0 0 1 1.129 1.129c0 .615-.507 1.116-1.129 1.116h-3.615v1.228h3.055a1.13 1.13 0 0 1 1.128 1.13c0 .614-.506 1.115-1.128 1.115h-3.055v1.291h3.678a1.13 1.13 0 0 1 1.128 1.13c0 .615-.506 1.115-1.128 1.115h-4.894ZM162.896 9.97c-.67 0-1.216-.544-1.216-1.214V1.82c0-.688.54-1.228 1.228-1.228h.2c.608 0 .952.336 1.208.665l3.215 4.222V1.783c0-.67.546-1.217 1.217-1.217.67 0 1.215.546 1.215 1.217v6.935c0 .688-.54 1.228-1.228 1.228-.673 0-1.015-.336-1.271-.665l-3.353-4.397v3.872c0 .67-.546 1.215-1.215 1.215ZM177.257 9.97c-.689 0-1.229-.538-1.229-1.227V2.95h-1.573a1.155 1.155 0 0 1 0-2.308h5.604a1.155 1.155 0 0 1 0 2.308h-1.574v5.794c0 .689-.54 1.228-1.228 1.228ZM187.922 10.021a5.93 5.93 0 0 1-3.433-1.097 1.16 1.16 0 0 1-.472-.94c0-.647.512-1.154 1.166-1.154.256 0 .486.073.7.223.677.497 1.353.736 2.076.736.231 0 .988-.04.988-.553 0-.256 0-.474-1.552-.872-1.692-.431-3.092-.95-3.092-2.926 0-1.729 1.365-2.92 3.32-2.92 1.08 0 2.059.274 2.908.813.341.201.55.572.55.987 0 .647-.514 1.154-1.167 1.154-.22 0-.417-.055-.621-.173-.627-.37-1.182-.549-1.695-.549-.517 0-.85.192-.85.49 0 .36.136.514 1.677.91 1.54.4 2.966 1.028 2.966 2.874 0 1.83-1.362 2.997-3.47 2.997ZM4.651 33.372c-2.568 0-4.042-1.51-4.042-4.142v-4.096c0-.689.54-1.228 1.229-1.228s1.227.54 1.227 1.228v4.047c0 .86.28 1.884 1.61 1.884 1.333 0 1.612-.99 1.612-1.822v-4.11c0-.688.54-1.227 1.229-1.227s1.227.54 1.227 1.228v4.034c0 2.672-1.491 4.204-4.092 4.204ZM13.959 33.31c-.688 0-1.229-.54-1.229-1.228v-6.948c0-.689.54-1.228 1.229-1.228s1.229.54 1.229 1.228v6.948c0 .689-.54 1.229-1.229 1.229ZM30.04 33.385c-2.788 0-4.89-2.043-4.89-4.752 0-2.703 2.159-4.802 4.914-4.802 2.788 0 4.89 2.043 4.89 4.752 0 2.703-2.16 4.802-4.915 4.802Zm0-7.246c-1.339 0-2.347 1.05-2.347 2.444 0 1.433 1.02 2.495 2.371 2.495 1.337 0 2.345-1.05 2.345-2.445 0-1.433-1.018-2.494-2.37-2.494ZM39.818 33.31c-.67 0-1.215-.545-1.215-1.216v-6.935c0-.688.54-1.228 1.228-1.228h.2c.61 0 .952.336 1.208.665l3.216 4.222v-3.697a1.216 1.216 0 0 1 2.432 0v6.936c0 .688-.54 1.228-1.229 1.228-.67 0-1.014-.336-1.271-.665l-3.353-4.397v3.87c0 .672-.546 1.218-1.216 1.218ZM60.516 33.36c-1.23 0-2.449-.39-3.433-1.096a1.17 1.17 0 0 1-.473-.942c0-.646.513-1.153 1.166-1.153.257 0 .487.073.702.223.675.496 1.352.735 2.075.735.231 0 .988-.04.988-.552 0-.256 0-.474-1.553-.872-1.691-.432-3.092-.95-3.092-2.926 0-1.73 1.366-2.922 3.32-2.922 1.08 0 2.058.275 2.909.815.26.152.549.496.549.987 0 .647-.513 1.154-1.166 1.154-.22 0-.417-.055-.621-.173-.637-.376-1.175-.55-1.696-.55-.516 0-.85.192-.85.49 0 .362.137.516 1.677.91 1.54.402 2.966 1.027 2.966 2.875 0 1.83-1.361 2.996-3.468 2.996ZM70.856 33.31c-.688 0-1.228-.54-1.228-1.228v-5.795h-1.573c-.636 0-1.154-.517-1.154-1.153s.518-1.154 1.154-1.154h5.603a1.155 1.155 0 0 1 0 2.307h-1.573v5.795c0 .689-.54 1.229-1.229 1.229ZM85.543 33.31c-.522 0-.937-.291-1.169-.82l-.516-1.21h-3.48l-.538 1.269c-.208.477-.631.762-1.133.762a1.148 1.148 0 0 1-1.153-1.166c0-.198.07-.375.136-.524l3.038-6.857c.261-.585.76-.92 1.366-.92h.112c.608 0 1.089.326 1.355.919l3.038 6.861c.085.189.123.342.123.495 0 .668-.518 1.192-1.179 1.192Zm-2.622-4.262-.802-1.911-.803 1.91h1.605ZM94.639 33.385c-2.812 0-4.852-2-4.852-4.752 0-2.703 2.126-4.802 4.839-4.802 1.296 0 2.231.268 3.13.896.157.114.514.434.514.992a1.218 1.218 0 0 1-1.96.966c-.535-.383-1.058-.546-1.747-.546-1.231 0-2.233 1.096-2.233 2.444 0 1.47.997 2.52 2.371 2.52.592 0 1.12-.137 1.535-.397v-.833h-1.025c-.608 0-1.104-.49-1.104-1.09 0-.61.496-1.104 1.104-1.104h2.191c.689 0 1.229.539 1.229 1.227v2.117c0 .655-.263 1.13-.804 1.453a6.105 6.105 0 0 1-3.188.909ZM103.646 33.235c-.688 0-1.228-.54-1.228-1.228v-6.798c0-.689.54-1.229 1.228-1.229h4.832a1.13 1.13 0 0 1 1.127 1.13c0 .615-.505 1.116-1.127 1.116h-3.616v1.228h3.055a1.13 1.13 0 0 1 1.129 1.129c0 .615-.507 1.116-1.129 1.116h-3.055v1.291h3.677a1.13 1.13 0 0 1 1.129 1.13c0 .614-.507 1.115-1.129 1.115h-4.893ZM5.1 56.723c-2.658 0-4.74-2.088-4.74-4.752 0-2.748 2.07-4.802 4.814-4.802 1.234 0 2.21.298 3.074.936a1.21 1.21 0 0 1-.732 2.18c-.315 0-.532-.11-.718-.228-.537-.4-1.052-.58-1.636-.58-1.287 0-2.258 1.05-2.258 2.444 0 1.433.971 2.495 2.258 2.495.777 0 1.252-.25 1.725-.627a1.161 1.161 0 0 1 1.906.884c0 .337-.152.661-.417.889-.919.802-1.93 1.16-3.276 1.16ZM14.705 56.697c-1.563 0-2.535-1.052-2.535-2.747v-3.448c0-.67.546-1.217 1.216-1.217s1.216.546 1.216 1.217v2.85c0 1.088.659 1.088.876 1.088.754 0 .913-.591.913-1.087v-2.851c0-.67.546-1.217 1.215-1.217s1.216.546 1.216 1.217v4.93c0 .67-.546 1.216-1.216 1.216-.487 0-.909-.289-1.102-.704-.408.405-.97.753-1.799.753ZM23.764 56.648c-.67 0-1.216-.545-1.216-1.216v-7.346c0-.67.546-1.216 1.216-1.216s1.215.546 1.215 1.216v7.346c0 .67-.545 1.216-1.215 1.216ZM31.231 56.686c-1.488 0-2.211-.745-2.211-2.275V51.49c-.516-.112-.873-.54-.873-1.05 0-.524.376-.961.873-1.058v-.585c0-.67.545-1.216 1.215-1.216s1.216.546 1.216 1.216v.564h.565a1.08 1.08 0 0 1 0 2.157h-.565V54.1c0 .325.1.378.34.378l.225-.013c.58 0 1.053.473 1.053 1.055 0 .424-.264.81-.659.96-.363.144-.717.206-1.179.206ZM38.846 56.697c-1.564 0-2.535-1.052-2.535-2.747v-3.448c0-.67.545-1.217 1.215-1.217s1.216.546 1.216 1.217v2.85c0 1.088.66 1.088.876 1.088.755 0 .913-.591.913-1.087v-2.851c0-.67.546-1.217 1.216-1.217s1.216.546 1.216 1.217v4.93c0 .67-.546 1.216-1.216 1.216-.487 0-.91-.289-1.102-.704-.409.405-.97.753-1.8.753ZM47.818 56.648c-.67 0-1.215-.545-1.215-1.216v-4.93c0-.671.545-1.217 1.215-1.217.483 0 .9.283 1.096.692.27-.37.644-.692 1.133-.692.713 0 1.191.479 1.191 1.192 0 .57-.361 1.02-.92 1.146-.863.202-1.284.87-1.284 2.041v1.768c0 .67-.546 1.216-1.216 1.216ZM56.456 56.697c-1.531 0-2.56-.928-2.56-2.31 0-1.528 1.106-2.424 2.958-2.424a5 5 0 0 1 1.341.172c-.057-.3-.281-.692-1.141-.692-.449 0-.85.057-1.228.174-.126.044-.23.063-.353.063-.591 0-1.055-.457-1.055-1.041 0-.438.276-.834.686-.987.674-.254 1.36-.367 2.224-.367 1.073 0 1.896.278 2.443.827.533.533.802 1.313.802 2.32v3.038c0 .66-.523 1.178-1.191 1.178-.492 0-.859-.25-1.043-.57-.51.411-1.143.62-1.883.62Zm.847-3.062c-.388 0-1.038.085-1.038.652 0 .526.585.565.764.565.725 0 1.212-.363 1.212-.902v-.156a2.767 2.767 0 0 0-.938-.16ZM65.452 56.648c-.67 0-1.216-.545-1.216-1.216v-7.346c0-.67.546-1.216 1.216-1.216s1.216.546 1.216 1.216v7.346c0 .67-.546 1.216-1.216 1.216ZM78.158 56.648c-.67 0-1.215-.545-1.215-1.216v-3.94c-.517-.106-.859-.514-.859-1.015 0-.515.371-.945.86-1.036v-.172c0-.793.206-1.402.614-1.809.399-.4.978-.603 1.721-.603.35 0 .61.018.819.054.419.065.87.446.87 1.026 0 .57-.477 1.053-1.041 1.053h-.162c-.255 0-.413.074-.415.446h.552c.591 0 1.054.457 1.054 1.04s-.463 1.042-1.054 1.042h-.527v3.914c0 .67-.546 1.216-1.217 1.216ZM87.293 56.723c-2.176 0-3.756-1.565-3.756-3.72 0-2.157 1.534-3.767 3.57-3.767 2.261 0 3.482 1.794 3.482 3.482 0 .682-.485 1.178-1.153 1.178h-3.383c.217.504.648.768 1.265.768.44 0 .827-.129 1.185-.393a.977.977 0 0 1 .621-.205c.572 0 1.004.438 1.004 1.018 0 .292-.12.562-.338.759-.687.586-1.525.88-2.497.88Zm.89-4.55c-.115-.388-.393-.88-1.077-.88-.525 0-.916.317-1.101.88h2.178ZM96.589 56.697a4.907 4.907 0 0 1-2.661-.801 1.031 1.031 0 0 1-.485-.875c0-.57.447-1.016 1.017-1.016.186 0 .374.052.517.14.572.36 1.162.557 1.662.557.197 0 .527-.03.527-.228 0-.188-.52-.341-.937-.464l-.253-.075c-.707-.208-2.184-.642-2.184-2.263 0-1.43 1.114-2.411 2.71-2.411.727 0 1.482.186 2.186.539.38.19.598.535.598.95 0 .57-.452 1.018-1.028 1.018a.963.963 0 0 1-.47-.117c-.52-.254-.99-.394-1.323-.394-.197 0-.428.05-.428.19 0 .17.604.374.965.496l.21.072c.767.255 2.2.733 2.2 2.234 0 1.52-1.083 2.448-2.823 2.448ZM105.237 56.686c-1.488 0-2.212-.745-2.212-2.275V51.49c-.515-.112-.872-.54-.872-1.05 0-.524.376-.961.872-1.058v-.585c0-.67.546-1.216 1.216-1.216s1.216.546 1.216 1.216v.564h.564a1.08 1.08 0 0 1 0 2.157h-.564V54.1c0 .325.1.378.34.378l.224-.013c.582 0 1.054.473 1.054 1.055 0 .424-.264.81-.659.96-.363.144-.717.206-1.179.206ZM111.67 56.648c-.67 0-1.216-.545-1.216-1.216v-4.93c0-.671.546-1.217 1.216-1.217s1.216.546 1.216 1.217v4.93c0 .67-.546 1.216-1.216 1.216Zm0-7.421c-.77 0-1.328-.49-1.328-1.166 0-.704.546-1.178 1.328-1.178s1.328.474 1.328 1.153c0 .7-.559 1.19-1.328 1.19ZM119.648 56.71c-.41 0-.972-.17-1.319-.985l-2.04-4.717a1.518 1.518 0 0 1-.123-.569c0-.615.557-1.154 1.191-1.154.563 0 .98.303 1.175.853l1.179 3.19 1.204-3.22c.2-.523.614-.823 1.136-.823a1.16 1.16 0 0 1 1.178 1.166c0 .211-.076.447-.12.554l-2.044 4.722c-.277.633-.745.983-1.317.983h-.1ZM128.582 56.697c-1.531 0-2.56-.928-2.56-2.31 0-1.528 1.106-2.424 2.958-2.424a5 5 0 0 1 1.341.172c-.057-.3-.281-.692-1.141-.692-.449 0-.85.057-1.228.174a1.028 1.028 0 0 1-.353.063c-.591 0-1.054-.457-1.054-1.041 0-.438.275-.834.685-.987.674-.254 1.36-.367 2.223-.367 1.074 0 1.897.278 2.444.827.533.533.802 1.313.802 2.32v3.038c0 .66-.523 1.178-1.191 1.178-.5 0-.863-.247-1.046-.567-.51.41-1.14.616-1.88.616Zm.847-3.062c-.388 0-1.038.085-1.038.652 0 .526.584.565.763.565.726 0 1.213-.363 1.213-.902v-.156a2.767 2.767 0 0 0-.938-.16ZM137.58 56.648c-.67 0-1.217-.545-1.217-1.216v-7.346c0-.67.546-1.216 1.216-1.216s1.216.546 1.216 1.216v7.346c0 .67-.546 1.216-1.216 1.216ZM150.907 56.697c-1.531 0-2.56-.928-2.56-2.31 0-1.528 1.106-2.424 2.959-2.424a5 5 0 0 1 1.34.172c-.057-.3-.28-.692-1.141-.692-.448 0-.85.057-1.228.174-.126.044-.23.063-.353.063-.591 0-1.055-.457-1.055-1.041 0-.438.276-.834.687-.987.673-.254 1.36-.367 2.223-.367 1.074 0 1.896.278 2.444.827.532.533.801 1.313.801 2.32v3.038c0 .66-.523 1.178-1.191 1.178-.492 0-.858-.25-1.043-.57-.51.411-1.143.62-1.883.62Zm.847-3.062c-.388 0-1.038.085-1.038.652 0 .526.585.565.764.565.725 0 1.212-.363 1.212-.902v-.156a2.767 2.767 0 0 0-.938-.16ZM160.14 56.648c-.67 0-1.214-.545-1.214-1.216v-3.94c-.518-.106-.86-.514-.86-1.015 0-.515.371-.945.86-1.036v-.172c0-.793.207-1.402.614-1.809.4-.4.979-.603 1.722-.603.35 0 .61.018.818.054.419.065.871.446.871 1.026 0 .57-.477 1.053-1.042 1.053h-.162c-.255 0-.413.074-.415.446h.553c.59 0 1.053.457 1.053 1.04s-.462 1.042-1.053 1.042h-.528v3.914c0 .67-.545 1.216-1.216 1.216ZM168.367 56.686c-1.488 0-2.212-.745-2.212-2.275V51.49c-.515-.112-.872-.54-.872-1.05 0-.524.376-.961.872-1.058v-.585c0-.67.546-1.216 1.216-1.216s1.216.546 1.216 1.216v.564h.564a1.08 1.08 0 0 1 0 2.157h-.564V54.1c0 .325.1.378.34.378l.224-.013c.581 0 1.054.473 1.054 1.055 0 .424-.265.81-.66.96-.362.144-.716.206-1.178.206ZM176.93 56.723c-2.176 0-3.756-1.565-3.756-3.72 0-2.157 1.534-3.767 3.568-3.767 2.262 0 3.483 1.794 3.483 3.482 0 .682-.486 1.178-1.155 1.178h-3.382c.217.504.649.768 1.266.768.44 0 .826-.129 1.185-.393a.977.977 0 0 1 .62-.205c.573 0 1.005.438 1.005 1.018 0 .292-.12.562-.338.759-.688.586-1.525.88-2.496.88Zm.888-4.55c-.114-.388-.392-.88-1.076-.88-.525 0-.916.317-1.101.88h2.177ZM184.83 56.648c-.67 0-1.216-.545-1.216-1.216v-4.93c0-.671.546-1.217 1.216-1.217.482 0 .9.283 1.096.692.27-.37.643-.692 1.133-.692.712 0 1.191.479 1.191 1.192 0 .57-.361 1.02-.92 1.146-.863.202-1.284.87-1.284 2.041v1.768c0 .67-.546 1.216-1.216 1.216ZM200.05 56.686c-1.488 0-2.211-.745-2.211-2.275V51.49c-.516-.112-.872-.54-.872-1.05 0-.524.376-.961.872-1.058v-.585c0-.67.546-1.216 1.216-1.216s1.216.546 1.216 1.216v.564h.564a1.08 1.08 0 0 1 0 2.157h-.564V54.1c0 .325.1.378.34.378l.224-.013c.581 0 1.054.473 1.054 1.055 0 .424-.265.81-.66.96-.363.144-.716.206-1.178.206ZM210.616 56.648c-.67 0-1.216-.545-1.216-1.216V52.58c0-1.088-.659-1.088-.876-1.088-.754 0-.913.592-.913 1.088v2.85c0 .672-.546 1.217-1.216 1.217s-1.215-.545-1.215-1.216v-7.346c0-.67.546-1.216 1.215-1.216s1.216.546 1.216 1.216v1.797c.398-.358.931-.647 1.686-.647 1.563 0 2.535 1.053 2.535 2.747v3.449c0 .67-.546 1.216-1.216 1.216ZM218.854 56.723c-2.176 0-3.756-1.565-3.756-3.72 0-2.157 1.534-3.767 3.569-3.767 2.262 0 3.482 1.794 3.482 3.482 0 .682-.485 1.178-1.153 1.178h-3.383c.217.504.649.768 1.266.768.44 0 .826-.129 1.184-.393a.977.977 0 0 1 .622-.205c.572 0 1.003.438 1.003 1.018 0 .292-.12.562-.337.759-.688.586-1.526.88-2.497.88Zm.89-4.55c-.115-.388-.393-.88-1.077-.88-.525 0-.916.317-1.102.88h2.178ZM232.977 56.648c-.67 0-1.216-.545-1.216-1.216v-4.93c0-.671.546-1.217 1.216-1.217.482 0 .899.283 1.095.692.27-.37.644-.692 1.133-.692.713 0 1.191.479 1.191 1.192 0 .57-.36 1.02-.92 1.146-.863.202-1.284.87-1.284 2.041v1.768c0 .67-.546 1.216-1.215 1.216ZM241.614 56.697c-1.531 0-2.56-.928-2.56-2.31 0-1.528 1.106-2.424 2.959-2.424a5 5 0 0 1 1.34.172c-.057-.3-.28-.692-1.141-.692-.448 0-.85.057-1.228.174-.126.044-.23.063-.353.063-.591 0-1.055-.457-1.055-1.041 0-.438.277-.834.687-.987.674-.254 1.36-.367 2.223-.367 1.074 0 1.896.278 2.444.827.532.533.801 1.313.801 2.32v3.038c0 .66-.523 1.178-1.191 1.178-.492 0-.858-.25-1.043-.57-.51.411-1.143.62-1.883.62Zm.847-3.062c-.388 0-1.038.085-1.038.652 0 .526.585.565.764.565.725 0 1.212-.363 1.212-.902v-.156a2.767 2.767 0 0 0-.938-.16ZM250.611 56.648c-.67 0-1.215-.545-1.215-1.216v-4.93c0-.671.545-1.217 1.215-1.217s1.216.546 1.216 1.217v4.93c0 .67-.546 1.216-1.216 1.216Zm0-7.421c-.77 0-1.328-.49-1.328-1.166 0-.704.546-1.178 1.328-1.178s1.328.474 1.328 1.153c0 .7-.558 1.19-1.328 1.19ZM260.991 56.648c-.67 0-1.216-.545-1.216-1.216V52.58c0-1.088-.659-1.088-.876-1.088-.754 0-.913.592-.913 1.088v2.85c0 .672-.546 1.217-1.216 1.217s-1.215-.545-1.215-1.216v-4.93c0-.671.546-1.217 1.215-1.217.488 0 .91.29 1.103.704.408-.404.97-.753 1.799-.753 1.563 0 2.535 1.053 2.535 2.747v3.449c0 .67-.546 1.216-1.216 1.216Z"/></g></g></g></g></svg>