<svg xmlns="http://www.w3.org/2000/svg" width="40" height="185"><defs><clipPath id="e"><path class="i" d="M0 0h40v185H0z"/></clipPath><clipPath id="f"><path class="i" d="M39.642 0v185H0V0z"/></clipPath><style>.g{fill:#4e2709}.i{fill:none}</style></defs><g id="b"><g id="c"><g clip-path="url(#e)" id="d"><g clip-path="url(#f)"><path class="g" d="M34.978 5.338c-1.265 0-2.082-.954-2.082-2.432 0-.86.272-1.715.767-2.405a.819.819 0 0 1 .66-.332c.453 0 .808.36.808.817 0 .183-.05.344-.156.493-.348.473-.516.948-.516 1.454 0 .162.028.692.388.692.18 0 .332 0 .611-1.088.303-1.186.666-2.167 2.05-2.167 1.214 0 2.049.957 2.049 2.327 0 .757-.193 1.443-.572 2.039a.8.8 0 0 1-.691.384.804.804 0 0 1-.808-.817c0-.156.038-.295.121-.436.263-.446.385-.823.385-1.187 0-.363-.135-.597-.344-.597-.253 0-.36.096-.637 1.176-.281 1.08-.72 2.08-2.016 2.08h-.017ZM33.791 13.416c-.483 0-.861-.378-.861-.86s.378-.861.861-.861h1.644V9.594H33.79a.852.852 0 0 1-.861-.861c0-.483.378-.861.861-.861h4.87c.483 0 .86.378.86.86 0 .483-.377.862-.86.862h-1.61v2.1h1.61c.483 0 .86.38.86.862s-.377.86-.86.86h-4.87ZM33.791 18.03c-.483 0-.861-.38-.861-.862s.378-.86.861-.86h4.87c.483 0 .86.378.86.86s-.377.861-.86.861h-4.87ZM34.532 26.852c-.459 0-.792-.185-1.017-.564a4.23 4.23 0 0 1-.637-2.235c0-1.971 1.4-3.401 3.33-3.401 1.895 0 3.365 1.49 3.365 3.392 0 .908-.187 1.564-.626 2.194a.853.853 0 1 1-1.374-1.013c.269-.376.384-.742.384-1.225 0-.863-.769-1.565-1.714-1.565-1.031 0-1.766.699-1.766 1.662 0 .415.095.785.278 1.076h.584v-.718a.77.77 0 0 1 .765-.774c.426 0 .773.347.773.774v1.536c0 .482-.378.86-.86.86h-1.485ZM35.833 35.113c-1.873 0-2.946-1.046-2.946-2.869 0-1.8 1.057-2.833 2.902-2.833h2.872c.483 0 .86.378.86.86a.852.852 0 0 1-.86.862h-2.837c-.602 0-1.321.196-1.321 1.129s.694 1.129 1.277 1.129h2.881c.483 0 .86.378.86.86a.852.852 0 0 1-.86.862h-2.828ZM37.247 43.322c-.882 0-1.543-.383-1.927-1.111l-.947.78c-.169.133-.354.26-.635.26-.5 0-.808-.428-.808-.825 0-.325.137-.59.422-.813l1.585-1.251v-.794h-1.146a.852.852 0 0 1-.861-.86c0-.483.378-.862.861-.862h4.817c.483 0 .86.379.86.862v2.12c0 .811-.233 1.473-.673 1.914-.38.38-.91.58-1.53.58h-.018Zm-.746-2.58c0 .526.253.84.676.84.471 0 .702-.291.702-.867v-1.147H36.5v1.173ZM33.765 50.98a.787.787 0 0 1-.783-.79v-3.43c0-.484.378-.862.86-.862h4.766c.483 0 .86.378.86.861v3.386a.792.792 0 0 1-.79.792.788.788 0 0 1-.782-.792v-2.534h-.862v2.142a.792.792 0 0 1-.79.79.787.787 0 0 1-.783-.79V47.61h-.906v2.578a.792.792 0 0 1-.79.791ZM35.833 63.456c-1.873 0-2.946-1.046-2.946-2.869 0-1.8 1.057-2.833 2.902-2.833h2.872c.483 0 .86.378.86.86a.852.852 0 0 1-.86.862h-2.837c-.602 0-1.321.196-1.321 1.129s.694 1.129 1.277 1.129h2.881c.483 0 .86.378.86.86a.852.852 0 0 1-.86.862h-2.828ZM33.791 67.973c-.483 0-.861-.379-.861-.861s.378-.861.861-.861h4.87c.483 0 .86.378.86.86s-.377.862-.86.862h-4.87ZM37.15 80.44c-1.419 0-2.335-1.043-2.335-2.658v-.832h-1.024c-.483 0-.861-.379-.861-.861s.378-.861.861-.861h4.817c.483 0 .86.378.86.86v1.825c0 1.536-.903 2.528-2.3 2.528h-.018Zm-.762-2.614c0 .532.29.876.737.876.626 0 .754-.491.754-.903v-.85h-1.491v.877ZM37.247 88.275c-.882 0-1.543-.383-1.927-1.11l-.947.779c-.169.134-.354.262-.635.262-.5 0-.808-.43-.808-.827 0-.324.137-.59.422-.812l1.585-1.252v-.793h-1.146c-.483 0-.861-.378-.861-.86s.378-.862.861-.862h4.817c.483 0 .86.379.86.861v2.121c0 .81-.233 1.473-.673 1.914-.38.379-.908.579-1.53.579h-.018Zm-.746-2.58c0 .527.253.84.676.84.471 0 .702-.29.702-.867v-1.146H36.5v1.173ZM33.765 95.934a.787.787 0 0 1-.783-.79v-3.431c0-.483.378-.861.86-.861h4.766c.483 0 .86.378.86.86V95.1a.792.792 0 0 1-.79.792.788.788 0 0 1-.782-.792v-2.534h-.862v2.142a.792.792 0 0 1-.79.79.787.787 0 0 1-.783-.79v-2.142h-.906v2.578a.792.792 0 0 1-.79.791ZM34.978 103.235c-1.265 0-2.082-.954-2.082-2.432 0-.86.272-1.715.767-2.405a.819.819 0 0 1 .66-.332c.453 0 .808.36.808.817 0 .183-.05.344-.156.493-.348.473-.516.948-.516 1.454 0 .162.028.692.388.692.18 0 .332 0 .611-1.088.303-1.186.666-2.167 2.05-2.167 1.214 0 2.049.957 2.049 2.327a3.74 3.74 0 0 1-.572 2.039.803.803 0 0 1-.691.384.804.804 0 0 1-.808-.817.83.83 0 0 1 .121-.436c.263-.446.385-.823.385-1.187 0-.363-.135-.597-.344-.597-.253 0-.36.096-.637 1.176-.281 1.08-.72 2.08-2.016 2.08h-.017ZM33.765 110.852a.787.787 0 0 1-.783-.791v-3.43c0-.484.378-.862.86-.862h4.766c.483 0 .86.378.86.861v3.387a.792.792 0 0 1-.79.791.788.788 0 0 1-.782-.791v-2.535h-.862v2.142a.792.792 0 0 1-.79.791.787.787 0 0 1-.783-.791v-2.142h-.906v2.579a.792.792 0 0 1-.79.79ZM33.808 119.166a.852.852 0 0 1-.86-.862c0-.47.235-.711.464-.89l3.084-2.351h-2.714a.853.853 0 0 1 0-1.704h4.862c.482 0 .86.378.86.86v.14c0 .427-.235.668-.465.848l-2.96 2.254h2.59a.853.853 0 0 1 0 1.705h-4.861ZM38.661 127.051a.81.81 0 0 1-.808-.809v-1.102H33.79a.852.852 0 0 1-.861-.862c0-.482.378-.86.861-.86h4.062v-1.103a.81.81 0 0 1 1.616 0v3.927a.81.81 0 0 1-.808.81ZM34.978 134.187c-1.265 0-2.082-.955-2.082-2.433 0-.86.272-1.715.767-2.405a.819.819 0 0 1 .66-.332c.453 0 .808.36.808.817 0 .183-.05.344-.156.493-.348.473-.516.948-.516 1.454 0 .162.028.692.388.692.18 0 .332 0 .611-1.088.303-1.186.666-2.167 2.05-2.167 1.214 0 2.049.957 2.049 2.327a3.74 3.74 0 0 1-.572 2.039.803.803 0 0 1-.691.384.804.804 0 0 1-.808-.817.83.83 0 0 1 .121-.436c.263-.445.385-.823.385-1.187 0-.363-.135-.597-.344-.597-.253 0-.36.096-.637 1.176-.281 1.08-.72 2.08-2.016 2.08h-.017ZM19.473 6.15c-1.873 0-2.947-1.046-2.947-2.868 0-1.801 1.058-2.834 2.903-2.834H22.3c.482 0 .86.379.86.861a.852.852 0 0 1-.86.861h-2.837c-.603 0-1.321.196-1.321 1.13s.694 1.128 1.277 1.128h2.88c.483 0 .861.379.861.861a.852.852 0 0 1-.86.861h-2.828ZM17.43 10.667c-.483 0-.86-.378-.86-.86s.377-.862.86-.862h4.87c.483 0 .861.379.861.861s-.378.861-.86.861h-4.87ZM19.865 24.523c-1.877 0-3.347-1.513-3.347-3.444 0-1.954 1.431-3.428 3.33-3.428 1.895 0 3.366 1.514 3.366 3.445 0 1.954-1.432 3.427-3.331 3.427h-.018Zm0-5.088c-.987 0-1.731.714-1.731 1.661 0 .937.737 1.644 1.714 1.644 1.005 0 1.749-.714 1.749-1.661 0-.938-.738-1.644-1.714-1.644h-.018ZM17.447 32.889a.852.852 0 0 1-.86-.862c0-.47.235-.711.465-.89l3.084-2.35h-2.714a.853.853 0 0 1 0-1.705h4.861c.483 0 .86.378.86.86v.14c0 .428-.235.668-.464.848l-2.961 2.254h2.592a.853.853 0 0 1 0 1.705h-4.863ZM18.617 44.874c-1.264 0-2.082-.955-2.082-2.432 0-.86.273-1.715.768-2.405a.819.819 0 0 1 .66-.332c.453 0 .808.359.808.817 0 .183-.051.344-.157.493-.347.473-.515.947-.515 1.453 0 .163.028.693.387.693.18 0 .332 0 .612-1.089.302-1.185.666-2.167 2.05-2.167 1.213 0 2.048.957 2.048 2.327 0 .756-.191 1.442-.57 2.04a.807.807 0 0 1-.692.384.804.804 0 0 1-.808-.818c0-.153.038-.291.121-.434.263-.447.385-.824.385-1.189 0-.362-.135-.596-.344-.596-.254 0-.361.096-.638 1.175-.28 1.081-.72 2.08-2.015 2.08h-.018ZM22.3 52.464a.81.81 0 0 1-.808-.809v-1.102h-4.061a.852.852 0 0 1-.862-.862c0-.482.378-.86.862-.86h4.061v-1.103a.81.81 0 0 1 1.616 0v3.927a.81.81 0 0 1-.807.81ZM17.404 60.813a.821.821 0 0 1-.835-.826c0-.366.204-.657.577-.819l.846-.362v-2.438l-.89-.38a.85.85 0 0 1-.533-.793c0-.453.359-.809.818-.809a.9.9 0 0 1 .365.095l4.808 2.13c.41.183.645.533.645.958 0 .505-.228.842-.644 1.028l-4.81 2.13a.825.825 0 0 1-.347.086Zm2.153-2.664 1.34-.563-1.34-.562v1.125ZM18.172 69.161c-.46 0-.792-.184-1.018-.563a4.23 4.23 0 0 1-.636-2.236c0-1.97 1.4-3.4 3.33-3.4 1.895 0 3.366 1.49 3.366 3.392 0 .907-.188 1.563-.627 2.194a.853.853 0 1 1-1.374-1.013c.268-.375.384-.741.384-1.225 0-.863-.769-1.565-1.714-1.565-1.031 0-1.767.698-1.767 1.661 0 .416.096.786.279 1.077h.584v-.719a.77.77 0 0 1 .764-.774c.427 0 .774.347.774.774V68.3c0 .483-.378.861-.86.861h-1.485ZM17.404 76.898a.787.787 0 0 1-.782-.79v-3.43c0-.484.378-.862.86-.862h4.766c.482 0 .86.378.86.861v3.386a.792.792 0 0 1-.79.792.788.788 0 0 1-.782-.792V73.53h-.862v2.142a.792.792 0 0 1-.791.79.787.787 0 0 1-.782-.79v-2.142h-.907v2.578a.792.792 0 0 1-.79.791ZM1.594 6.185a.817.817 0 0 1-.624-.293C.408 5.248.157 4.54.157 3.596.157 1.733 1.62.273 3.487.273c1.926 0 3.366 1.452 3.366 3.375 0 .866-.208 1.55-.657 2.155a.849.849 0 0 1-1.527-.514c0-.248.103-.413.16-.502.28-.378.407-.74.407-1.147 0-.903-.737-1.583-1.714-1.583-1.004 0-1.749.68-1.749 1.583 0 .544.176.877.439 1.21a.813.813 0 0 1-.618 1.336ZM1.062 13.216a.853.853 0 0 1-.36-1.625 1.72 1.72 0 0 1-.527-1.261c0-1.097.737-1.778 1.925-1.778h2.418a.853.853 0 0 1 0 1.705h-2c-.762 0-.762.462-.762.614 0 .53.415.64.763.64h1.999a.853.853 0 0 1 0 1.705H1.062ZM1.062 17.532a.853.853 0 0 1 0-1.704H6.21a.853.853 0 0 1 0 1.704H1.06ZM4.562 23.22a.757.757 0 0 1-.756-.756v-.396h-1.81c-.227 0-.267.074-.267.24l.01.156a.74.74 0 0 1-.739.74.733.733 0 0 1-.674-.463c-.1-.253-.142-.5-.142-.826 0-1.044.521-1.551 1.593-1.551h2.048a.754.754 0 0 1 .737-.611c.367 0 .673.263.742.61h.409a.853.853 0 0 1 0 1.705h-.396v.396a.757.757 0 0 1-.755.757ZM1.062 30.14a.853.853 0 0 1-.36-1.626 1.72 1.72 0 0 1-.527-1.261c0-1.096.737-1.777 1.925-1.777h2.418a.853.853 0 0 1 0 1.704h-2c-.762 0-.762.462-.762.614 0 .53.415.64.763.64h1.999a.853.853 0 0 1 0 1.705H1.062ZM4.535 35.939a.802.802 0 0 1-.804-.644c-.142-.606-.61-.901-1.43-.901H1.06a.853.853 0 0 1 0-1.704h3.457a.853.853 0 0 1 .366 1.621c.313.23.485.506.485.793 0 .5-.335.835-.834.835ZM1.035 42.482a.821.821 0 0 1-.826-.835c0-.345.176-.601.4-.73-.289-.359-.434-.801-.434-1.32 0-1.074.65-1.796 1.619-1.796 1.07 0 1.7.776 1.7 2.075 0 .386-.053.687-.12.934.232-.05.483-.22.483-.794 0-.316-.04-.598-.122-.86a.724.724 0 0 1-.044-.25c0-.413.32-.738.73-.738.306 0 .584.193.692.48.177.473.256.954.256 1.56 0 .751-.194 1.328-.578 1.712-.374.373-.92.562-1.626.562h-2.13Zm.812-3.02c-.352 0-.38.41-.38.536 0 .508.255.85.633.85h.11a1.94 1.94 0 0 0 .111-.658c0-.272-.06-.728-.457-.728h-.017ZM1.062 46.756a.853.853 0 0 1 0-1.704H6.21a.853.853 0 0 1 0 1.704H1.06ZM6.315 56.78a.744.744 0 0 1-.738-.73v-.113c0-.18-.053-.29-.312-.292v.387c0 .414-.32.739-.73.739s-.73-.325-.73-.739v-.37H1.063a.853.853 0 0 1 0-1.704h2.762c.073-.363.36-.602.711-.602.36 0 .662.26.726.602h.12c.556 0 .982.145 1.27.43.279.28.42.687.42 1.208 0 .222-.01.417-.038.574a.73.73 0 0 1-.718.61ZM2.964 63.524c-.479 0-.825-.34-.825-.809v-2.37c-.355.151-.54.454-.54.886 0 .309.09.58.277.83.102.141.142.267.142.436a.692.692 0 0 1-.712.704.711.711 0 0 1-.533-.236c-.41-.482-.616-1.07-.616-1.75 0-1.526 1.096-2.633 2.606-2.633 1.513 0 2.641 1.075 2.641 2.501 0 1.585-1.257 2.44-2.44 2.44Zm.38-1.687c.273-.08.618-.274.618-.754 0-.368-.222-.641-.617-.771v1.525ZM1.873 69.709c-1.048 0-1.698-.758-1.698-1.978 0-.652.194-1.297.562-1.866a.717.717 0 0 1 .613-.34c.399 0 .712.314.712.713 0 .13-.037.263-.1.363-.251.4-.39.814-.39 1.165 0 .138.022.37.161.37.131 0 .239-.364.325-.656l.053-.18c.145-.495.448-1.53 1.586-1.53 1.002 0 1.69.781 1.69 1.9 0 .509-.13 1.039-.377 1.533a.73.73 0 0 1-.667.42.709.709 0 0 1-.712-.723.67.67 0 0 1 .08-.327c.179-.366.277-.696.277-.93 0-.149-.042-.3-.133-.3-.119 0-.261.423-.347.676l-.051.149c-.18.538-.516 1.541-1.566 1.541h-.018ZM4.562 75.1a.757.757 0 0 1-.756-.756v-.396h-1.81c-.23 0-.267.07-.267.239l.01.157a.74.74 0 0 1-.739.739.733.733 0 0 1-.674-.463 2.137 2.137 0 0 1-.142-.826c0-1.044.521-1.55 1.593-1.55h2.048a.754.754 0 0 1 .737-.612c.367 0 .673.264.742.611h.409a.853.853 0 0 1 0 1.705h-.396v.396a.757.757 0 0 1-.755.756ZM6.229 79.234c-.474 0-.818-.392-.818-.93s.344-.931.818-.931c.493 0 .825.382.825.93s-.332.93-.808.93H6.23Zm-5.167-.078a.853.853 0 0 1 0-1.705h3.456a.853.853 0 0 1 0 1.705H1.062ZM4.553 86.406c-.15 0-.316-.053-.389-.085L.855 84.89c-.445-.194-.689-.522-.689-.924 0-.358.12-.752.69-.994l3.307-1.431c.146-.058.274-.085.399-.085.43 0 .807.39.807.835 0 .4-.206.685-.597.823l-2.235.827 2.256.843c.367.141.576.431.576.797a.812.812 0 0 1-.816.826ZM1.035 93.045a.821.821 0 0 1-.826-.835c0-.345.176-.602.4-.731-.289-.358-.434-.8-.434-1.32 0-1.074.65-1.795 1.619-1.795 1.07 0 1.7.776 1.7 2.074 0 .386-.053.687-.12.934.232-.05.483-.219.483-.794 0-.316-.04-.597-.122-.86a.724.724 0 0 1-.044-.249c0-.414.32-.739.73-.739.306 0 .584.193.692.48.177.473.256.954.256 1.56 0 .752-.194 1.329-.578 1.713-.374.373-.92.562-1.626.562h-2.13Zm.812-3.02c-.352 0-.38.41-.38.536 0 .508.255.85.633.85h.11a1.94 1.94 0 0 0 .111-.659c0-.272-.06-.727-.457-.727h-.017ZM1.062 97.318a.853.853 0 0 1 0-1.704H6.21a.853.853 0 0 1 0 1.704H1.06ZM1.035 108.695a.821.821 0 0 1-.826-.835c0-.345.176-.602.4-.731-.289-.358-.434-.801-.434-1.32 0-1.074.65-1.795 1.619-1.795 1.07 0 1.7.776 1.7 2.074 0 .386-.053.687-.12.934.232-.05.483-.219.483-.794 0-.316-.04-.597-.122-.86a.724.724 0 0 1-.044-.249c0-.414.32-.739.73-.739.306 0 .584.193.692.48.177.473.256.954.256 1.56 0 .752-.194 1.329-.578 1.713-.374.373-.92.562-1.626.562h-2.13Zm.812-3.02c-.352 0-.38.41-.38.535 0 .509.255.85.633.85h.11a1.94 1.94 0 0 0 .111-.658c0-.272-.06-.727-.457-.727h-.017ZM6.315 114.251a.744.744 0 0 1-.738-.73v-.113c0-.179-.053-.29-.312-.291v.386c0 .414-.32.74-.73.74s-.73-.326-.73-.74v-.37H1.063a.853.853 0 0 1 0-1.704h2.762c.073-.363.36-.602.711-.602.36 0 .662.26.726.602h.12c.556 0 .982.145 1.27.43.279.28.42.687.42 1.208 0 .222-.01.417-.038.575a.73.73 0 0 1-.718.609ZM4.562 119.355a.757.757 0 0 1-.756-.756v-.396h-1.81c-.23 0-.267.07-.267.238l.01.158a.74.74 0 0 1-.739.738.733.733 0 0 1-.674-.462 2.137 2.137 0 0 1-.142-.826c0-1.044.521-1.551 1.593-1.551h2.048a.754.754 0 0 1 .737-.61c.367 0 .673.262.742.61h.409a.853.853 0 0 1 0 1.705h-.396v.396a.757.757 0 0 1-.755.756ZM2.964 126.36c-.479 0-.825-.34-.825-.808v-2.37c-.355.15-.54.453-.54.886 0 .308.09.58.277.83.102.14.142.266.142.435a.692.692 0 0 1-.712.705.709.709 0 0 1-.533-.238c-.41-.48-.616-1.068-.616-1.75 0-1.525 1.096-2.632 2.606-2.632 1.513 0 2.641 1.076 2.641 2.502 0 1.585-1.257 2.44-2.44 2.44Zm.38-1.686c.273-.08.618-.275.618-.754 0-.369-.222-.642-.617-.772v1.526ZM4.535 131.986a.804.804 0 0 1-.805-.644c-.141-.606-.609-.9-1.43-.9H1.063a.853.853 0 0 1 0-1.705h3.456a.853.853 0 0 1 .367 1.621c.312.23.484.506.484.794 0 .499-.335.834-.834.834ZM4.562 141.565a.757.757 0 0 1-.756-.756v-.396h-1.81c-.227 0-.267.074-.267.239l.01.157a.74.74 0 0 1-.739.739.733.733 0 0 1-.674-.463c-.1-.252-.142-.5-.142-.826 0-1.043.521-1.55 1.593-1.55h2.048a.754.754 0 0 1 .737-.611c.367 0 .673.263.742.61h.409a.853.853 0 0 1 0 1.705h-.396v.396a.757.757 0 0 1-.755.756ZM1.062 148.519a.853.853 0 0 1 0-1.705H3.06c.763 0 .763-.462.763-.614 0-.53-.415-.64-.763-.64H1.062a.853.853 0 0 1 0-1.705H6.21a.853.853 0 0 1 0 1.705H4.95a1.7 1.7 0 0 1 .453 1.181c0 1.096-.737 1.778-1.925 1.778H1.062ZM2.964 155.75c-.479 0-.825-.34-.825-.809v-2.37c-.355.151-.54.454-.54.887 0 .308.09.58.277.83.102.14.142.266.142.435a.692.692 0 0 1-.712.704.709.709 0 0 1-.533-.237c-.41-.481-.616-1.068-.616-1.75 0-1.525 1.096-2.632 2.606-2.632 1.513 0 2.641 1.075 2.641 2.502 0 1.585-1.257 2.44-2.44 2.44Zm.38-1.686c.273-.08.618-.275.618-.754 0-.37-.222-.642-.617-.772v1.526ZM4.535 165.738a.804.804 0 0 1-.805-.644c-.141-.606-.609-.9-1.43-.9H1.063a.853.853 0 0 1 0-1.705h3.456a.853.853 0 0 1 .367 1.621c.312.23.484.506.484.794 0 .499-.335.834-.834.834ZM1.035 172.282a.821.821 0 0 1-.826-.835c0-.345.176-.602.4-.731-.289-.359-.434-.801-.434-1.32 0-1.074.65-1.795 1.619-1.795 1.07 0 1.7.775 1.7 2.074 0 .386-.053.687-.12.934.232-.05.483-.219.483-.795 0-.315-.04-.596-.122-.86a.724.724 0 0 1-.044-.248c0-.414.32-.739.73-.739.306 0 .584.193.692.48.177.473.256.954.256 1.56 0 .752-.194 1.328-.578 1.713-.374.373-.92.562-1.626.562h-2.13Zm.812-3.02c-.352 0-.38.41-.38.535 0 .509.255.85.633.85h.11a1.94 1.94 0 0 0 .111-.658c0-.272-.06-.727-.457-.727h-.017ZM6.229 176.633c-.474 0-.818-.391-.818-.93s.344-.931.818-.931c.493 0 .825.383.825.93s-.332.931-.808.931H6.23Zm-5.167-.078a.853.853 0 0 1 0-1.704h3.456a.853.853 0 0 1 0 1.704H1.062ZM1.062 183.832a.853.853 0 0 1 0-1.705H3.06c.763 0 .763-.462.763-.614 0-.53-.415-.64-.763-.64H1.062a.853.853 0 0 1 0-1.705h3.456a.853.853 0 0 1 .358 1.625c.283.287.528.68.528 1.261 0 1.096-.737 1.778-1.925 1.778H1.062Z"/></g></g></g></g></svg>