<svg xmlns="http://www.w3.org/2000/svg" width="3074" height="186"><defs><clipPath id="e"><path fill="none" d="M0 0h3074v186H0z"/></clipPath><style>.f{fill:#4e2709}</style></defs><g id="b"><g id="c"><g clip-path="url(#e)" id="d"><path class="f" d="M5.864 146.938V91.88c14.323 12.463 44.455 20.647 71.612 20.647 11.718 0 20.833-1.674 20.833-6.324 0-16.555-92.445 7.812-92.445-46.13 0-23.064 18.414-34.968 42.967-34.968 28.087 0 47.06 16.182 47.06 40.363h3.533l.186-37.573h47.245v59.894l-46.314-.186c0-8.929-12.649-13.393-25.669-13.393-10.416 0-17.299 2.604-17.299 7.254 0 16.927 93.56-3.72 93.56 41.851 0 26.785-35.154 37.573-74.215 37.573-23.25 0-52.825-5.208-71.054-13.95ZM156.708 158.098v-48.547h8.743c4.65 0 8.184-3.534 8.184-8.184v-16.74c0-4.65-3.534-8.185-8.184-8.185h-8.743V27.895h80.168v48.547h-7.812c-4.65 0-8.37 3.534-8.37 8.184v2.79H261.8v-2.79c0-4.65-3.534-8.184-8.184-8.184h-7.998V27.895H325.6v48.547h-8.37c-4.65 0-8.371 3.534-8.371 8.184v16.74c0 4.651 3.72 8.185 8.37 8.185h8.37v48.547H245.62v-48.547h7.998c4.65 0 8.184-3.534 8.184-8.184v-2.604h-41.107v2.604c0 4.65 3.72 8.184 8.37 8.184h7.812v48.547h-80.168ZM415.062 109.55v48.548h-80.726v-48.547h8.742c4.65 0 8.184-3.534 8.184-8.184v-16.74c0-4.65-3.534-8.185-8.184-8.185h-8.742V27.895h80.726v48.547h-8.37c-4.65 0-8.37 3.534-8.37 8.184v16.74c0 4.651 3.72 8.185 8.37 8.185h8.37ZM421.567 88.718c0-36.456 18.601-63.613 52.64-63.613 25.11 0 40.92 14.322 40.92 39.433h3.721V27.895h48.175V87.23h-46.687c0-8.556-6.882-13.764-23.065-13.764-15.252 0-22.692 6.696-22.692 17.113 0 13.578 7.44 22.134 33.853 22.134 4.65 0 7.998-.558 13.02-1.86v-8.37h-22.135v-9.3h68.264v53.569c-15.438 8.742-34.225 14.136-56.36 14.136-54.498 0-89.654-21.949-89.654-72.17ZM589.896 104.343l3.349-19.903c.93-4.464-3.349-8.184-8.184-8.184h-9.3V27.895h78.679v48.361h-5.766c-5.022 0-7.812 3.72-8.37 8.743l-.93 7.812c-1.116 9.858 6.51 18.228 19.344 18.228s20.46-8.184 19.345-18.228l-.93-7.812c-.558-5.023-3.534-8.743-8.37-8.743h-5.767V27.895h78.494v48.361h-9.114c-4.836 0-9.114 3.72-8.184 8.184l3.348 19.903c6.324 33.295-22.879 55.615-68.822 55.615-45.757 0-75.332-22.506-68.822-55.615ZM835.604 118.665l-1.86-19.716c-1.488.93-3.348 1.301-5.208 1.301-5.022 0-9.114-3.162-9.114-8.556 0-4.65 3.72-7.44 8.37-7.626 4.464 0 8.742 2.604 9.3 7.068h2.232c3.72 0 7.999-2.604 7.999-7.254 0-5.394-4.65-7.998-14.695-7.998h-18.6v25.669c0 4.65 3.906 8.184 8.37 8.184h5.766v48.361h-78.68v-48.361h9.3c4.65 0 8.37-3.534 8.37-8.184V84.254c0-4.464-3.72-8.184-8.37-8.184h-9.3V27.895h93.746c37.016 0 52.082 13.392 52.082 34.225 0 15.996-15.252 30.505-36.271 30.505h-8.185v3.534c23.623-1.489 18.601 13.95 32.18 13.95 6.324 0 8.184-5.952 8.184-12.649V83.51h23.25v39.991c0 24.739-13.578 37.387-37.387 37.387-21.948 0-40.549-10.044-41.479-42.223ZM1020.116 96.717h47.245v61.381H923.022v-48.361h9.3c4.464 0 8.37-3.534 8.37-8.184V84.44c0-4.65-3.906-8.184-8.37-8.184h-8.556V27.895h56.173c24.18 0 33.853 14.136 33.853 37.573h3.348V27.895h47.431v61.381h-47.245V85.37c0-5.766-3.906-9.114-8.556-9.114h-21.205v11.347h8.184c3.907 0 5.395-2.047 5.395-5.953v-.744h8.742v24.367h-8.742v-.744c0-3.906-1.488-5.766-5.394-5.766h-8.185v10.974h23.995c4.65 0 8.556-3.348 8.556-9.114v-3.906ZM1137.103 104.343l3.348-19.903c.93-4.464-3.348-8.184-8.184-8.184h-9.3V27.895h78.68v48.361h-5.767c-5.022 0-7.812 3.72-8.37 8.743l-.93 7.812c-1.116 9.858 6.51 18.228 19.345 18.228s20.46-8.184 19.344-18.228l-.93-7.812c-.558-5.023-3.534-8.743-8.37-8.743h-5.766V27.895h78.494v48.361h-9.114c-4.836 0-9.115 3.72-8.185 8.184l3.349 19.903c6.324 33.295-22.88 55.615-68.822 55.615-45.758 0-75.332-22.506-68.822-55.615ZM1377.417 109.55v48.548h-80.726v-48.547h8.742c4.65 0 8.184-3.534 8.184-8.184v-16.74c0-4.65-3.534-8.185-8.184-8.185h-8.742V27.895h80.725v48.547h-8.37c-4.65 0-8.37 3.534-8.37 8.184v16.74c0 4.651 3.72 8.185 8.37 8.185h8.37ZM1431.908 56.167c0-11.718 8.742-23.25 15.625-27.342l6.138 5.952c-7.068 4.836-11.346 11.347-11.718 14.694.744-.185 1.302-.371 2.232-.371 5.394 0 9.858 4.277 9.858 9.858 0 5.952-4.65 10.23-10.788 10.23-6.51 0-11.347-4.836-11.347-13.02Zm33.481-.186c0-11.718 8.742-23.064 15.625-27.156l6.137 5.766c-7.254 5.022-11.345 11.533-11.717 14.695.744 0 1.301-.186 2.232-.186 5.58 0 9.672 4.091 9.672 9.858s-4.464 10.044-10.603 10.044c-6.51 0-11.346-4.836-11.346-13.02ZM1507.052 104.343l3.347-19.903c.931-4.464-3.347-8.184-8.183-8.184h-9.301V27.895h78.68v48.361h-5.766c-5.022 0-7.812 3.72-8.37 8.743l-.93 7.812c-1.116 9.858 6.51 18.228 19.344 18.228 12.835 0 20.461-8.184 19.345-18.228l-.93-7.812c-.558-5.023-3.534-8.743-8.37-8.743h-5.767V27.895h78.495v48.361h-9.115c-4.836 0-9.114 3.72-8.184 8.184l3.348 19.903c6.325 33.295-22.879 55.615-68.822 55.615-45.757 0-75.331-22.506-68.821-55.615ZM1747.365 109.55v48.548h-80.725v-48.547h8.742c4.65 0 8.183-3.534 8.183-8.184v-16.74c0-4.65-3.533-8.185-8.183-8.185h-8.742V27.895h80.725v48.547h-8.37c-4.65 0-8.37 3.534-8.37 8.184v16.74c0 4.651 3.72 8.185 8.37 8.185h8.37ZM1802.043 92.997c0-38.131 25.11-67.892 75.518-67.892 50.593 0 75.518 29.76 75.518 67.892 0 38.316-24.925 67.891-75.518 67.891-50.408 0-75.518-29.575-75.518-67.891Zm99.513 0c0-10.789-8.37-18.973-23.995-18.973-15.997 0-24.18 8.184-24.18 18.973 0 10.974 8.183 19.158 24.18 19.158 15.625 0 23.995-8.184 23.995-19.158ZM2035.102 109.737v48.361h-75.89v-48.361h9.3c4.65 0 8.37-3.534 8.37-8.184V84.44c0-4.65-3.72-8.184-8.37-8.184h-9.3V27.895h66.403l26.227 63.056c3.72 7.812 4.278 13.95 4.464 21.204h4.278V84.44c0-4.65-3.72-8.184-8.37-8.184h-2.976V27.895h75.89v48.361h-9.3c-4.465 0-8.184 3.534-8.184 8.184v17.113c0 4.65 3.72 8.184 8.183 8.184h9.3v48.361h-66.217l-26.04-63.056c-3.906-8.184-4.093-13.95-4.278-21.204h-4.837v27.715c0 4.65 3.72 8.184 8.371 8.184h2.976ZM2181.478 146.938V91.88c14.322 12.463 44.455 20.647 71.61 20.647 11.72 0 20.834-1.674 20.834-6.324 0-16.555-92.444 7.812-92.444-46.13 0-23.064 18.414-34.968 42.966-34.968 28.087 0 47.06 16.182 47.06 40.363h3.534l.186-37.573h47.245v59.894l-46.316-.186c0-8.929-12.647-13.393-25.668-13.393-10.417 0-17.298 2.604-17.298 7.254 0 16.927 93.56-3.72 93.56 41.851 0 26.785-35.155 37.573-74.216 37.573-23.25 0-52.825-5.208-71.053-13.95ZM2464.571 109.737v48.361h-108.627v-48.361h23.437c4.465 0 8.184-3.534 8.184-8.184V69.746h-3.162c-4.464 0-6.324 3.534-6.324 9.114v19.903h-46.315V27.895h157.173v70.868h-46.5V78.86c0-5.58-1.86-9.114-6.325-9.114h-2.975v31.807c0 4.65 3.534 8.184 8.183 8.184h23.251ZM2572.45 109.737v48.361h-75.518v-48.361h10.23c3.905 0 7.254-2.976 9.114-6.51l8.37-18.043c2.79-5.394-1.302-8.928-6.882-8.928h-7.069V27.895h97.095c3.349 0 6.696 2.232 8.185 5.766l26.226 69.566c1.674 3.906 5.208 6.51 9.114 6.51h8.184v48.361h-78.493v-48.361h6.51c4.836 0 7.068-2.418 5.394-5.952l-1.488-3.72h-29.389l-1.488 3.72c-1.674 3.534.744 5.952 5.394 5.952h6.51Zm-8.37-18.972h21.39l-4.279-8.185c-2.045-3.72-3.72-8.184-4.836-12.09h-3.162c-1.301 3.906-2.976 8.37-5.022 12.09l-4.092 8.185ZM2665.82 88.718c0-36.456 18.6-63.613 52.639-63.613 25.11 0 40.92 14.322 40.92 39.433h3.72V27.895h48.176V87.23h-46.687c0-8.556-6.882-13.764-23.065-13.764-15.252 0-22.692 6.696-22.692 17.113 0 13.578 7.44 22.134 33.853 22.134 4.65 0 7.998-.558 13.02-1.86v-8.37h-22.135v-9.3h68.264v53.569c-15.438 8.742-34.225 14.136-56.36 14.136-54.498 0-89.654-21.949-89.654-72.17ZM2917.664 96.717h47.246v61.381h-144.34v-48.361h9.3c4.464 0 8.37-3.534 8.37-8.184V84.44c0-4.65-3.906-8.184-8.37-8.184h-8.556V27.895h56.173c24.181 0 33.854 14.136 33.854 37.573h3.347V27.895h47.431v61.381h-47.245V85.37c0-5.766-3.905-9.114-8.556-9.114h-21.205v11.347h8.185c3.906 0 5.394-2.047 5.394-5.953v-.744h8.743v24.367h-8.743v-.744c0-3.906-1.488-5.766-5.394-5.766h-8.185v10.974h23.995c4.65 0 8.556-3.348 8.556-9.114v-3.906ZM2970.855 63.794c7.068-4.836 11.16-11.346 11.533-14.694a6.945 6.945 0 0 1-2.233.371c-5.394 0-9.672-4.278-9.672-9.858 0-5.952 4.65-10.23 10.788-10.23 6.325 0 11.346 4.836 11.346 13.02 0 11.719-8.742 23.065-15.624 27.343l-6.138-5.952Zm33.48 0c7.07-5.023 11.161-11.532 11.533-14.694-.744.186-1.302.186-2.232.186-5.394 0-9.672-4.093-9.672-9.859s4.65-10.044 10.788-10.044c6.324 0 11.347 4.836 11.347 13.02 0 11.719-8.743 23.065-15.625 27.157l-6.138-5.766Z"/></g></g></g></svg>