<svg xmlns="http://www.w3.org/2000/svg" width="134" height="46"><defs><clipPath id="e"><path fill="none" d="M0 0h134v46H0z"/></clipPath><style>.h{fill:#542e14}</style></defs><g id="b"><g id="c"><g clip-path="url(#e)" id="d"><path class="h" d="M23.315 10.976c-.728 0-1.091.461-1.091.923H20.5c-.21-.616-.294-1.33-.294-1.89 0-4.665 6.64-2.746 6.64-3.866 0-.351-.575-.561-1.975-.561-1.625 0-3.04.463-4.314 1.19l-.015-3.851c1.08-.616 2.928-1.023 5.015-1.023 3.11 0 5.07.827 5.07 2.844 0 3.768-6.05 1.946-7.354 3.264l.141.223c.364-.265.813-.406 1.4-.406 1.107 0 2.045.56 3.124.56.743 0 1.079-.266 1.079-.741v-.294h1.737v1.806c0 1.807-.883 2.97-2.802 2.97-2.17-.028-3.432-1.148-4.637-1.148ZM31.126 6.997c0-2.872 1.89-5.113 5.686-5.113 3.811 0 5.688 2.241 5.688 5.113 0 2.886-1.877 5.112-5.688 5.112-3.795 0-5.686-2.226-5.686-5.112Zm7.494 0c0-.854-.63-1.499-1.807-1.499-1.205 0-1.82.645-1.82 1.5 0 .867.615 1.512 1.82 1.512 1.176 0 1.807-.645 1.807-1.513ZM45.827 10.976c-.728 0-1.092.461-1.092.923h-1.723c-.21-.616-.294-1.33-.294-1.89 0-4.665 6.64-2.746 6.64-3.866 0-.351-.575-.561-1.975-.561-1.625 0-3.04.463-4.315 1.19l-.014-3.851c1.079-.616 2.927-1.023 5.014-1.023 3.11 0 5.072.827 5.072 2.844 0 3.768-6.052 1.946-7.355 3.264l.14.223c.365-.265.813-.406 1.401-.406 1.107 0 2.045.56 3.124.56.742 0 1.078-.266 1.078-.741v-.294h1.738v1.806c0 1.807-.883 2.97-2.802 2.97-2.171-.028-3.432-1.148-4.637-1.148ZM53.735 11.06V6.997c1.093.868 3.222 1.47 5.198 1.47.938 0 1.498-.196 1.498-.573 0-.351-.49-.519-1.723-.519h-.938v-.784h.938c1.275 0 1.555-.098 1.555-.477 0-.336-.49-.532-1.246-.532-.954 0-1.864.35-1.85 1.022h-3.375v-4.51h3.432l.013 2.83h.267c0-1.821 1.414-3.04 3.502-3.04 1.778 0 3.025.827 3.025 2.563 0 1.877-1.289 2.367-3.278 2.382v.252c2.004.028 3.517.519 3.517 2.186 0 2.045-2.537 2.842-5.38 2.842-1.765 0-3.866-.406-5.155-1.05ZM64.628 10.037c0-1.191.756-2.101 2.48-2.101 1.68 0 2.45.91 2.45 2.101 0 1.162-.77 2.072-2.45 2.072-1.724 0-2.48-.91-2.48-2.072ZM70.032 11.9V8.243h1.5c.349 0 .615-.266.615-.617V6.213a.604.604 0 0 0-.616-.616h-1.499V2.57l2.297-.49a6.217 6.217 0 0 1 1.023-.111h2.24v5.658c0 .35.267.617.618.617h1.33V11.9h-7.508ZM78.18 11.9V8.243h1.499c.35 0 .616-.266.616-.617V6.213a.604.604 0 0 0-.616-.616h-1.5V2.57l2.298-.49a6.228 6.228 0 0 1 1.022-.111h2.241v5.658c0 .35.267.617.616.617h1.331V11.9H78.18ZM86.16 10.037c0-1.191.755-2.101 2.479-2.101 1.68 0 2.45.91 2.45 2.101 0 1.162-.77 2.072-2.45 2.072-1.724 0-2.48-.91-2.48-2.072ZM94.435 10.976c-.729 0-1.092.461-1.092.923h-1.724c-.21-.616-.294-1.33-.294-1.89 0-4.665 6.64-2.746 6.64-3.866 0-.351-.574-.561-1.975-.561-1.625 0-3.04.463-4.314 1.19l-.015-3.851c1.08-.616 2.928-1.023 5.015-1.023 3.11 0 5.071.827 5.071 2.844 0 3.768-6.052 1.946-7.354 3.264l.14.223c.364-.265.813-.406 1.4-.406 1.107 0 2.046.56 3.125.56.742 0 1.078-.266 1.078-.741v-.294h1.737v1.806c0 1.807-.883 2.97-2.802 2.97-2.17-.028-3.431-1.148-4.636-1.148ZM102.72 11.48V7.57c1.066.477 2.648.883 4.147.883 1.205 0 2.914-.49 2.914-1.289 0-.154-.014-.294-.042-.435-.799.435-1.709.729-3.208.744-2.592.013-4.286-.575-4.286-2.537 0-1.666 1.568-3.053 5.17-3.053 3.85 0 6.316 1.989 6.316 5.015 0 2.788-2.465 5.21-6.317 5.21-1.919 0-3.124-.21-4.693-.63Zm6.724-5.45c-.321-.307-.882-.49-1.877-.49-.504 0-1.372.112-1.372.477 0 .406.504.518 1.317.518a3.79 3.79 0 0 0 1.932-.505ZM56.269 24.048c0-2.283 1.569-4.063 4.72-4.063 3.153 0 4.707 1.78 4.707 4.063s-1.554 4.061-4.707 4.061c-3.151 0-4.72-1.778-4.72-4.061Zm5.912 0c0-.519-.421-.939-1.192-.939-.784 0-1.204.407-1.204.939s.42.924 1.204.924c.77 0 1.192-.392 1.192-.924ZM71.588 24.79v3.11h-5.49v-3.11h.517c.35 0 .616-.267.616-.616v-.336c0-.35-.265-.589-.616-.589h-.517v-3.054h4.677v.407c0 .63-.027 1.289-.195 1.835l.252.07c.35-1.457 1.372-2.522 2.886-2.522 1.835 0 2.759.967 2.759 2.83v1.359c0 .35.28.616.63.616h.504v3.11h-5.476v-3.11h.168c.35 0 .63-.267.63-.616v-.294c0-.421-.392-.77-1.051-.77-.672 0-1.107.377-1.107.868v.196c0 .35.28.616.631.616h.182ZM37.688 40.93l-.14-1.485a.743.743 0 0 1-.393.098c-.378 0-.686-.237-.686-.644 0-.35.28-.56.63-.575.337 0 .659.197.7.533h.169c.28 0 .602-.196.602-.546 0-.407-.35-.603-1.106-.603h-1.402v1.934c0 .35.294.616.631.616h.434v3.641h-5.925v-3.641h.7c.35 0 .631-.267.631-.616v-1.303a.625.625 0 0 0-.63-.616h-.7v-3.628h7.059c2.788 0 3.922 1.008 3.922 2.577 0 1.204-1.149 2.297-2.732 2.297h-.616v.266c1.78-.112 1.401 1.051 2.424 1.051.475 0 .616-.448.616-.953v-1.05h1.751v3.011c0 1.863-1.023 2.815-2.815 2.815-1.654 0-3.054-.755-3.124-3.18ZM44.081 39.838c0-2.256 1.15-3.853 4.245-3.853 2.774 0 4.384 1.528 4.258 4.203h-5.169c.015.616.7.826 2.073.826 1.205 0 2.493-.168 3.363-.7v3.194c-.828.378-2.242.601-3.573.601-3.263 0-5.197-1.33-5.197-4.271Zm5.253-.309c.015-.406-.42-.672-.952-.672-.616 0-.939.252-.952.672h1.904ZM59.274 43.9H53.35v-3.11h.574c.35 0 .616-.267.616-.616v-2.998c0-.336-.267-.574-.616-.574h-.574v-2.774l1.904-.448a5.136 5.136 0 0 1 1.135-.126h1.709v6.92c0 .35.266.616.616.616h.56v3.11ZM59.69 39.838c0-2.256 1.15-3.853 4.246-3.853 2.773 0 4.383 1.528 4.257 4.203h-5.169c.015.616.7.826 2.074.826 1.205 0 2.493-.168 3.362-.7v3.194c-.827.378-2.241.601-3.572.601-3.264 0-5.198-1.33-5.198-4.271Zm5.253-.309c.015-.406-.42-.672-.952-.672-.616 0-.938.252-.952.672h1.904ZM68.832 41.77c0-1.316.967-2.185 2.676-2.185h2.605v-.364c0-.378-.35-.602-.77-.602-.477 0-.784.28-.784.687h-3.264v-3.11h3.067v1.975h.21c0-1.29.827-2.186 2.522-2.186 1.596 0 2.563 1.08 2.563 2.41v2.423c0 .21.126.378.336.378s.336-.168.336-.378v-.953h1.163v1.36c0 1.89-1.036 2.884-2.676 2.884-1.512 0-2.563-.868-2.563-2.66h-.266c-.028 1.82-.952 2.66-2.508 2.66-1.526 0-2.647-.881-2.647-2.338Zm5.281-1.4v-.21h-.938c-.49 0-.757.182-.757.49 0 .322.267.504.686.504.533 0 1.01-.322 1.01-.784ZM79.935 43.283v-3.431c.896.798 2.716 1.26 4.271 1.26.715 0 .953-.084.953-.378 0-.896-5.24.504-5.24-2.605 0-1.415 1.122-2.144 2.593-2.144 1.625 0 2.563.785 2.563 2.381h.238v-2.17h3.068v3.46h-2.76c.014-.491-.728-.659-1.54-.659-.603 0-.73.168-.73.406 0 .868 5.295-.35 5.295 2.354 0 1.639-2.115 2.352-4.482 2.352-1.372 0-3.138-.307-4.23-.826ZM88.88 39.838c0-2.256 1.15-3.853 4.245-3.853 2.773 0 4.384 1.528 4.258 4.203h-5.17c.016.616.701.826 2.074.826 1.205 0 2.493-.168 3.362-.7v3.194c-.827.378-2.24.601-3.572.601-3.264 0-5.197-1.33-5.197-4.271Zm5.253-.309c.014-.406-.42-.672-.952-.672-.617 0-.939.252-.952.672h1.904ZM98.036 42.037c0-1.191.756-2.101 2.48-2.101 1.68 0 2.45.91 2.45 2.101 0 1.162-.77 2.072-2.45 2.072-1.724 0-2.48-.91-2.48-2.072Zm.882-2.563-.756-5.38h4.679l-.701 5.38h-3.222Z"/></g></g></g></svg>