<svg xmlns="http://www.w3.org/2000/svg" width="272" height="32"><defs><clipPath id="e"><path fill="none" d="M0 0h272v32H0z"/></clipPath><style>.g{fill:#ff6024}</style></defs><g id="b"><g id="c"><g clip-path="url(#e)" id="d"><path class="g" d="M13.467 22.016c-1.313 3.87-3.583 6.047-7.423 7.359-.768.256-2.976.928-3.68.928-.896 0-1.311-1.088-1.696-2.016-.224-.512-.544-1.44-.544-2.015 0-.513.513-.544.96-.577 2.176-.224 4.736-1.055 6.176-2.784.416-.48 1.183-1.727 1.183-2.367 0-.416-.319-.48-.767-.48H5.468c-1.344 0-2.688.064-4.064.064-.704 0-.767-.353-.767-1.313v-1.631c0-.896.063-1.216.8-1.216 1.343 0 2.687.095 4.03.095h18.879c1.343 0 2.687-.095 4.031-.095.736 0 .8.352.8 1.376v1.471c0 .96-.064 1.313-.768 1.313-1.376 0-2.72-.065-4.063-.065h-3.232a.875.875 0 0 0-.896.897v3.392c0 .927.032 1.343 1.248 1.343h1.888c.288 0 .543-.032.704-.224.351-.384.48-1.12.608-2.592.063-.735.191-1.184.96-1.184.768 0 1.632.224 2.335.48.768.289 1.248.576 1.248 1.408 0 1.313-.672 3.872-1.344 5.024-.704 1.184-1.376 1.375-2.943 1.375H19.13c-2.4 0-3.84-.223-3.84-3.359 0-.8.064-1.632.064-2.464V20.96a.895.895 0 0 0-.896-.897h-1.056c-.256 0-.383.033-.383.193 0 .128.127.191.32.223.351.065 1.088.193 1.088.609 0 .256-.416.416-.609.48-.255.127-.255.223-.351.448ZM7.004 8.288c-.864 0-1.152.48-1.152.897s.128 1.343.128 1.567c0 .704-.512.769-1.44.769H2.524c-.927 0-1.408-.065-1.408-.77 0-.383.096-1.15.096-1.727V7.36c0-.864-.064-1.887-.064-2.111 0-1.12 1.376-1.12 2.176-1.12 1.248 0 2.464.064 3.68.064h4.32c.735 0 1.023-.448 1.023-.896 0-.256-.065-.96-.096-1.216 0-.096-.032-.224-.032-.32 0-.415.384-.448.704-.448.895 0 2.687.128 3.583.193.929.063 1.6.128 1.6.512 0 .223-.16.319-.352.48-.224.191-.32.543-.32.831 0 .353.256.864 1.152.864h4.224c1.215 0 2.431-.064 3.68-.064.8 0 2.175 0 2.175 1.12 0 .16-.063 1.151-.063 2.111v1.888c0 .513.095 1.376.095 1.729 0 .735-.511.8-1.536.8h-1.855c-.928 0-1.472-.065-1.472-.8 0-.385.128-1.057.128-1.825 0-.32-.225-.864-1.057-.864H7.004Zm12.158 2.176c1.151 0 2.272-.064 3.424-.064.8 0 .863.352.863 1.312v1.536c0 .928-.095 1.248-.863 1.248-1.152 0-2.273-.064-3.424-.064h-8.51c-1.152 0-2.304.064-3.456.064-.8 0-.864-.384-.864-1.376v-1.376c0-1.023.096-1.344.896-1.344.832 0 2.24.064 2.816.064h9.118ZM51.642 16.864a.607.607 0 0 0-.608.608v.64c0 .415.32.768.768.768h1.471c1.28 0 2.592-.097 3.873-.097.863 0 .895.448.895 1.633v1.28c0 1.024-.032 1.44-.895 1.44-1.313 0-2.592-.097-3.873-.097h-1.471a.758.758 0 0 0-.768.769v.48c0 .415.32.768.768.768h5.407c1.408 0 2.784-.097 4.192-.097.768 0 .832.384.832 1.376v1.856c0 1.024-.064 1.408-.832 1.408-1.408 0-2.816-.096-4.192-.096h-17.47c-1.377 0-2.784.096-4.192.096-.768 0-.832-.384-.832-1.408v-1.856c0-.992.064-1.376.832-1.376 1.408 0 2.815.097 4.191.097h5.472a.78.78 0 0 0 .769-.769v-.48a.78.78 0 0 0-.769-.768h-1.536c-1.312 0-2.623.097-3.903.097-.833 0-.896-.48-.896-1.248v-1.569c0-1.183.063-1.536.896-1.536 1.28 0 2.591.097 3.903.097h1.536a.78.78 0 0 0 .769-.769v-.64c0-.32-.289-.607-.641-.607h-.863c-1.185 0-2.4.064-3.584.064-.928 0-.928-.416-.928-1.536v-.096c0-.256 0-.608-.353-.608-.255 0-.607.288-.832.448-.447.32-1.248.927-1.792.927-1.311 0-2.783-2.56-2.783-3.391 0-.416.384-.544.832-.8 2.655-1.472 5.503-3.456 7.583-5.632 1.248-1.311 2.784-3.231 3.68-4.799.128-.288.224-.448.544-.448.448 0 2.88.448 3.648.576.928.16 1.632.256 1.632.737 0 .128-.064.223-.129.319a.891.891 0 0 0-.095.416c0 .384.288.736.511 1.024 2.656 3.423 5.857 5.664 9.824 7.391.8.353 1.024.448 1.024.8 0 .992-1.376 3.872-2.464 3.872-.512 0-2.4-1.184-2.912-1.504-.128-.096-.32-.192-.48-.192-.352 0-.352.288-.352.64 0 1.535-.031 1.856-.96 1.856-1.184 0-2.367-.064-3.55-.064h-.897Zm1.76-4.192c.736 0 1.087-.032 1.087-.32 0-.127-.16-.288-.288-.384a31.602 31.602 0 0 1-4.928-4.991c-.191-.256-.447-.64-.8-.64-.255 0-.447.224-.607.416a60.292 60.292 0 0 1-5.088 5.215c-.128.096-.32.257-.32.416 0 .288.385.288 1.248.288h9.695ZM78.715 7.553c.48 0 .895-.384.895-.865V4.865c0-.992 0-2.08-.095-2.815-.033-.097-.033-.225-.033-.288 0-.449.32-.513.672-.513.449 0 2.912.225 4.512.416.48.064.672.16.672.448 0 .16-.096.288-.352.512-.256.225-.32.672-.32 1.888v2.112c0 .48.416.928.897.928h4.479c1.376 0 2.784-.097 4.16-.097.831 0 .863.416.863 1.696v1.409c0 1.215-.095 1.567-.864 1.567-1.375 0-2.783-.096-4.159-.096h-4.48a.916.916 0 0 0-.896.896v2.016c0 .48.416.896.897.896h3.07c1.345 0 2.69-.096 4.033-.096.896 0 .96.384.96 1.407v1.729c0 1.056-.097 1.407-.992 1.407-1.344 0-2.656-.063-4-.063h-3.071a.894.894 0 0 0-.897.895v2.784c0 .48.416.896.897.896h5.6c1.439 0 2.879-.096 4.318-.096.865 0 .928.353.928 1.44v1.792c0 1.087-.063 1.44-.928 1.44-1.439 0-2.88-.064-4.319-.064H73.18c-1.44 0-2.88.064-4.32.064-.864 0-.927-.353-.927-1.44v-1.791c0-1.088.063-1.44.927-1.44 1.44 0 2.88.095 4.32.095h5.536c.48 0 .895-.416.895-.896V21.12a.894.894 0 0 0-.895-.895h-3.008c-1.311 0-2.656.063-3.968.063-.895 0-.992-.32-.992-1.407v-1.088c0-.64-.447-.896-1.184-1.185-.576-.223-2.143-.927-2.143-1.6 0-.32.288-.671.48-.927 2.4-3.2 3.84-7.071 4.415-11.007.064-.448.096-.8.544-.8.48 0 3.296.768 4.128.993.608.159.864.255.864.575 0 .32-.352.544-.64.672-.576.257-.608.448-.768 1.089-.096.35-.256 1.023-.256 1.279 0 .544.448.64.896.672h1.632Zm0 8.287c.48 0 .895-.416.895-.896v-2.016a.916.916 0 0 0-.895-.896h-3.232c-1.12 0-1.408.672-1.76 1.376a17.78 17.78 0 0 1-.736 1.408c-.16.256-.256.415-.256.576 0 .448.608.448 2.976.448h3.008ZM123.448 9.984c0 .224.385.256.544.256h.737c1.311 0 2.624-.063 3.935-.063.768 0 .864.095.864 1.407v1.056c0 1.184-.096 1.344-.864 1.344-1.311 0-2.624-.032-3.935-.032h-2.688c-.225 0-.448.032-.448.288v.192c0 .192-.193.352-.32.48-.289.256-.289.576-.289.928 0 .48.385.704.832.704h2.145c1.216 0 2.432-.065 3.647-.065.608 0 .672.32.672 1.057v1.344c0 .832-.064 1.151-.704 1.151-1.216 0-2.431-.063-3.615-.063h-2.4a.607.607 0 0 0-.608.607v.128c0 .353.287.609.608.609h1.952c.992 0 1.983-.065 2.975-.065.832 0 .832.416.832 1.664v.576c0 .8-.064 1.184-.8 1.184-.992 0-2.015-.064-3.007-.064h-1.952a.629.629 0 0 0-.608.608v.128c0 .32.287.608.608.608h4.255c1.12 0 2.272-.064 3.424-.064.865 0 .865.288.865 1.824v.608c0 1.12-.128 1.28-.865 1.28-1.152 0-2.303-.064-3.424-.064H111.93c-1.153 0-2.273.064-3.423.064-.704 0-.864-.224-.864-1.184v-1.248c0-1.088.128-1.28.864-1.28 1.15 0 2.27.064 3.423.064h3.807a.63.63 0 0 0 .608-.608v-.224a.505.505 0 0 0-.512-.512h-.607c-.993 0-1.985.064-3.008.064-.704 0-.769-.384-.769-.991v-.128c0-.097-.032-.257-.16-.257s-.256.257-.351.385c-.193.319-.449.767-.865.767-.575 0-1.406-.448-1.854-.736-.128-.096-.288-.224-.48-.224-.257 0-.32.48-.384.704-.32 1.44-.736 2.913-1.344 4.288-.64 1.472-.864 1.696-1.408 1.696-.768 0-3.36-1.248-3.36-2.112 0-.128.065-.224.096-.352 1.888-3.584 2.304-7.231 2.304-11.231v-2.432c0-.928-.064-1.792-.064-2.56 0-1.12.8-1.311 2.08-1.311.768 0 1.696.063 2.751.063.16 0 .353-.095.353-.288 0-.191-.32-.832-.416-1.023-.128-.256-.352-.704-.384-.96-.065-.385-.225-.385-.736-.385-1.088 0-2.176.064-3.264.064-.8 0-.864-.288-.864-1.055V5.025c0-.896.064-1.184.832-1.184 1.28 0 2.56.097 3.84.097h4.734a.929.929 0 0 0 .929-.93c0-.158-.065-.862-.097-1.055-.031-.16-.031-.191-.031-.288 0-.416.383-.447.735-.447.8 0 3.04.191 3.904.288.864.096 1.12.16 1.12.447 0 .193-.128.256-.384.416-.224.16-.288.416-.288.672 0 .513.384.897.896.897h5.056c1.279 0 2.527-.097 3.807-.097.768 0 .832.288.832 1.056v1.696c0 .8-.096 1.055-.832 1.055-1.055 0-2.08-.064-3.135-.064-.065 0-.225 0-.225.097 0 .063.097.128.16.16.193.096.288.159.288.384 0 .288-.191.351-.416.351-.32.032-.576.065-.767.32-.16.224-.609.896-.609 1.088Zm-7.615 6.56c.416 0 .512-.416.512-.736 0-.928 0-1.856-.928-1.856h-6.432a.874.874 0 0 0-.894.896v2.528c0 1.12-.128 2.592-.128 2.783 0 .097.032.353.191.353.385 0 1.791-3.552 2.272-5.76.095-.416.191-.512.447-.512.385 0 2.912.704 3.424.864.352.096.832.16.832.543 0 .16-.128.257-.224.353-.128.063-.288.191-.288.32 0 .16.16.192.288.224h.928Zm0 4.768c.32 0 .512-.224.512-.512v-.225a.607.607 0 0 0-.608-.607h-2.143c-1.057 0-1.12.767-1.12.96 0 .384.544.384 2.752.384h.607Zm2.048-11.072c.64 0 .96-.32 1.183-.864.13-.352.449-1.056.449-1.407 0-.32-.288-.385-.576-.385h-5.472c-.32 0-.575.097-.575.448 0 .193.095.384.159.544.288.64.288 1.025.352 1.28.064.32.096.384.48.384h4ZM140.442 24.447c0 1.632.096 3.264.096 4.896 0 .832-.32.928-1.28.928h-2.016c-.928 0-1.247-.096-1.247-.896 0-1.632.096-3.296.096-4.928V7.488c0-1.151-.065-2.302-.065-3.423 0-1.312.513-1.792 1.792-1.792.993 0 2.016.096 3.008.096h1.952c.96 0 1.6-.096 2.304-.096 1.28 0 2.304 1.312 2.304 2.176 0 1.088-2.08 5.375-2.688 6.528-.096.191-.288.575-.288.767 0 .224.192.48.32.672 1.312 1.984 2.4 3.872 2.4 6.336 0 1.888-.416 3.424-2.08 4.447-.864.512-2.304.928-3.264.928-.448 0-.735-.096-.96-.48-.032-.064-.128-.16-.191-.16-.16 0-.193.065-.193.416v.544Zm0-15.134c0 .19 0 .511.193.511.287 0 1.247-2.56 1.247-3.04 0-.384-.192-.416-.447-.416h-.577a.404.404 0 0 0-.416.416v2.529Zm0 9.918c0 .449.256.449.8.449.832 0 1.28-.416 1.28-1.248 0-1.825-1.28-4.448-1.792-4.448-.288 0-.288.32-.288.608v4.64Zm20.319 2.913c-.224.191-.384.351-.384.64s.224.48.544.831c.096.065.192.16.288.256.607.576 1.792 1.408 2.496 1.92.16.096.32.192.32.416 0 .897-1.856 3.424-2.848 3.424-.8 0-3.68-3.071-4.288-3.808-.096-.095-.192-.223-.352-.223-.224 0-.288.255-.288.447 0 .608-.032 1.088-.448 1.28-.575.256-6.08 1.344-7.167 1.568-1.153.224-1.696.352-1.888.448-.256.128-.32.288-.544.608-.128.192-.224.288-.416.288-.352 0-.512-.544-.832-1.568-.096-.32-.224-.672-.352-1.056-.128-.384-.544-1.536-.544-1.887 0-.416.224-.449 1.28-.609.448-.063.96-.128 1.472-.223.896-.16 1.12-.416 1.12-1.376V7.456c0-1.12-.064-2.27-.064-3.423 0-1.248.48-1.76 1.76-1.76 1.056 0 2.08.064 3.136.064h4.223c1.024 0 2.048-.064 3.104-.064.96 0 1.792.192 1.792 1.76 0 1.153-.096 2.304-.096 3.423v3.84c0 1.152.096 2.304.096 3.456 0 .64-.16 1.344-.832 1.632-.128.064-.193.128-.193.256 0 .192.673.8 1.313 1.408.351.32 1.567 1.408 1.567 1.823 0 .448-.48.448-.832.448-.159 0-.223.065-.32.16a30.529 30.529 0 0 1-1.823 1.665Zm-4.096-14.207a.759.759 0 0 0 .769-.768V7.04a.759.759 0 0 0-.769-.768h-3.615a.78.78 0 0 0-.769.768v.129c0 .447.353.735.769.768h3.615Zm-3.615 3.135a.759.759 0 0 0-.769.768v.064c0 .449.353.768.769.768h3.615a.74.74 0 0 0 .769-.768v-.064c0-.447-.32-.735-.769-.768h-3.615Zm-.769 11.583c0 .256 0 1.025.64 1.025.16 0 .673-.128.832-.16.416-.097.929-.193.929-.672 0-.288-.16-.544-.288-.8-.832-1.536-1.44-3.488-1.665-5.216-.032-.192-.095-.384-.255-.384s-.193.256-.193.384v5.823Zm7.296-5.79c0-.353-.32-.449-1.824-.449-.32 0-.896 0-.896.512 0 .223.289 1.024.384 1.28.224.607.288.863.608.863.384 0 1.728-1.983 1.728-2.207ZM180.474 16.063a.894.894 0 0 0-.897-.895h-1.535c-1.185 0-2.368.096-3.584.096-.832 0-.928-.384-.928-1.376v-1.184c0-.448-.352-.832-.8-.832h-2.368c-.64 0-1.248-.063-1.248-.832 0-.576.128-1.248.128-1.823V7.84c0-1.088-.095-1.92-.095-2.24 0-1.184 1.408-1.184 2.271-1.184 1.28 0 2.592.064 3.872.064h4.064c.576 0 1.12-.224 1.12-.927 0-.353-.128-1.408-.128-1.504 0-.48.351-.513.704-.513.928 0 2.72.16 3.68.256.735.064 1.248.097 1.248.513 0 .191-.13.288-.32.48-.224.223-.289.543-.289.863 0 .416.32.832.992.832h4.287c1.28 0 2.592-.064 3.905-.064.832 0 2.239 0 2.239 1.185 0 .254-.063 1.342-.063 2.239v1.247c0 .576.095 1.345.095 1.824 0 .768-.607.832-1.248.832h-2.367a.807.807 0 0 0-.832.832v1.6c0 .736-.16 1.088-.929 1.088-1.216 0-2.4-.096-3.583-.096h-1.6a.916.916 0 0 0-.896.895v.641c0 .832.384 1.151 1.216 1.151h.512c1.216 0 2.4-.063 3.584-.063.864 0 .927.384.927 1.344v1.632c0 .927-.063 1.343-.863 1.343-1.216 0-2.432-.063-3.648-.063h-.576c-.768 0-1.152.351-1.152 1.151v.96c0 .768.448 1.088 1.184 1.088h1.856c2.592 0 4.768-.128 7.327-.384.288-.032.609-.064.928-.064.672 0 .736.64.736 1.184 0 .928-.223 2.784-.992 3.36-.48.352-1.055.352-2.368.352h-5.791c-4.96 0-9.184-.096-11.967-2.72-.16-.128-.352-.32-.576-.32-.256 0-.448.288-.544.48-.352.64-.96 1.76-1.376 2.336-.224.32-.416.576-.832.576-.8 0-3.84-1.088-3.84-2.08 0-.288.224-.608.384-.832 2.048-2.72 3.36-6.432 3.584-9.823.032-.48.064-.864.64-.864.512 0 2.591.416 3.2.544 1.248.287 1.952.384 1.952.831 0 .225-.225.385-.385.448-.575.256-.607.417-.735 1.153-.032.223-.065.48-.16.863a3.4 3.4 0 0 0-.096.8c0 .832.256 1.217.768 1.792.32.352 1.376 1.248 1.824 1.248.32 0 .384-.352.384-.8v-7.264Zm-5.6-7.743c-.64 0-.992.32-.992.832 0 1.76.064 1.92 2.88 1.92h12.575c2.496 0 2.592-.192 2.592-1.855 0-.544-.449-.897-.992-.897h-16.063ZM207.96 1.186c.352 0 2.496.255 3.648.383.449.065.8.16.8.384 0 .256-.256.384-.448.48-.288.129-.384.48-.384.672 0 .256.288.289.48.289.64 0 1.312-.065 1.952-.065.864 0 1.376.225 1.376 1.152 0 .736-.064 1.536-.064 2.4v2.048c0 .191.096.384.32.384.096 0 .192-.033.224-.033.416 0 .416.544.416 1.504 0 1.153-.064 1.569-.576 1.76-.32.128-.384.16-.384.512v1.408c0 .736.064 1.472.064 2.208 0 2.655-1.728 3.36-4.064 3.36-1.088 0-1.28-.385-1.471-1.44-.096-.512-.256-.704-.897-.704-.063 0-.159.032-.223.032-.416 0-.609-.065-.609-.48 0-.64.032-1.377.032-2.048v-.8c0-.448 0-.768-.288-.768-.384 0-.447.608-.511.896-.16.832-.384 1.728-.64 2.528s-.735 1.951-1.184 2.655c-.128.225-.256.288-.511.288-.64 0-3.072-.96-3.072-1.727 0-.16.224-.576.416-.897.448-.8 1.12-2.367 1.12-2.815 0-.128-.064-.128-.128-.128-.096 0-.192.16-.384.16-.16 0-.288-.256-.384-.64-.16-.768-.48-2.72-.48-2.848 0-.191.096-.32.448-.352.511-.032.672-.064.927-.095.641-.097.705-.513.705-1.44V6.88c0-.864-.032-1.664-.032-2.4 0-.927.512-1.152 1.344-1.152.288 0 .544.032.832.032.639 0 .83-.16.927-.704.032-.223.096-.576.128-.895.063-.48.095-.576.576-.576Zm-2.302 22.845c0-.64-.032-1.28-.032-1.92 0-1.183.447-1.408 1.534-1.408.673 0 1.345.032 2.017.032h14.814c.672 0 1.344-.032 2.016-.032 1.056 0 1.536.225 1.536 1.376 0 .64-.032 1.313-.032 1.952v1.153c0 .64.48.895 1.056.895.48 0 .928-.032 1.376-.032.832 0 .896.32.896 1.216v1.504c0 .832-.064 1.184-.832 1.184s-1.568-.064-2.368-.064h-22.045c-.8 0-1.6.064-2.368.064-.768 0-.832-.385-.832-1.28v-1.312c0-.96.064-1.312.864-1.312.48 0 .96.032 1.44.032.608 0 .96-.288.96-.864V24.03Zm6.046-16.67a.778.778 0 0 0-.767-.768h-.353c-.128 0-.287.032-.287.191 0 .097.128.256.287.448.225.256.96 1.248.96 1.537 0 .191-.256.351-.832.767-.32.225-.735.512-1.024.512-.192 0-.255-.096-.351-.224-.32-.48-.864-1.183-1.248-1.6-.097-.095-.128-.16-.128-.287 0-.353.607-.705.863-.897.097-.063.288-.191.288-.287 0-.128-.16-.16-.256-.16h-.288a.778.778 0 0 0-.767.767V9.73c0 .416.16.607.607.607.288 0 2.208-.256 2.433-.288.64-.128.863-.256.863-.736V7.36Zm-1.632 18.142c0 .352.288.608.64.608h.257c.351 0 .64-.288.64-.608v-.64c0-.32-.289-.608-.64-.608h-.257c-.352 0-.64.288-.64.608v.64Zm1.632-11.583c0-.192-.032-.576-.32-.576-.192 0-.543.288-.608.416-.032.096-.032.288-.032.832v.8c0 .448 0 .928.48.928s.48-.416.48-1.664v-.736ZM223.543 2.08c.48 0 .96-.031 1.44-.031.8 0 1.28.095 1.28 1.023v2.048c0 .672 0 .96.32.96h.097c.415 0 .511-.064.735-1.311.065-.385.065-.609.608-.609.608 0 3.008.448 3.008 1.408 0 .768-.576 2.368-1.056 3.007-.672.864-1.792.864-2.816.864h-1.855c-.737 0-1.473-.128-2.017-.608-.544-.48-.544-.895-.544-1.663V6.08c0-.288-.223-.512-.575-.512-.673 0-.704.352-.832.896-.256 1.119-.8 2.143-1.504 3.039-.064.064-.225.257-.225.352 0 .192.384.192.769.192h4.224c1.183 0 2.303-.096 2.847-.096.832 0 1.056.353 1.6 1.025.32.383.736.863.736 1.407 0 .736-1.952 2.72-2.528 3.263-.16.128-.384.32-.384.544 0 .32.928.577 1.632.737s1.408.288 2.112.416c.352.064.48.16.48.511 0 .897-.768 2.976-1.92 2.976-1.056 0-4.415-1.344-5.503-1.855-.257-.128-.513-.224-.769-.224-.416 0-.895.224-1.248.352-.64.255-3.36 1.28-3.87 1.28-1.153 0-2.113-2.817-2.113-3.136 0-.352.416-.416 1.152-.513.416-.063 2.432-.415 2.432-.895 0-.193-.224-.448-.353-.576a5.687 5.687 0 0 1-.511-.736c-.128-.192-.16-.288-.16-.384 0-.256.288-.448.48-.576.128-.096.16-.128.16-.224s-.225-.096-.288-.096h-1.088c-.64 0-.704-.256-.704-1.023v-.96c0-1.088.032-1.248.736-1.313.096 0 .192-.032.192-.128s-.096-.192-.224-.256c-.352-.16-1.536-.8-1.536-1.215 0-.224.192-.416.32-.544 1.184-1.313 1.408-3.04 1.408-4.736 0-.864.384-1.023 1.375-1.023.577 0 .897.031 1.665.031h2.815Zm-6.335 22.782a.608.608 0 0 0-.608-.608h-.288a.63.63 0 0 0-.608.608v.64c0 .32.288.608.608.608h.288a.588.588 0 0 0 .608-.608v-.64Zm4.256.64c0 .352.256.608.607.608h.288a.608.608 0 0 0 .609-.608v-.64a.608.608 0 0 0-.609-.608h-.288a.63.63 0 0 0-.607.608v.64Zm.895-12.32c-.16 0-.511.033-.511.257 0 .288.8.992 1.215.992.48 0 1.472-.768 1.472-1.024 0-.224-.48-.224-.8-.224h-1.376Z"/></g></g></g></svg>