<svg xmlns="http://www.w3.org/2000/svg" width="492" height="56"><defs><clipPath id="e"><path fill="none" d="M0 0h492v56H0z"/></clipPath><style>.f{fill:#fff}</style></defs><g id="b"><g id="c"><g clip-path="url(#e)" id="d"><path class="f" d="M46.36 49.136c-3.09 0-5.511-2.422-5.511-5.512V12.712c0-3.09 2.421-5.512 5.512-5.512h11.703c9.847 0 16.209 5.79 16.209 14.752v.111c0 9.098-6.692 14.977-17.048 14.977h-5.352v6.584c0 3.09-2.421 5.511-5.512 5.511Zm11.145-22.168c3.42 0 5.631-1.86 5.631-4.736v-.112c0-3.915-3.154-4.736-5.8-4.736h-5.463v9.584h5.632ZM119.945 49.136c-2.077 0-3.778-.884-5.201-2.7l-8.037-10.18h-5.106v7.368c0 3.09-2.421 5.511-5.512 5.511s-5.512-2.42-5.512-5.511V12.712c0-3.09 2.421-5.512 5.512-5.512h13.608c5.198 0 9.441 1.496 12.272 4.327 2.428 2.428 3.712 5.82 3.712 9.809v.112c0 5.657-2.458 9.899-7.13 12.36l5.009 6.085c.854 1.082 1.672 2.27 1.672 4.066 0 3.24-2.688 5.177-5.287 5.177Zm-10.808-22.897c3.386 0 5.407-1.624 5.407-4.343v-.112c0-3.637-3.032-4.4-5.575-4.4H101.6v8.855h7.536ZM150.969 49.136c-3.092 0-5.513-2.422-5.513-5.512V12.376c0-3.09 2.421-5.512 5.513-5.512 3.09 0 5.511 2.421 5.511 5.512v31.248c0 3.09-2.42 5.511-5.511 5.511ZM195.545 49.416c-2.728 0-4.85-1.474-5.978-4.15l-12.713-30.412c-.295-.708-.597-1.561-.597-2.534 0-3.06 2.421-5.456 5.513-5.456 2.554 0 4.554 1.382 5.486 3.79l8.68 22.472 8.793-22.751c.703-1.754 2.6-3.511 5.264-3.511 3.06 0 5.456 2.347 5.456 5.344 0 1.041-.386 2.02-.552 2.392l-12.813 30.662c-1.128 2.68-3.25 4.154-5.979 4.154h-.56ZM239.001 49.136c-3.091 0-5.513-2.422-5.513-5.512V12.376c0-3.09 2.422-5.512 5.513-5.512 3.09 0 5.512 2.421 5.512 5.512v31.248c0 3.09-2.422 5.511-5.512 5.511ZM270.865 48.8c-3.09 0-5.511-2.422-5.511-5.512V12.376c0-3.09 2.42-5.512 5.511-5.512 3.092 0 5.513 2.421 5.513 5.512V38.56h14.76c2.823 0 5.12 2.296 5.12 5.12s-2.297 5.12-5.12 5.12h-20.273ZM318.968 48.8c-3.091 0-5.512-2.422-5.512-5.512V12.712c0-3.09 2.42-5.512 5.512-5.512h21.728a5.07 5.07 0 0 1 5.064 5.064c0 2.761-2.272 5.008-5.064 5.008h-16.272v5.552h13.752a5.07 5.07 0 0 1 5.064 5.064c0 2.761-2.272 5.008-5.064 5.008h-13.752v5.832h16.552a5.07 5.07 0 0 1 5.064 5.064c0 2.761-2.272 5.008-5.064 5.008h-22.008ZM383.928 49.471c-12.637 0-21.809-8.982-21.809-21.36V28c0-12.04 9.555-21.472 21.752-21.472 5.824 0 10.032 1.203 14.072 4.024.709.52 2.305 1.96 2.305 4.456a5.463 5.463 0 0 1-5.457 5.456c-1.587 0-2.617-.602-3.338-1.126-2.409-1.721-4.763-2.458-7.861-2.458-5.545 0-10.056 4.938-10.056 11.008V28c0 6.508 4.488 11.232 10.671 11.232 2.672 0 5.05-.618 6.92-1.791v-3.762h-4.623c-2.73 0-4.952-2.196-4.952-4.895a4.958 4.958 0 0 1 4.952-4.952h9.855c3.092 0 5.513 2.42 5.513 5.512v9.52c0 2.942-1.182 5.074-3.611 6.52-4.414 2.709-9.241 4.087-14.333 4.087ZM426.15 48.8c-3.09 0-5.511-2.422-5.511-5.512V12.712c0-3.09 2.42-5.512 5.511-5.512h21.729a5.07 5.07 0 0 1 5.063 5.064c0 2.761-2.271 5.008-5.063 5.008h-16.273v5.552h13.752a5.07 5.07 0 0 1 5.065 5.064c0 2.761-2.272 5.008-5.065 5.008h-13.752v5.832h16.552a5.07 5.07 0 0 1 5.065 5.064c0 2.761-2.272 5.008-5.065 5.008H426.15Z"/></g></g></g></svg>