<svg xmlns="http://www.w3.org/2000/svg" width="492" height="56"><defs><clipPath id="e"><path fill="none" d="M0 0h492v56H0z"/></clipPath><style>.f{fill:#fff}</style></defs><g id="b"><g id="c"><g clip-path="url(#e)" id="d"><path class="f" d="M162.673 49.136c-3.009 0-5.457-2.473-5.457-5.512V28.133l-5.353 8.248c-1.21 1.816-2.752 2.73-4.59 2.73s-3.381-.914-4.583-2.718l-5.25-8.091v15.434c0 2.977-2.447 5.4-5.456 5.4-3.028 0-5.4-2.372-5.4-5.4V12.488c0-3.091 2.421-5.512 5.513-5.512h.952c2.083 0 3.84 1 4.945 2.816l9.392 15.3 9.448-15.36c1.125-1.83 2.769-2.756 4.887-2.756h.952c3.09 0 5.512 2.421 5.512 5.512v31.136c0 3.09-2.422 5.511-5.512 5.511ZM207.192 49.471c-12.528 0-21.976-9.182-21.976-21.36V28c0-12.04 9.702-21.472 22.088-21.472 12.529 0 21.976 9.182 21.976 21.36V28c0 12.04-9.702 21.471-22.088 21.471Zm0-32.591c-6.02 0-10.56 4.732-10.56 11.008V28c0 6.34 4.588 11.12 10.672 11.12 6.02 0 10.56-4.733 10.56-11.008V28c0-6.34-4.588-11.12-10.672-11.12ZM262.855 49.416c-2.727 0-4.85-1.474-5.978-4.15l-12.712-30.412c-.296-.708-.598-1.561-.598-2.534 0-3.06 2.422-5.456 5.513-5.456 2.554 0 4.554 1.382 5.486 3.79l8.681 22.472 8.793-22.751c.702-1.754 2.599-3.511 5.264-3.511 3.06 0 5.456 2.347 5.456 5.344 0 1.041-.386 2.02-.552 2.392l-12.813 30.662c-1.128 2.68-3.251 4.154-5.979 4.154h-.56ZM307.433 49.136c-3.092 0-5.513-2.422-5.513-5.512V12.376c0-3.09 2.421-5.512 5.513-5.512 3.09 0 5.511 2.421 5.511 5.512v31.248c0 3.09-2.421 5.511-5.511 5.511ZM340.415 48.8c-3.09 0-5.512-2.422-5.512-5.512V12.712c0-3.09 2.421-5.512 5.512-5.512h21.729a5.07 5.07 0 0 1 5.063 5.064c0 2.761-2.271 5.008-5.063 5.008H345.87v5.552h13.752a5.07 5.07 0 0 1 5.064 5.064c0 2.761-2.271 5.008-5.064 5.008h-13.752v5.832h16.552a5.07 5.07 0 0 1 5.064 5.064c0 2.761-2.272 5.008-5.064 5.008h-22.008Z"/></g></g></g></svg>