<svg xmlns="http://www.w3.org/2000/svg" width="492" height="56"><defs><clipPath id="e"><path fill="none" d="M0 0h492v56H0z"/></clipPath><style>.f{fill:#fff}</style></defs><g id="b"><g id="c"><g clip-path="url(#e)" id="d"><path class="f" d="M151.081 49.136c-2.342 0-4.204-1.31-5.243-3.688l-2.325-5.44H127.85l-2.434 5.71c-.929 2.143-2.827 3.417-5.08 3.417-2.902 0-5.176-2.298-5.176-5.231 0-.882.31-1.68.612-2.345l13.66-30.845c1.174-2.627 3.41-4.13 6.136-4.13h.504c2.73 0 4.89 1.465 6.08 4.126l13.665 30.86c.374.823.551 1.532.551 2.222 0 2.996-2.323 5.343-5.288 5.343Zm-11.773-19.144-3.627-8.637-3.627 8.637h7.254ZM179.136 48.8c-3.09 0-5.512-2.422-5.512-5.512V12.712c0-3.091 2.421-5.512 5.512-5.512h13.888c4.759 0 8.596 1.322 11.096 3.823 2.017 2.016 3.04 4.544 3.04 7.513v.112c0 3.466-1.27 6.18-3.872 8.244 4.17 2.143 6.056 5.249 6.056 9.844v.112c0 7.484-5.934 11.952-15.872 11.952h-14.336Zm14.336-9.96c4.904 0 4.904-2.3 4.904-3.056v-.112c0-.756 0-3.057-5.184-3.057h-8.768v6.225h9.048Zm-2.296-15.792c5.015 0 5.015-2.216 5.015-2.944v-.112c0-1.88-1.499-2.832-4.455-2.832h-7.312v5.888h6.752ZM247.736 49.471c-12.528 0-21.976-9.182-21.976-21.36V28c0-12.04 9.702-21.472 22.088-21.472 12.528 0 21.976 9.182 21.976 21.36V28c0 12.04-9.702 21.471-22.088 21.471Zm0-32.591c-6.02 0-10.56 4.732-10.56 11.008V28c0 6.34 4.588 11.12 10.672 11.12 6.02 0 10.56-4.733 10.56-11.008V28c0-6.34-4.588-11.12-10.672-11.12ZM306.087 49.416c-11.546 0-18.168-6.785-18.168-18.616V12.376c0-3.091 2.421-5.512 5.513-5.512 3.09 0 5.511 2.42 5.511 5.512v18.2c0 3.872 1.26 8.488 7.256 8.488s7.256-4.464 7.256-8.209v-18.48c0-3.09 2.421-5.511 5.512-5.511 3.091 0 5.512 2.42 5.512 5.512V30.52c0 12.008-6.704 18.896-18.392 18.896ZM359.51 49.136c-3.09 0-5.511-2.422-5.511-5.512V17.552h-7.088c-2.854 0-5.176-2.322-5.176-5.176s2.322-5.176 5.176-5.176h25.2c2.854 0 5.176 2.322 5.176 5.176s-2.322 5.176-5.176 5.176h-7.088v26.072c0 3.09-2.421 5.512-5.512 5.512Z"/></g></g></g></svg>