<svg xmlns="http://www.w3.org/2000/svg" width="492" height="56"><defs><clipPath id="e"><path fill="none" d="M0 0h492v56H0z"/></clipPath><style>.f{fill:#fff}</style></defs><g id="b"><g id="c"><g clip-path="url(#e)" id="d"><path class="f" d="M74.025 49.136c-3.09 0-5.512-2.422-5.512-5.512V12.712c0-3.09 2.422-5.512 5.512-5.512H85.73c9.846 0 16.209 5.79 16.209 14.752v.111c0 9.098-6.692 14.977-17.049 14.977h-5.351v6.584c0 3.09-2.422 5.511-5.513 5.511ZM85.17 26.968c3.421 0 5.632-1.86 5.632-4.736v-.112c0-3.915-3.154-4.736-5.8-4.736h-5.463v9.584h5.631ZM150.354 49.136c-2.342 0-4.204-1.31-5.244-3.687l-2.325-5.441h-15.663l-2.433 5.71c-.928 2.142-2.826 3.417-5.08 3.417-2.902 0-5.176-2.298-5.176-5.231 0-.88.31-1.679.611-2.344l13.66-30.846c1.175-2.627 3.41-4.13 6.137-4.13h.504c2.73 0 4.889 1.465 6.08 4.125l13.665 30.86c.375.824.552 1.533.552 2.222 0 2.997-2.323 5.344-5.288 5.344ZM138.58 29.992l-3.627-8.637-3.626 8.637h7.253ZM191.345 49.471c-11.947 0-21.305-9.382-21.305-21.36V28c0-12.241 9.304-21.472 21.64-21.472 5.551 0 9.942 1.338 13.819 4.212 1.357 1.018 2.165 2.654 2.165 4.38 0 2.977-2.448 5.4-5.456 5.4-1.412 0-2.382-.494-3.22-1.029-2.421-1.797-4.738-2.611-7.364-2.611-5.796 0-10.167 4.732-10.167 11.008V28c0 6.34 4.37 11.12 10.167 11.12 3.502 0 5.638-1.127 7.766-2.82a5.223 5.223 0 0 1 3.322-1.212c2.885 0 5.232 2.322 5.232 5.176 0 1.515-.683 2.97-1.875 3.991-4.13 3.605-8.673 5.216-14.724 5.216ZM257.255 49.136c-2.316 0-3.62-1.283-4.59-2.538l-10.4-13.626-3.578 3.334v7.318c0 3.09-2.42 5.511-5.512 5.511-3.09 0-5.512-2.42-5.512-5.511V12.376c0-3.09 2.421-5.512 5.512-5.512 3.091 0 5.512 2.421 5.512 5.512v10.277l13.858-13.76c.943-.944 2.309-2.029 4.486-2.029 2.95 0 5.176 2.225 5.176 5.176 0 1.54-.636 2.888-1.945 4.121l-10.225 9.55 11.35 14.253c.667.836 1.436 2.022 1.436 3.772 0 3.078-2.394 5.4-5.568 5.4ZM315.326 49.136c-2.34 0-4.202-1.31-5.243-3.687l-2.325-5.441h-15.662l-2.433 5.71c-.928 2.142-2.826 3.417-5.08 3.417-2.903 0-5.177-2.298-5.177-5.231 0-.878.31-1.677.612-2.344l13.66-30.846c1.175-2.627 3.41-4.13 6.136-4.13h.504c2.73 0 4.89 1.465 6.08 4.125l13.666 30.86c.374.824.551 1.533.551 2.222 0 2.997-2.323 5.344-5.289 5.344Zm-11.773-19.144-3.626-8.637-3.627 8.637h7.253ZM356.263 49.471c-12.637 0-21.809-8.982-21.809-21.36V28c0-12.04 9.555-21.472 21.752-21.472 5.824 0 10.032 1.203 14.072 4.024.709.52 2.305 1.96 2.305 4.456a5.463 5.463 0 0 1-5.457 5.456c-1.587 0-2.617-.602-3.338-1.126-2.41-1.721-4.763-2.458-7.861-2.458-5.545 0-10.056 4.938-10.056 11.008V28c0 6.508 4.488 11.232 10.671 11.232 2.672 0 5.05-.618 6.92-1.791v-3.762h-4.623c-2.731 0-4.953-2.196-4.953-4.895a4.958 4.958 0 0 1 4.953-4.952h9.855c3.09 0 5.512 2.42 5.512 5.512v9.52c0 2.942-1.181 5.075-3.61 6.52-4.414 2.709-9.241 4.087-14.333 4.087ZM398.486 48.8c-3.09 0-5.511-2.422-5.511-5.512V12.712c0-3.09 2.42-5.512 5.511-5.512h21.729a5.07 5.07 0 0 1 5.063 5.064c0 2.761-2.271 5.008-5.063 5.008h-16.273v5.552h13.752a5.07 5.07 0 0 1 5.065 5.064c0 2.761-2.272 5.008-5.065 5.008h-13.752v5.832h16.552a5.07 5.07 0 0 1 5.065 5.064c0 2.761-2.272 5.008-5.065 5.008h-22.008Z"/></g></g></g></svg>