<svg xmlns="http://www.w3.org/2000/svg" width="492" height="56"><defs><clipPath id="e"><path fill="none" d="M0 0h492v56H0z"/></clipPath><style>.f{fill:#fff}</style></defs><g id="b"><g id="c"><g clip-path="url(#e)" id="d"><path class="f" d="M171.017 49.471c-11.947 0-21.305-9.382-21.305-21.36V28c0-12.241 9.304-21.472 21.64-21.472 5.551 0 9.942 1.338 13.819 4.212 1.357 1.018 2.165 2.654 2.165 4.38 0 2.977-2.448 5.4-5.456 5.4-1.412 0-2.382-.494-3.22-1.029-2.421-1.797-4.738-2.611-7.364-2.611-5.796 0-10.167 4.732-10.167 11.008V28c0 6.34 4.37 11.12 10.167 11.12 3.502 0 5.638-1.127 7.766-2.82a5.223 5.223 0 0 1 3.322-1.212c2.885 0 5.232 2.322 5.232 5.176 0 1.515-.683 2.97-1.875 3.991-4.13 3.605-8.673 5.216-14.724 5.216ZM238.328 49.136c-2.341 0-4.203-1.31-5.244-3.687l-2.325-5.441h-15.662l-2.433 5.71c-.928 2.142-2.826 3.417-5.08 3.417-2.903 0-5.177-2.298-5.177-5.231 0-.878.31-1.677.612-2.344l13.66-30.846c1.175-2.627 3.41-4.13 6.136-4.13h.504c2.73 0 4.89 1.465 6.08 4.125l13.666 30.86c.374.824.551 1.533.551 2.222 0 2.997-2.323 5.344-5.288 5.344Zm-11.774-19.144-3.626-8.637-3.627 8.637h7.253ZM276.574 49.36c-5.52 0-11-1.75-15.427-4.93-1.307-.922-2.125-2.542-2.125-4.222 0-2.903 2.299-5.177 5.233-5.177 1.16 0 2.19.328 3.152 1.002 3.035 2.233 6.081 3.31 9.335 3.31 1.046 0 4.456-.18 4.456-2.495v-.112c0-1.043 0-2.029-6.993-3.822-7.601-1.94-13.894-4.269-13.894-13.146v-.112c0-7.664 6.135-13.016 14.92-13.016 4.852 0 9.25 1.23 13.075 3.658 1.172.69 2.46 2.231 2.46 4.43 0 2.902-2.298 5.176-5.232 5.176-.99 0-1.876-.248-2.788-.78-2.825-1.662-5.318-2.468-7.627-2.468-2.332 0-3.84.87-3.84 2.216v.112c0 1.522.619 2.213 7.554 3.99 6.928 1.804 13.334 4.618 13.334 12.921v.113c0 8.11-6.12 13.352-15.593 13.352ZM325.91 49.136c-3.09 0-5.512-2.422-5.512-5.512V17.552h-7.087a5.182 5.182 0 0 1-5.176-5.176A5.182 5.182 0 0 1 313.31 7.2h25.2a5.182 5.182 0 0 1 5.176 5.176 5.182 5.182 0 0 1-5.176 5.176h-7.088v26.072c0 3.09-2.422 5.511-5.513 5.511Z"/></g></g></g></svg>