<svg xmlns="http://www.w3.org/2000/svg" width="350" height="84"><defs><clipPath id="e"><path fill="none" d="M0 0h350v84H0z"/></clipPath><style>.h{fill:#542e14}</style></defs><g id="b"><g id="c"><g clip-path="url(#e)" id="d"><path class="h" d="m79.347 39.1.046-11.961h2.253c1.15 0 2.07-.875 2.07-2.025v-4.232c0-1.15-.92-2.025-2.07-2.025h-2.253V6.896H97.38l2.577 8.418c.552 1.795.69 4.28.69 5.751h.965c0-1.471.185-3.956.69-5.75l2.623-8.42h17.942v11.962h-2.254c-1.15 0-2.07.874-2.07 2.025v4.232c0 1.15.92 2.025 2.07 2.025h2.254v11.96H103.96V27.277h.92c1.15 0 2.07-.874 2.07-2.024v-1.15c0-1.703-.092-3.266.277-4.647l-.92-.23c-.368 1.518-.921 3.037-1.565 4.693l-2.208 5.475-2.806-.046-2.163-5.429c-.782-2.07-1.196-3.313-1.564-4.692l-.92.23c.368 1.38.23 2.943.23 4.646v1.15c0 1.15.966 2.024 2.07 2.024h.967V39.1h-19ZM126.312 22.998c0-9.432 6.21-16.792 18.678-16.792 12.513 0 18.678 7.36 18.678 16.792 0 9.477-6.165 16.792-18.678 16.792-12.468 0-18.678-7.315-18.678-16.792Zm24.613 0c0-2.669-2.07-4.692-5.935-4.692-3.957 0-5.981 2.023-5.981 4.692 0 2.714 2.024 4.738 5.981 4.738 3.864 0 5.935-2.024 5.935-4.738ZM177.557 39.1l-6.625-18.678c-.323-.967-1.288-1.565-2.254-1.565h-2.255V6.896h18.908v11.961h-.92c-1.15 0-1.426.874-1.104 1.748l1.795 4.693c.46 1.104.828 2.162.92 3.266h.782c.092-1.15.69-2.622.92-3.266l1.794-4.693c.368-.874.045-1.748-1.105-1.748h-.92V6.896h18.908v11.961h-2.254c-.965 0-1.886.598-2.253 1.565L195.269 39.1h-17.712ZM230.64 27.092V39.1h-19.965V27.092h2.162c1.15 0 2.023-.874 2.023-2.024v-4.14c0-1.15-.874-2.025-2.023-2.025h-2.162V6.896h19.966v12.007h-2.07c-1.151 0-2.071.874-2.071 2.025v4.14c0 1.15.92 2.024 2.07 2.024h2.07ZM259.115 23.918H270.8V39.1h-35.7V27.139h2.3c1.105 0 2.07-.875 2.07-2.025v-4.232c0-1.15-.965-2.025-2.07-2.025h-2.116V6.896h13.894c5.98 0 8.373 3.497 8.373 9.293h.828V6.896h11.731v15.182h-11.685v-.967c0-1.425-.966-2.254-2.116-2.254h-5.246v2.807h2.025c.967 0 1.334-.507 1.334-1.473v-.183h2.163v6.026h-2.163v-.184c0-.966-.367-1.426-1.334-1.426h-2.025v2.715H257c1.15 0 2.116-.828 2.116-2.255v-.966ZM146.78 68.84c.053.018.107.054.161.072.27.108.558.216.558.397 0 .107-.144.18-.234.233-.324.162-.504.504-.684.828-.036.055-.072.126-.108.18-1.117 2.054-2.09 4.16-3.187 6.23-.055.109-.09.162-.09.288 0 .18.144.325.342.325.09 0 .288-.018.432-.037.99-.09 1.999-.198 3.007-.305.36-.036.667-.072.667-.343 0-.126-.126-.288-.253-.414-.36-.378-.756-.72-1.134-1.063-.109-.107-.198-.197-.198-.341 0-.306.594-.81.828-1.008.343-.324.666-.649.936-.649.198 0 .36.126.487.252.81.72 1.872 1.872 2.574 2.702.379.45 2.035 2.43 2.035 2.898 0 .414-.522.828-.828 1.062-.27.216-.775.63-1.135.63-.234 0-.414-.305-.756-.882a5.957 5.957 0 0 1-.216-.36c-.144-.198-.289-.36-.558-.36-.054 0-.72.09-.828.108-1.135.126-8.57 1.027-9.183 1.134-.198.036-.288.09-.396.253-.073.071-.126.143-.235.143-.216 0-.288-.341-.378-.72-.143-.594-.252-1.188-.395-1.764a1.924 1.924 0 0 1-.055-.45c0-.252.234-.252.414-.252.198 0 .397.018.595.018h.342c.702 0 .738-.073 1.26-1.153.108-.234.252-.504.414-.828.72-1.423 2.917-5.941 3.332-7.256.053-.198.107-.396.341-.396.27 0 1.783.666 2.125.828ZM169.243 73.323c1.063 0 2.215-.072 2.377-.072.468 0 .54.198.54.72v.865c0 .99-.017 1.296-.594 1.296-.702 0-1.53-.054-2.323-.054h-8.282c-.792 0-1.639.054-2.305.054-.612 0-.612-.342-.612-1.296v-.828c0-.54.055-.757.522-.757.252 0 1.261.072 2.395.072h8.282ZM182.129 76.87c0 1.692.018 1.729 1.98 1.729 1.658 0 4.79-.036 6.338-.36a1.08 1.08 0 0 1 .235-.036c.432 0 .468.648.468 1.188v.379c0 .792-.036 1.188-.684 1.278-1.116.162-5.186.216-6.483.216-1.26 0-3.348-.018-4.104-1.117-.505-.738-.54-2.25-.54-3.132v-6.033c0-.774 0-1.908-.072-2.665v-.143c0-.162.162-.216.252-.216.252 0 2.214.378 2.665.45.143.018.324.072.324.234 0 .072-.055.126-.127.198-.126.108-.252.27-.252.756v2.845c0 .252.162.414.414.414.559 0 1.747-.216 2.9-.558a18.622 18.622 0 0 0 3.186-1.368c.072-.036.217-.109.288-.109.27 0 1.099 1.387 1.585 2.198.09.162.144.288.144.341 0 .144-.18.163-.289.163-.09 0-.252-.019-.341-.019-.306 0-.559.108-.775.198-2.034.883-4.231 1.549-6.464 1.711-.215.018-.612.018-.648.504v.954Zm9.76-6.122c0 .36-.973.937-1.153.937-.108 0-.198-.144-.27-.252-.433-.666-.72-1.008-1.206-1.62-.036-.055-.091-.126-.091-.199 0-.288 1.026-.81 1.188-.81.199 0 1.532 1.71 1.532 1.944Zm1.998-1.242c0 .343-.954.936-1.135.936-.107 0-.216-.143-.414-.45-.306-.45-.684-.918-1.044-1.35-.054-.072-.144-.163-.144-.234 0-.306 1.026-.846 1.188-.846.198 0 1.549 1.71 1.549 1.944ZM208.844 73.323c1.062 0 2.215-.072 2.377-.072.468 0 .54.198.54.72v.865c0 .99-.018 1.296-.594 1.296-.702 0-1.53-.054-2.323-.054h-8.282c-.792 0-1.64.054-2.305.054-.612 0-.612-.342-.612-1.296v-.828c0-.54.054-.757.522-.757.252 0 1.26.072 2.395.072h8.282ZM241.75 70.5l-2.653 2.637a3.716 3.716 0 0 0 0 5.273 3.773 3.773 0 0 0 5.306 0 3.716 3.716 0 0 0 0-5.273L241.75 70.5ZM108.25 70.5l-2.653 2.637a3.716 3.716 0 0 0 0 5.273 3.773 3.773 0 0 0 5.306 0 3.716 3.716 0 0 0 0-5.273L108.25 70.5Z"/></g></g></g></svg>