<svg xmlns="http://www.w3.org/2000/svg" width="912" height="144"><defs><clipPath id="e"><path fill="none" d="M0 0h912v144H0z"/></clipPath><style>.f{fill:#4e2709}</style></defs><g id="b"><g id="c"><g clip-path="url(#e)" id="d"><path class="f" d="m257.81 81.6.096-24.96h4.703c2.4 0 4.32-1.824 4.32-4.223v-8.831c0-2.4-1.92-4.224-4.32-4.224h-4.703V14.404h37.533l5.376 17.567c1.152 3.744 1.44 8.927 1.44 11.999h2.016c0-3.072.383-8.255 1.44-12l5.471-17.566h37.437v24.958h-4.703c-2.4 0-4.32 1.824-4.32 4.224v8.831c0 2.4 1.92 4.224 4.32 4.224h4.703V81.6h-39.453V56.929h1.92c2.4 0 4.32-1.824 4.32-4.224v-2.4c0-3.551-.192-6.815.575-9.696l-1.919-.48c-.768 3.169-1.92 6.337-3.264 9.793l-4.608 11.423-5.855-.097-4.512-11.326c-1.632-4.32-2.496-6.912-3.263-9.792l-1.92.48c.767 2.88.48 6.144.48 9.695v2.4c0 2.4 2.015 4.224 4.319 4.224h2.016v24.67H257.81ZM355.826 48.002c0-19.68 12.959-35.038 38.973-35.038 26.11 0 38.973 15.358 38.973 35.038 0 19.774-12.863 35.037-38.973 35.037-26.014 0-38.973-15.263-38.973-35.037Zm51.356 0c0-5.568-4.32-9.791-12.383-9.791-8.256 0-12.48 4.223-12.48 9.791 0 5.663 4.224 9.887 12.48 9.887 8.063 0 12.383-4.224 12.383-9.887ZM460.848 81.6l-13.824-38.974c-.672-2.017-2.688-3.264-4.704-3.264h-4.703V14.404h39.453v24.958h-1.92c-2.4 0-2.975 1.824-2.303 3.648l3.743 9.79c.96 2.305 1.728 4.513 1.92 6.817h1.632c.192-2.4 1.44-5.472 1.92-6.816l3.744-9.791c.767-1.824.095-3.648-2.304-3.648h-1.92V14.404h39.453v24.958h-4.704a5.055 5.055 0 0 0-4.703 3.264L497.805 81.6h-36.957ZM571.63 56.545V81.6h-41.661V56.545h4.511c2.4 0 4.224-1.824 4.224-4.224v-8.64c0-2.399-1.824-4.223-4.224-4.223h-4.511V14.404h41.66v25.054h-4.32c-2.399 0-4.319 1.824-4.319 4.224v8.64c0 2.399 1.92 4.223 4.32 4.223h4.32ZM631.053 49.922h24.382V81.6h-74.49V56.64h4.8c2.303 0 4.318-1.824 4.318-4.223v-8.831c0-2.4-2.015-4.224-4.319-4.224h-4.416V14.404h28.99c12.479 0 17.471 7.295 17.471 19.39h1.728v-19.39h24.478v31.678h-24.383v-2.016c0-2.976-2.015-4.704-4.415-4.704h-10.943v5.856h4.224c2.015 0 2.784-1.056 2.784-3.072v-.384h4.51v12.575h-4.51v-.384c0-2.015-.769-2.975-2.784-2.975h-4.224v5.663h12.383c2.4 0 4.416-1.728 4.416-4.703v-2.016ZM418.849 123.791c.072.023.144.072.216.096.36.144.745.288.745.527 0 .145-.193.24-.313.313-.432.216-.672.671-.912 1.103-.048.072-.096.169-.144.24-1.488 2.737-2.784 5.545-4.249 8.305-.07.145-.12.217-.12.385 0 .24.193.431.456.431.12 0 .385-.023.576-.047 1.32-.12 2.665-.265 4.01-.409.479-.047.887-.095.887-.456 0-.168-.168-.383-.336-.551-.48-.504-1.008-.96-1.512-1.416-.144-.144-.264-.265-.264-.457 0-.408.792-1.08 1.104-1.343.456-.433.888-.866 1.248-.866.264 0 .48.168.649.336 1.08.961 2.496 2.498 3.431 3.602.504.6 2.713 3.24 2.713 3.863 0 .553-.696 1.105-1.104 1.416-.36.29-1.033.841-1.512.841-.313 0-.553-.408-1.009-1.177-.096-.143-.191-.311-.288-.48-.191-.264-.384-.479-.744-.479-.071 0-.96.12-1.104.144-1.512.168-11.424 1.368-12.24 1.513-.264.047-.385.119-.53.336-.095.095-.167.191-.31.191-.289 0-.384-.456-.505-.96-.192-.792-.335-1.584-.528-2.353a2.568 2.568 0 0 1-.072-.6c0-.335.312-.335.552-.335.264 0 .528.023.793.023h.456c.935 0 .983-.095 1.68-1.535.143-.312.335-.673.551-1.105.96-1.896 3.889-7.92 4.44-9.672.073-.264.145-.528.457-.528.36 0 2.376.887 2.832 1.104ZM448.802 129.768c1.416 0 2.952-.097 3.168-.097.624 0 .72.265.72.96v1.152c0 1.32-.024 1.729-.792 1.729-.936 0-2.04-.073-3.096-.073H437.76c-1.056 0-2.185.073-3.073.073-.816 0-.816-.457-.816-1.729v-1.103c0-.721.072-1.01.696-1.01.336 0 1.681.098 3.193.098h11.04ZM465.984 134.496c0 2.256.025 2.304 2.641 2.304 2.208 0 6.384-.048 8.448-.48.096-.024.216-.049.313-.049.576 0 .624.865.624 1.584v.504c0 1.057-.048 1.584-.912 1.705-1.489.216-6.913.288-8.641.288-1.68 0-4.465-.024-5.473-1.489-.672-.983-.72-3-.72-4.175v-8.042c0-1.03 0-2.543-.096-3.551v-.193c0-.215.216-.287.336-.287.336 0 2.952.504 3.553.6.191.023.431.096.431.311 0 .097-.072.17-.168.265-.168.144-.336.36-.336 1.008v3.792c0 .337.216.552.552.552.744 0 2.328-.288 3.864-.745a24.73 24.73 0 0 0 4.25-1.824c.095-.047.287-.143.383-.143.36 0 1.464 1.848 2.112 2.928.12.216.192.384.192.455 0 .194-.24.217-.384.217-.12 0-.336-.023-.456-.023-.408 0-.744.143-1.032.263-2.712 1.176-5.64 2.065-8.616 2.28-.288.024-.817.024-.865.673v1.272Zm13.01-8.161c0 .48-1.297 1.248-1.537 1.248-.144 0-.264-.192-.36-.336-.576-.888-.96-1.345-1.608-2.16-.048-.072-.12-.168-.12-.265 0-.384 1.368-1.08 1.584-1.08.265 0 2.04 2.281 2.04 2.593Zm2.664-1.656c0 .456-1.272 1.248-1.512 1.248-.144 0-.289-.193-.552-.6-.408-.6-.912-1.224-1.393-1.8-.071-.096-.191-.216-.191-.312 0-.408 1.368-1.13 1.584-1.13.263 0 2.064 2.282 2.064 2.594ZM501.602 129.768c1.416 0 2.952-.097 3.168-.097.624 0 .72.265.72.96v1.152c0 1.32-.024 1.729-.792 1.729-.936 0-2.04-.073-3.096-.073H490.56c-1.056 0-2.185.073-3.073.073-.816 0-.816-.457-.816-1.729v-1.103c0-.721.072-1.01.696-1.01.336 0 1.68.098 3.193.098h11.04ZM545 126l-3.537 3.515a4.955 4.955 0 0 0 0 7.032 5.03 5.03 0 0 0 7.074 0 4.955 4.955 0 0 0 0-7.032L545 126ZM367 126l-3.537 3.515a4.955 4.955 0 0 0 0 7.032 5.03 5.03 0 0 0 7.074 0 4.955 4.955 0 0 0 0-7.032L367 126Z"/></g></g></g></svg>