<?xml version="1.0" encoding="UTF-8"?><svg id="_レイヤー_2" xmlns="http://www.w3.org/2000/svg" width="660" height="60" xmlns:xlink="http://www.w3.org/1999/xlink" viewBox="0 0 660 60"><defs><style>.cls-1{fill:none;}.cls-2{clip-path:url(#clippath);}.cls-3{fill:#ff6024;}</style><clipPath id="clippath"><rect class="cls-1" width="660" height="60"/></clipPath></defs><g id="Layout"><g id="design_mid"><g class="cls-2"><g><path class="cls-3" d="M4.74,28.34C4.74,14.23,12.01,3.71,25.19,3.71c9.65,0,15.77,5.54,15.77,15.27h1.51V4.79h18.58V29.56h-18.07c.07-4.1-2.66-7.13-8.93-7.13-5.83,0-8.71,2.59-8.71,6.62,0,5.26,4.82,8.42,15.7,8.42,7.71,0,14.19-1.58,20.02-4.82v19.8c-5.4,2.45-12.82,3.82-21.31,3.82-21.31,0-35-8.5-35-27.94Z"/><path class="cls-3" d="M67.38,30c0-14.76,9.72-26.28,29.23-26.28s29.23,11.52,29.23,26.28-9.65,26.28-29.23,26.28-29.23-11.45-29.23-26.28Zm38.52,0c0-4.18-3.24-7.34-9.29-7.34s-9.36,3.17-9.36,7.34,3.17,7.42,9.36,7.42,9.29-3.17,9.29-7.42Z"/><path class="cls-3" d="M131.82,55.2l.07-18.72h3.53c1.8,0,3.24-1.37,3.24-3.17v-6.62c0-1.8-1.44-3.17-3.24-3.17h-3.53V4.79h28.15l4.03,13.18c.86,2.81,1.08,6.7,1.08,9h1.51c0-2.3,.29-6.19,1.08-9l4.1-13.18h28.08V23.52h-3.53c-1.8,0-3.24,1.37-3.24,3.17v6.62c0,1.8,1.44,3.17,3.24,3.17h3.53v18.72h-29.59v-18.51h1.44c1.8,0,3.24-1.37,3.24-3.17v-1.8c0-2.67-.14-5.11,.43-7.27l-1.44-.36c-.58,2.38-1.44,4.75-2.45,7.34l-3.46,8.57-4.39-.07-3.38-8.5c-1.22-3.24-1.87-5.18-2.45-7.34l-1.44,.36c.58,2.16,.36,4.61,.36,7.27v1.8c0,1.8,1.51,3.17,3.24,3.17h1.51v18.51h-29.74Z"/><path class="cls-3" d="M238.17,36.4v18.79h-31.25v-18.79h3.38c1.8,0,3.17-1.37,3.17-3.17v-6.48c0-1.8-1.37-3.17-3.17-3.17h-3.38V4.79h31.25V23.59h-3.24c-1.8,0-3.24,1.37-3.24,3.17v6.48c0,1.8,1.44,3.17,3.24,3.17h3.24Z"/><path class="cls-3" d="M274.53,36.48v18.72h-29.38v-18.72h3.6c1.8,0,3.24-1.37,3.24-3.17v-6.62c0-1.8-1.44-3.17-3.24-3.17h-3.6V4.79h25.71l10.15,24.41c1.44,3.02,1.66,5.4,1.73,8.21h1.66v-10.73c0-1.8-1.44-3.17-3.24-3.17h-1.15V4.79h29.38V23.52h-3.6c-1.73,0-3.17,1.37-3.17,3.17v6.62c0,1.8,1.44,3.17,3.17,3.17h3.6v18.72h-25.63l-10.08-24.41c-1.51-3.17-1.58-5.4-1.66-8.21h-1.87v10.73c0,1.8,1.44,3.17,3.24,3.17h1.15Z"/><path class="cls-3" d="M315.42,28.34c0-14.11,7.2-24.63,20.38-24.63,9.72,0,15.84,5.54,15.84,15.27h1.44V4.79h18.65V27.76h-18.07c0-3.31-2.66-5.33-8.93-5.33-5.9,0-8.79,2.59-8.79,6.62,0,5.26,2.88,8.57,13.11,8.57,1.8,0,3.1-.22,5.04-.72v-3.24h-8.57v-3.6h26.43v20.74c-5.98,3.38-13.25,5.47-21.82,5.47-21.1,0-34.71-8.5-34.71-27.94Z"/><path class="cls-3" d="M401.03,50.88V29.56c5.54,4.82,17.21,7.99,27.72,7.99,4.54,0,8.06-.65,8.06-2.45,0-6.41-35.79,3.02-35.79-17.86,0-8.93,7.13-13.54,16.63-13.54,10.87,0,18.22,6.26,18.22,15.62h1.37l.07-14.54h18.29V27.98l-17.93-.07c0-3.46-4.9-5.18-9.94-5.18-4.03,0-6.7,1.01-6.7,2.81,0,6.55,36.22-1.44,36.22,16.2,0,10.37-13.61,14.54-28.73,14.54-9,0-20.45-2.02-27.51-5.4Z"/><path class="cls-3" d="M462.15,30c0-14.76,9.72-26.28,29.23-26.28s29.23,11.52,29.23,26.28-9.65,26.28-29.23,26.28-29.23-11.45-29.23-26.28Zm38.52,0c0-4.18-3.24-7.34-9.29-7.34s-9.36,3.17-9.36,7.34,3.17,7.42,9.36,7.42,9.29-3.17,9.29-7.42Z"/><path class="cls-3" d="M525.73,30c0-14.76,9.72-26.28,29.23-26.28s29.23,11.52,29.23,26.28-9.65,26.28-29.23,26.28-29.23-11.45-29.23-26.28Zm38.52,0c0-4.18-3.24-7.34-9.29-7.34s-9.36,3.17-9.36,7.34,3.17,7.42,9.36,7.42,9.29-3.17,9.29-7.42Z"/><path class="cls-3" d="M619.55,36.48v18.72h-29.38v-18.72h3.6c1.8,0,3.24-1.37,3.24-3.17v-6.62c0-1.8-1.44-3.17-3.24-3.17h-3.6V4.79h25.71l10.15,24.41c1.44,3.02,1.66,5.4,1.73,8.21h1.66v-10.73c0-1.8-1.44-3.17-3.24-3.17h-1.15V4.79h29.38V23.52h-3.6c-1.73,0-3.17,1.37-3.17,3.17v6.62c0,1.8,1.44,3.17,3.17,3.17h3.6v18.72h-25.63l-10.08-24.41c-1.51-3.17-1.58-5.4-1.66-8.21h-1.87v10.73c0,1.8,1.44,3.17,3.24,3.17h1.15Z"/></g><rect class="cls-1" width="660" height="60"/></g></g></g></svg>