<svg xmlns="http://www.w3.org/2000/svg" width="246" height="28"><defs><clipPath id="e"><path fill="none" d="M0 0h246v28H0z"/></clipPath><style>.f{fill:#4e2709}</style></defs><g id="b"><g id="c"><g clip-path="url(#e)" id="d"><path class="f" d="M19.796 24.568c-1.504 0-2.728-1.236-2.728-2.756v-7.746L14.39 18.19c-.605.909-1.376 1.366-2.295 1.366s-1.69-.457-2.291-1.36L7.18 14.152v7.717c0 1.488-1.223 2.7-2.728 2.7a2.671 2.671 0 0 1-2.7-2.7V6.244a2.726 2.726 0 0 1 2.756-2.756h.476c1.041 0 1.92.5 2.473 1.408l4.695 7.65 4.724-7.68c.563-.915 1.385-1.378 2.444-1.378h.476a2.727 2.727 0 0 1 2.756 2.756v15.568a2.727 2.727 0 0 1-2.756 2.756ZM42.056 24.736c-6.264 0-10.989-4.591-10.989-10.68 0-6.077 4.851-10.792 11.044-10.792 6.264 0 10.989 4.591 10.989 10.68 0 6.076-4.851 10.792-11.044 10.792Zm0-16.296c-3.01 0-5.28 2.366-5.28 5.504 0 3.225 2.293 5.616 5.335 5.616 3.01 0 5.28-2.367 5.28-5.504 0-3.226-2.293-5.616-5.335-5.616ZM69.887 24.708c-1.364 0-2.425-.737-2.989-2.075L60.542 7.427c-.148-.354-.299-.78-.299-1.267 0-1.53 1.21-2.728 2.756-2.728 1.277 0 2.277.69 2.744 1.896l4.34 11.235 4.396-11.376a2.843 2.843 0 0 1 2.632-1.755c1.53 0 2.728 1.173 2.728 2.672 0 .518-.193 1.008-.276 1.195L73.157 22.63c-.564 1.34-1.626 2.077-2.99 2.077h-.28ZM92.176 24.568a2.727 2.727 0 0 1-2.757-2.756V6.188c0-1.545 1.211-2.756 2.757-2.756s2.756 1.21 2.756 2.756v15.624a2.726 2.726 0 0 1-2.756 2.756ZM108.667 24.4a2.726 2.726 0 0 1-2.755-2.756V6.356a2.727 2.727 0 0 1 2.755-2.756h10.865a2.535 2.535 0 0 1 2.531 2.532c0 1.38-1.135 2.504-2.531 2.504h-8.136v2.776h6.875a2.535 2.535 0 0 1 2.533 2.532c0 1.38-1.137 2.504-2.533 2.504h-6.875v2.916h8.275a2.535 2.535 0 0 1 2.533 2.532c0 1.38-1.137 2.504-2.533 2.504h-11.004Z"/></g></g></g></svg>