<svg xmlns="http://www.w3.org/2000/svg" width="246" height="28"><defs><clipPath id="e"><path fill="none" d="M0 0h246v28H0z"/></clipPath><style>.f{fill:#4e2709}</style></defs><g id="b"><g id="c"><g clip-path="url(#e)" id="d"><path class="f" d="M18.368 24.568c-1.17 0-2.101-.655-2.622-1.843l-1.162-2.721H6.752l-1.216 2.855c-.464 1.071-1.413 1.709-2.54 1.709-1.451 0-2.588-1.15-2.588-2.616 0-.439.154-.839.305-1.172l6.83-15.423c.587-1.313 1.706-2.065 3.069-2.065h.252c1.365 0 2.445.733 3.04 2.063l6.833 15.43c.187.411.275.766.275 1.111 0 1.498-1.161 2.672-2.644 2.672Zm-5.887-9.572-1.813-4.318-1.813 4.318h3.626ZM32.396 24.4a2.726 2.726 0 0 1-2.756-2.756V6.356A2.727 2.727 0 0 1 32.396 3.6h6.944c2.379 0 4.297.66 5.548 1.912 1.008 1.009 1.52 2.272 1.52 3.756 0 1.779-.636 3.145-1.936 4.178 2.084 1.072 3.028 2.624 3.028 4.922 0 3.798-2.967 6.032-7.937 6.032h-7.168Zm7.167-4.98c2.453 0 2.453-1.15 2.453-1.528 0-.434 0-1.584-2.592-1.584H35.04v3.112h4.523Zm-1.147-7.896c2.507 0 2.507-1.108 2.507-1.472 0-.995-.75-1.472-2.227-1.472H35.04v2.944h3.376ZM66.695 24.736c-6.264 0-10.988-4.591-10.988-10.68 0-6.077 4.851-10.792 11.044-10.792 6.264 0 10.988 4.591 10.988 10.68 0 6.076-4.85 10.792-11.044 10.792Zm0-16.296c-3.01 0-5.28 2.366-5.28 5.504 0 3.225 2.294 5.616 5.336 5.616 3.01 0 5.28-2.367 5.28-5.504 0-3.226-2.294-5.616-5.336-5.616ZM95.87 24.708c-5.772 0-9.083-3.393-9.083-9.308V6.188c0-1.545 1.21-2.756 2.756-2.756s2.756 1.21 2.756 2.756v9.1c0 1.936.63 4.244 3.628 4.244s3.628-2.232 3.628-4.104v-9.24c0-1.545 1.21-2.756 2.756-2.756s2.756 1.21 2.756 2.756v9.072c0 6.004-3.352 9.448-9.196 9.448ZM122.583 24.568a2.726 2.726 0 0 1-2.756-2.756V8.776h-3.544a2.591 2.591 0 0 1-2.588-2.588 2.591 2.591 0 0 1 2.588-2.588h12.6a2.591 2.591 0 0 1 2.588 2.588 2.591 2.591 0 0 1-2.588 2.588h-3.544v13.036a2.727 2.727 0 0 1-2.756 2.756Z"/></g></g></g></svg>