<svg xmlns="http://www.w3.org/2000/svg" width="246" height="28"><defs><clipPath id="e"><path fill="none" d="M0 0h246v28H0z"/></clipPath><style>.f{fill:#4e2709}</style></defs><g id="b"><g id="c"><g clip-path="url(#e)" id="d"><path class="f" d="M11.536 24.736c-5.973 0-10.652-4.692-10.652-10.68 0-6.177 4.652-10.792 10.82-10.792 2.775 0 4.97.67 6.91 2.106a2.742 2.742 0 0 1 1.082 2.19c0 1.489-1.224 2.7-2.728 2.7-.707 0-1.192-.247-1.61-.514-1.21-.899-2.37-1.306-3.682-1.306-2.898 0-5.084 2.366-5.084 5.504 0 3.225 2.186 5.616 5.084 5.616 1.751 0 2.819-.564 3.883-1.41a2.612 2.612 0 0 1 1.66-.606c1.443 0 2.617 1.161 2.617 2.588 0 .758-.342 1.485-.938 1.995-2.064 1.803-4.336 2.609-7.362 2.609ZM45.191 24.568c-1.17 0-2.1-.655-2.621-1.843l-1.162-2.721h-7.832l-1.217 2.855c-.463 1.071-1.412 1.709-2.54 1.709-1.45 0-2.588-1.15-2.588-2.616 0-.439.155-.839.306-1.172l6.83-15.423c.588-1.313 1.706-2.065 3.069-2.065h.251c1.366 0 2.445.733 3.04 2.063l6.834 15.43c.187.411.275.766.275 1.111 0 1.498-1.162 2.672-2.645 2.672Zm-5.886-9.572-1.813-4.318-1.813 4.318h3.626ZM64.315 24.68c-2.76 0-5.5-.875-7.714-2.465-.653-.462-1.062-1.272-1.062-2.111 0-1.451 1.15-2.588 2.616-2.588.58 0 1.095.163 1.576.5 1.519 1.117 3.041 1.656 4.668 1.656.523 0 2.228-.09 2.228-1.248 0-.578 0-1.07-3.497-1.967-3.8-.97-6.947-2.135-6.947-6.573 0-3.888 3.068-6.564 7.46-6.564 2.426 0 4.626.616 6.538 1.83a2.573 2.573 0 0 1 1.23 2.214c0 1.45-1.15 2.588-2.616 2.588-.495 0-.938-.124-1.394-.39-1.432-.842-2.643-1.234-3.814-1.234-1.166 0-1.92.435-1.92 1.108 0 .816.31 1.162 3.777 2.05 3.464.903 6.667 2.31 6.667 6.462 0 4.111-3.06 6.732-7.796 6.732ZM88.983 24.568a2.726 2.726 0 0 1-2.756-2.756V8.776h-3.544a2.591 2.591 0 0 1-2.588-2.588A2.591 2.591 0 0 1 82.683 3.6h12.6a2.591 2.591 0 0 1 2.588 2.588 2.591 2.591 0 0 1-2.588 2.588H91.74v13.036a2.727 2.727 0 0 1-2.756 2.756Z"/></g></g></g></svg>