<svg xmlns="http://www.w3.org/2000/svg" width="246" height="28"><defs><clipPath id="e"><path fill="none" d="M0 0h246v28H0z"/></clipPath><style>.f{fill:#4e2709}</style></defs><g id="b"><g id="c"><g clip-path="url(#e)" id="d"><path class="f" d="M4.508 24.568a2.726 2.726 0 0 1-2.756-2.756V6.356A2.727 2.727 0 0 1 4.508 3.6h5.852c4.923 0 8.104 2.895 8.104 7.376 0 4.605-3.346 7.544-8.524 7.544H7.264v3.292a2.727 2.727 0 0 1-2.756 2.756Zm5.572-11.084c1.71 0 2.816-.93 2.816-2.368 0-2.013-1.577-2.424-2.9-2.424H7.264v4.792h2.816ZM41.3 24.568c-1.039 0-1.89-.442-2.6-1.35l-4.018-5.09h-2.554v3.684c0 1.545-1.21 2.756-2.756 2.756s-2.756-1.21-2.756-2.756V6.356A2.727 2.727 0 0 1 29.372 3.6h6.804c2.599 0 4.72.748 6.136 2.164 1.214 1.214 1.856 2.91 1.856 4.904 0 2.88-1.229 5.005-3.565 6.236l2.504 3.042c.428.542.837 1.136.837 2.034 0 1.62-1.344 2.588-2.644 2.588ZM35.896 13.12c1.693 0 2.704-.812 2.704-2.172 0-1.874-1.516-2.256-2.788-2.256h-3.684v4.428h3.768ZM56.812 24.568a2.727 2.727 0 0 1-2.756-2.756V6.188c0-1.545 1.21-2.756 2.756-2.756s2.756 1.21 2.756 2.756v15.624a2.726 2.726 0 0 1-2.756 2.756ZM79.1 24.708c-1.364 0-2.426-.737-2.99-2.075L69.755 7.427c-.148-.354-.298-.78-.298-1.267 0-1.53 1.21-2.728 2.756-2.728 1.277 0 2.277.69 2.743 1.896l4.34 11.235 4.397-11.376a2.843 2.843 0 0 1 2.632-1.755c1.53 0 2.728 1.173 2.728 2.672 0 .52-.194 1.01-.277 1.196L82.37 22.63c-.564 1.34-1.625 2.077-2.99 2.077h-.28ZM100.828 24.568a2.727 2.727 0 0 1-2.757-2.756V6.188c0-1.545 1.211-2.756 2.757-2.756s2.755 1.21 2.755 2.756v15.624a2.726 2.726 0 0 1-2.755 2.756ZM116.76 24.4a2.726 2.726 0 0 1-2.756-2.756V6.188c0-1.545 1.21-2.756 2.756-2.756s2.756 1.21 2.756 2.756V19.28h7.38c1.412 0 2.56 1.148 2.56 2.56s-1.148 2.56-2.56 2.56H116.76ZM140.811 24.4a2.726 2.726 0 0 1-2.756-2.756V6.356a2.727 2.727 0 0 1 2.756-2.756h10.864a2.535 2.535 0 0 1 2.532 2.532c0 1.38-1.136 2.504-2.532 2.504h-8.136v2.776h6.876a2.535 2.535 0 0 1 2.532 2.532c0 1.38-1.136 2.504-2.532 2.504h-6.876v2.916h8.276a2.535 2.535 0 0 1 2.532 2.532c0 1.38-1.136 2.504-2.532 2.504H140.81ZM173.291 24.736c-6.318 0-10.904-4.492-10.904-10.68 0-6.077 4.777-10.792 10.876-10.792 2.912 0 5.016.602 7.036 2.012.354.26 1.152.979 1.152 2.228a2.731 2.731 0 0 1-2.728 2.728c-.792 0-1.308-.3-1.669-.563-1.205-.86-2.382-1.23-3.931-1.23-2.772 0-5.028 2.47-5.028 5.505 0 3.31 2.244 5.672 5.336 5.672 1.336 0 2.525-.309 3.46-.895V16.84h-2.312c-1.365 0-2.476-1.098-2.476-2.448a2.48 2.48 0 0 1 2.476-2.476h4.928a2.727 2.727 0 0 1 2.756 2.756v4.76c0 1.471-.59 2.538-1.805 3.26-2.208 1.354-4.621 2.044-7.167 2.044ZM194.402 24.4a2.726 2.726 0 0 1-2.756-2.756V6.356a2.727 2.727 0 0 1 2.756-2.756h10.865a2.535 2.535 0 0 1 2.531 2.532c0 1.38-1.135 2.504-2.531 2.504h-8.137v2.776h6.876a2.535 2.535 0 0 1 2.533 2.532c0 1.38-1.137 2.504-2.533 2.504h-6.876v2.916h8.276a2.535 2.535 0 0 1 2.532 2.532c0 1.38-1.136 2.504-2.532 2.504h-11.004Z"/></g></g></g></svg>