<svg xmlns="http://www.w3.org/2000/svg" width="246" height="28"><defs><clipPath id="e"><path fill="none" d="M0 0h246v28H0z"/></clipPath><style>.f{fill:#4e2709}</style></defs><g id="b"><g id="c"><g clip-path="url(#e)" id="d"><path class="f" d="M4.508 24.568a2.726 2.726 0 0 1-2.756-2.756V6.356A2.727 2.727 0 0 1 4.508 3.6h5.852c4.923 0 8.104 2.895 8.104 7.376 0 4.605-3.346 7.544-8.524 7.544H7.264v3.292a2.727 2.727 0 0 1-2.756 2.756Zm5.572-11.084c1.71 0 2.816-.93 2.816-2.368 0-2.013-1.577-2.424-2.9-2.424H7.264v4.792h2.816ZM42.672 24.568c-1.17 0-2.101-.655-2.622-1.843l-1.162-2.721h-7.831l-1.217 2.855c-.464 1.071-1.413 1.709-2.54 1.709-1.45 0-2.588-1.15-2.588-2.616 0-.439.154-.839.306-1.172l6.83-15.423c.587-1.313 1.705-2.065 3.068-2.065h.252c1.365 0 2.445.733 3.04 2.063l6.833 15.43c.187.411.275.766.275 1.111 0 1.498-1.161 2.672-2.644 2.672Zm-5.887-9.572-1.813-4.318-1.813 4.318h3.626ZM63.168 24.736c-5.973 0-10.652-4.692-10.652-10.68 0-6.177 4.651-10.792 10.82-10.792 2.775 0 4.97.67 6.91 2.106a2.742 2.742 0 0 1 1.082 2.19c0 1.489-1.224 2.7-2.728 2.7-.707 0-1.192-.247-1.61-.514-1.21-.899-2.37-1.306-3.682-1.306-2.898 0-5.084 2.366-5.084 5.504 0 3.225 2.186 5.616 5.084 5.616 1.751 0 2.818-.564 3.882-1.41a2.612 2.612 0 0 1 1.662-.606c1.442 0 2.616 1.161 2.616 2.588 0 .758-.342 1.485-.938 1.995-2.064 1.803-4.336 2.609-7.362 2.609ZM96.123 24.568c-1.158 0-1.81-.642-2.294-1.27l-5.201-6.812-1.789 1.667v3.659c0 1.545-1.21 2.756-2.756 2.756s-2.756-1.21-2.756-2.756V6.188c0-1.545 1.21-2.756 2.756-2.756s2.756 1.21 2.756 2.756v5.139l6.93-6.88c.47-.472 1.153-1.015 2.242-1.015 1.475 0 2.588 1.112 2.588 2.588 0 .77-.318 1.444-.972 2.06l-5.113 4.776 5.674 7.126c.334.418.72 1.01.72 1.886 0 1.539-1.198 2.7-2.785 2.7ZM125.16 24.568c-1.171 0-2.102-.655-2.623-1.843l-1.162-2.721h-7.832l-1.216 2.855c-.464 1.071-1.413 1.709-2.54 1.709-1.451 0-2.588-1.15-2.588-2.616 0-.439.154-.839.305-1.172l6.83-15.423c.587-1.313 1.706-2.065 3.069-2.065h.252c1.365 0 2.445.733 3.04 2.063l6.833 15.43c.187.411.275.766.275 1.111 0 1.498-1.161 2.672-2.644 2.672Zm-5.888-9.572-1.813-4.318-1.813 4.318h3.626ZM145.627 24.736c-6.318 0-10.904-4.492-10.904-10.68 0-6.077 4.777-10.792 10.876-10.792 2.912 0 5.016.602 7.036 2.012.354.26 1.152.979 1.152 2.228a2.731 2.731 0 0 1-2.728 2.728c-.792 0-1.308-.3-1.669-.563-1.205-.86-2.382-1.23-3.931-1.23-2.772 0-5.028 2.47-5.028 5.505 0 3.31 2.244 5.672 5.336 5.672 1.336 0 2.524-.309 3.46-.895V16.84h-2.312c-1.365 0-2.476-1.098-2.476-2.448a2.48 2.48 0 0 1 2.476-2.476h4.928a2.727 2.727 0 0 1 2.756 2.756v4.76c0 1.471-.59 2.538-1.806 3.26-2.207 1.354-4.62 2.044-7.166 2.044ZM166.738 24.4a2.726 2.726 0 0 1-2.756-2.756V6.356a2.727 2.727 0 0 1 2.756-2.756h10.865a2.535 2.535 0 0 1 2.531 2.532c0 1.38-1.135 2.504-2.531 2.504h-8.137v2.776h6.876a2.535 2.535 0 0 1 2.533 2.532c0 1.38-1.137 2.504-2.533 2.504h-6.876v2.916h8.276a2.535 2.535 0 0 1 2.532 2.532c0 1.38-1.136 2.504-2.532 2.504h-11.004Z"/></g></g></g></svg>