<svg xmlns="http://www.w3.org/2000/svg" width="272" height="32"><defs><clipPath id="e"><path fill="none" d="M0 0h272v32H0z"/></clipPath><style>.g{fill:#ff6024}</style></defs><g id="b"><g id="c"><g clip-path="url(#e)" id="d"><path class="g" d="M3.42 23.327c.352-.288.416-.607.416-1.056v-4.19c0-.577-.191-1.089-.864-1.089-.287 0-1.056.064-1.408.064-.736 0-.832-.352-.832-1.184v-2.016c0-.864.096-1.216.8-1.216.48 0 1.216.096 1.92.096h1.184c.704 0 1.343-.064 1.952-.064 1.056 0 1.92.352 1.92 1.536 0 .768-.096 1.664-.096 2.848v4.832c0 1.248 0 2.592 1.28 3.199.927.448 2.559.448 3.775.48h.607c1.504.064 2.976.064 4.448.064 2.56 0 5.087-.031 7.616-.16.511-.032 2.08-.16 2.4-.16.768 0 .768.576.768 1.312 0 2.976-.704 3.104-2.912 3.104H19.29c-2.048 0-4.063-.032-6.111-.128-1.569-.064-2.944-.128-4.448-.544-.99-.288-1.727-.768-2.271-1.664a.496.496 0 0 0-.48-.287c-.192 0-.256.063-.384.159-.352.32-1.664 1.28-2.112 1.568-.608.416-.64.48-.736.864a.547.547 0 0 1-.544.415c-.416 0-.448-.287-.576-.607C1.244 28.479.924 27.455.54 26.43c-.128-.384-.384-.992-.384-1.375 0-.449.384-.544.897-.673.128-.064.319-.096.48-.16.35-.127 1.631-.703 1.887-.896Zm.352-21.502c.224 0 .416.16.704.448.096.064.192.192.32.289.8.767 1.727 1.76 2.464 2.624.064.063.128.159.223.255.449.576 1.28 1.599 1.28 2.015 0 .608-2.175 2.336-2.975 2.336-.288 0-.384-.191-.64-.48C3.836 7.617 2.62 6.24 1.084 4.77.924 4.642.86 4.545.86 4.354c0-.577 2.24-2.529 2.912-2.529ZM22.17 19.712c-.736 0-1.056.48-1.056.863 0 .897.064 1.824.064 2.752 0 .832-.288.897-1.248.897h-1.792c-1.024 0-1.312-.065-1.312-.897 0-.928.065-1.823.065-2.752 0-.447-.32-.863-.93-.863h-.127c-.64 0-.991.447-.991.863 0 1.057.063 2.112.063 3.168 0 .769-.351.832-1.248.832h-1.76c-.959 0-1.31-.063-1.31-.832 0-1.28.063-2.527.063-3.775v-6.944c0-1.152-.063-2.175-.063-2.912 0-1.183.894-1.311 1.854-1.311.928 0 1.888.063 2.816.063.129 0 .385 0 .385-.16 0-.256-.544-.416-1.216-.64-.13-.032-.288-.095-.416-.127-.704-.256-1.28-.384-1.28-.833 0-.351.479-1.023.736-1.311.063-.064.159-.191.159-.288 0-.224-.191-.288-.352-.288-.576 0-1.152.064-1.76.064-1.15 0-1.246-.224-1.246-1.12V3.073c0-.8.128-.992 1.247-.992 1.183 0 2.368.064 3.551.064h7.904c.895 0 1.792-.032 2.687-.032 1.344 0 2.145 1.153 2.145 1.792 0 .672-1.536 1.632-2.08 1.984a64.286 64.286 0 0 1-2.817 1.664c-.191.095-.416.256-.416.511s.288.352.545.512c.32.225.8.256 1.184.256.607 0 1.216-.031 1.823-.031.96 0 1.856.128 1.856 1.311 0 .832-.064 1.825-.064 2.912v5.76c0 .831.032 1.632.032 2.432 0 1.183-.063 2.048-1.151 2.75-.8.513-2.24.577-3.168.577-.832 0-1.729-.096-1.729-2.783 0-.513.065-1.28.769-1.28.224 0 .48.064.672.064.191 0 .32-.097.32-.416 0-.225-.192-.416-.608-.416h-.8Zm-5.248-7.264c-.031-.223-.192-.416-.416-.416h-1.248a.423.423 0 0 0-.415.416v.128c0 .256.191.416.415.416h1.248c.224 0 .416-.16.416-.416v-.128Zm-1.664 3.488a.403.403 0 0 0-.415.416v.127c0 .225.191.417.415.417h1.248a.423.423 0 0 0 .416-.417v-.127a.403.403 0 0 0-.416-.416h-1.248Zm1.664-10.72c-.192 0-.384 0-.384.161s.288.256.768.447c.224.065.544.193.864.32.096.065.224.065.32.065.352 0 .512-.16.8-.353.128-.095.544-.351.544-.511 0-.128-.48-.128-.896-.128h-2.016Zm6.24 7.776c.224 0 .416-.16.416-.416v-.128a.424.424 0 0 0-.416-.416H21.53a.423.423 0 0 0-.416.416v.128c0 .256.192.416.416.416h1.632Zm0 3.904c.224-.032.416-.192.416-.417v-.127a.404.404 0 0 0-.416-.416H21.53a.403.403 0 0 0-.416.416v.127c0 .225.192.417.416.417h1.632ZM55.45 1.665c.383 0 3.36.96 3.935 1.152.544.16 1.28.352 1.28.64 0 .353-.352.416-.608.48-.448.064-.703.192-.96.576-.16.224-.287.384-.415.576-.097.16-.13.224-.13.352 0 .288.258.383.513.383.48 0 .928-.063 1.408-.063.992 0 2.112 0 2.112 1.055 0 .544-.064 1.088-.064 1.6v2.048c0 .64.064 1.152.064 1.6 0 .768-.448.832-1.792.832h-1.376c-.896 0-1.536 0-1.536-.832 0-.448.097-.992.097-1.44 0-.64-.385-.96-1.025-.96H40.187c-.737 0-1.025.48-1.025.897 0 .383.097.927.097 1.343 0 .704-.48.8-1.28.8h-2.016c-.897 0-1.376-.096-1.376-.8 0-.448.064-.96.064-1.6V8.417c0-.512-.064-1.056-.064-1.6 0-1.023 1.056-1.055 1.824-1.055.384 0 .8.032 1.184.032.351 0 .704-.096.704-.512 0-.224-.353-.927-.576-1.312-.224-.415-.352-.64-.352-.831 0-.609 3.2-1.504 3.775-1.504.449 0 .544.095 1.312 1.567.192.353.704 1.376.704 1.728 0 .224-.224.384-.416.48-.096.032-.224.128-.224.224 0 .191.192.191.416.191h2.208c.64 0 1.088-.255 1.088-.959V3.841c0-.703-.096-1.6-.096-1.951 0-.449.352-.544.736-.544.64 0 3.424.223 4.16.288.256.031.703.063.703.416 0 .223-.191.32-.416.512-.416.383-.416.895-.416 1.471v.832c0 .704.449.96 1.088.96h.257c1.151 0 1.344-.512 1.632-1.088.223-.448.96-2.048 1.056-2.496.095-.288.16-.576.511-.576Zm-.257 16.959c1.088 0 2.176-.097 3.264-.097 1.024 0 1.76.225 1.76 1.409 0 .927-.064 1.887-.064 2.88v.448c0 .832.064 1.567.064 2.239 0 2.816-2.783 3.488-5.056 3.488-1.28 0-1.983-.128-2.336-1.12-.191-.48-.32-1.44-.32-1.984 0-.672.257-1.312 1.024-1.312.48 0 .96.065 1.44.065.608 0 .673-.225.673-1.185 0-.704-.384-1.023-1.056-1.023h-2.88a.916.916 0 0 0-.896.895v1.248c0 1.6.095 3.2.095 4.768 0 .864-.319.927-1.471.927h-1.888c-1.12 0-1.44-.063-1.44-.927 0-1.568.096-3.168.096-4.768v-1.248a.916.916 0 0 0-.896-.895h-3.104a.894.894 0 0 0-.895.895v1.6c0 1.12.032 2.112.032 3.168 0 .736-.385.8-1.345.8h-1.823c-.928 0-1.313-.064-1.313-.8 0-1.056.065-2.112.065-3.168V23.07c0-1.12-.096-2.176-.096-3.135 0-1.184.736-1.409 1.76-1.409 1.088 0 2.176.097 3.296.097h3.839c.288 0 .416-.225.416-.48s-.16-.512-.416-.512h-.384c-1.12 0-2.24.063-3.36.063-.896 0-1.984-.063-1.984-1.247 0-.512.097-1.248.097-2.144v-.352c0-.896-.097-1.632-.097-2.143 0-1.217 1.088-1.248 2.017-1.248 1.119 0 2.239.063 3.327.063h6.432c1.12 0 2.24-.063 3.36-.063.895 0 2.016.03 2.016 1.248 0 .511-.097 1.247-.097 2.143v.352c0 .896.097 1.632.097 2.144 0 1.152-1.025 1.247-1.92 1.247-1.153 0-2.273-.063-3.392-.063-.16 0-.192.16-.192.223 0 .097-.16.225-.224.289-.097.095-.353.288-.353.383 0 .097.128.097.193.097h3.935Zm-10.655-4.48c0 .352.256.64.608.64h6.847c.32 0 .609-.288.609-.64v-.064a.63.63 0 0 0-.609-.608h-6.847a.588.588 0 0 0-.608.608v.064ZM73.563 1.186c.352 0 2.496.255 3.648.383.448.065.8.16.8.384 0 .256-.256.384-.448.48-.289.129-.384.48-.384.672 0 .256.288.289.48.289.64 0 1.312-.065 1.951-.065.865 0 1.376.225 1.376 1.152 0 .736-.063 1.536-.063 2.4v2.048c0 .191.096.384.32.384.096 0 .192-.033.224-.033.416 0 .416.544.416 1.504 0 1.153-.065 1.569-.576 1.76-.32.128-.384.16-.384.512v1.408c0 .736.063 1.472.063 2.208 0 2.655-1.727 3.36-4.063 3.36-1.088 0-1.28-.385-1.472-1.44-.097-.512-.256-.704-.896-.704-.064 0-.16.032-.224.032-.416 0-.608-.065-.608-.48 0-.64.032-1.377.032-2.048v-.8c0-.448 0-.768-.288-.768-.384 0-.447.608-.512.896-.16.832-.384 1.728-.64 2.528s-.736 1.951-1.184 2.655c-.128.225-.256.288-.512.288-.64 0-3.071-.96-3.071-1.727 0-.16.223-.576.416-.897.447-.8 1.119-2.367 1.119-2.815 0-.128-.063-.128-.128-.128-.096 0-.191.16-.384.16-.16 0-.288-.256-.383-.64-.16-.768-.48-2.72-.48-2.848 0-.191.096-.32.447-.352.512-.032.672-.064.928-.095.64-.097.704-.513.704-1.44V6.88c0-.864-.031-1.664-.031-2.4 0-.927.512-1.152 1.344-1.152.288 0 .544.032.832.032.64 0 .83-.16.927-.704.033-.223.096-.576.128-.895.064-.48.096-.576.576-.576ZM71.26 24.03c0-.64-.031-1.28-.031-1.92 0-1.183.447-1.408 1.535-1.408.673 0 1.344.032 2.016.032h14.815c.672 0 1.344-.032 2.015-.032 1.057 0 1.537.225 1.537 1.376 0 .64-.033 1.313-.033 1.952v1.153c0 .64.48.895 1.057.895.48 0 .928-.032 1.376-.032.832 0 .895.32.895 1.216v1.504c0 .832-.063 1.184-.832 1.184-.767 0-1.567-.064-2.368-.064H71.195c-.8 0-1.6.064-2.368.064-.767 0-.832-.385-.832-1.28v-1.312c0-.96.065-1.312.864-1.312.48 0 .96.032 1.44.032.608 0 .96-.288.96-.864V24.03Zm6.048-16.67a.778.778 0 0 0-.768-.768h-.352c-.128 0-.288.032-.288.191 0 .097.128.256.288.448.224.256.96 1.248.96 1.537 0 .191-.256.351-.833.767-.319.225-.735.512-1.023.512-.192 0-.256-.096-.352-.224-.32-.48-.864-1.183-1.248-1.6-.096-.095-.128-.16-.128-.287 0-.353.608-.705.864-.897.096-.063.288-.191.288-.287 0-.128-.16-.16-.256-.16h-.288a.778.778 0 0 0-.768.767V9.73c0 .416.16.607.608.607.288 0 2.208-.256 2.432-.288.64-.128.864-.256.864-.736V7.36Zm-1.632 18.142c0 .352.288.608.64.608h.256c.352 0 .64-.288.64-.608v-.64c0-.32-.288-.608-.64-.608h-.257c-.351 0-.64.288-.64.608v.64Zm1.632-11.583c0-.192-.033-.576-.32-.576-.192 0-.544.288-.608.416-.032.096-.032.288-.032.832v.8c0 .448 0 .928.48.928s.48-.416.48-1.664v-.736ZM89.146 2.08c.48 0 .96-.031 1.44-.031.8 0 1.28.095 1.28 1.023v2.048c0 .672 0 .96.32.96h.096c.415 0 .512-.064.736-1.311.064-.385.064-.609.608-.609.607 0 3.008.448 3.008 1.408 0 .768-.576 2.368-1.057 3.007-.672.864-1.79.864-2.815.864h-1.856c-.736 0-1.472-.128-2.016-.608s-.544-.895-.544-1.663V6.08c0-.288-.224-.512-.575-.512-.673 0-.705.352-.833.896-.255 1.119-.8 2.143-1.503 3.039-.065.064-.225.257-.225.352 0 .192.385.192.769.192h4.223c1.184 0 2.304-.096 2.848-.096.832 0 1.055.353 1.6 1.025.32.383.736.863.736 1.407 0 .736-1.952 2.72-2.529 3.263-.16.128-.383.32-.383.544 0 .32.927.577 1.631.737s1.409.288 2.113.416c.351.064.48.16.48.511 0 .897-.768 2.976-1.92 2.976-1.056 0-4.416-1.344-5.504-1.855-.256-.128-.512-.224-.768-.224-.416 0-.896.224-1.248.352-.64.255-3.36 1.28-3.871 1.28-1.153 0-2.113-2.817-2.113-3.136 0-.352.416-.416 1.153-.513.416-.063 2.431-.415 2.431-.895 0-.193-.223-.448-.352-.576a5.687 5.687 0 0 1-.512-.736c-.128-.192-.16-.288-.16-.384 0-.256.288-.448.48-.576.128-.096.16-.128.16-.224s-.224-.096-.287-.096h-1.088c-.641 0-.704-.256-.704-1.023v-.96c0-1.088.032-1.248.736-1.313.096 0 .191-.032.191-.128s-.095-.192-.223-.256c-.353-.16-1.537-.8-1.537-1.215 0-.224.193-.416.32-.544 1.184-1.313 1.408-3.04 1.408-4.736 0-.864.385-1.023 1.376-1.023.576 0 .897.031 1.664.031h2.816ZM82.81 24.863a.608.608 0 0 0-.609-.608h-.288a.63.63 0 0 0-.607.608v.64c0 .32.288.608.607.608h.288a.588.588 0 0 0 .609-.608v-.64Zm4.255.64c0 .352.256.608.608.608h.288a.608.608 0 0 0 .608-.608v-.64a.608.608 0 0 0-.608-.608h-.288a.63.63 0 0 0-.608.608v.64Zm.896-12.32c-.16 0-.512.033-.512.257 0 .288.8.992 1.216.992.48 0 1.472-.768 1.472-1.024 0-.224-.48-.224-.8-.224h-1.376Z"/></g></g></g></svg>