<svg xmlns="http://www.w3.org/2000/svg" width="272" height="54"><defs><clipPath id="e"><path fill="none" d="M0 0h272v54H0z"/></clipPath><style>.g{fill:#ff6024}</style></defs><g id="b"><g id="c"><g clip-path="url(#e)" id="d"><path class="g" d="M5.94 39.475c.594-.487.703-1.027.703-1.783v-7.074c0-.972-.325-1.836-1.46-1.836-.486 0-1.78.109-2.374.109-1.243 0-1.405-.594-1.405-1.998V23.49c0-1.458.162-2.052 1.35-2.052.81 0 2.053.162 3.24.162h1.998c1.188 0 2.268-.108 3.294-.108 1.782 0 3.24.594 3.24 2.592 0 1.297-.162 2.809-.162 4.807v8.154c0 2.105 0 4.373 2.16 5.4 1.566.755 4.32.755 6.372.809h1.026c2.539.108 5.022.108 7.506.108 4.32 0 8.587-.053 12.853-.27.864-.053 3.51-.27 4.05-.27 1.296 0 1.296.973 1.296 2.215 0 5.022-1.189 5.237-4.914 5.237H32.725c-3.456 0-6.859-.053-10.315-.215-2.646-.108-4.968-.216-7.506-.918-1.674-.487-2.916-1.296-3.834-2.809-.162-.324-.431-.485-.81-.485-.324 0-.432.108-.648.27-.594.54-2.807 2.16-3.564 2.646-1.027.702-1.08.81-1.241 1.458a.927.927 0 0 1-.918.7c-.703 0-.757-.484-.973-1.025-.648-1.728-1.187-3.456-1.836-5.183-.217-.649-.648-1.674-.648-2.322 0-.756.648-.918 1.511-1.135.217-.108.541-.162.81-.27.595-.215 2.755-1.187 3.186-1.511Zm.594-36.29c.378 0 .702.271 1.189.756.16.109.323.325.539.487a64.992 64.992 0 0 1 4.158 4.427c.108.109.217.271.379.433.756.972 2.159 2.7 2.159 3.401 0 1.027-3.672 3.943-5.022 3.943-.486 0-.648-.323-1.08-.81-2.213-2.862-4.266-5.184-6.858-7.668-.27-.217-.378-.379-.378-.703 0-.97 3.78-4.265 4.914-4.265Zm31.05 30.187c-1.242 0-1.781.81-1.781 1.458 0 1.512.107 3.078.107 4.645 0 1.404-.486 1.511-2.105 1.511H30.78c-1.727 0-2.214-.107-2.214-1.511 0-1.567.108-3.079.108-4.645 0-.756-.54-1.458-1.566-1.458h-.215c-1.08 0-1.674.757-1.674 1.458 0 1.782.107 3.565.107 5.346 0 1.297-.594 1.404-2.105 1.404H20.25c-1.62 0-2.214-.107-2.214-1.404 0-2.16.109-4.266.109-6.371v-11.72c0-1.942-.109-3.67-.109-4.913 0-1.998 1.513-2.214 3.132-2.214 1.566 0 3.186.108 4.752.108.217 0 .648 0 .648-.27 0-.433-.918-.702-2.052-1.08-.215-.054-.486-.161-.702-.216-1.187-.432-2.16-.648-2.16-1.404 0-.594.81-1.728 1.242-2.214.108-.109.27-.323.27-.486 0-.378-.324-.486-.594-.486-.972 0-1.943.108-2.97.108-1.944 0-2.106-.378-2.106-1.89V5.292c0-1.35.217-1.675 2.106-1.675 1.998 0 3.996.109 5.994.109h13.339c1.512 0 3.024-.054 4.536-.054 2.267 0 3.618 1.943 3.618 3.023 0 1.135-2.593 2.754-3.51 3.349-1.188.756-3.564 2.16-4.753 2.808-.324.162-.701.432-.701.864s.485.595.918.864c.539.378 1.35.432 1.998.432 1.025 0 2.052-.054 3.078-.054 1.62 0 3.131.216 3.131 2.214 0 1.404-.107 3.078-.107 4.914v9.72c0 1.405.054 2.755.054 4.104 0 1.998-.108 3.456-1.945 4.645-1.35.863-3.78.971-5.346.971-1.404 0-2.916-.162-2.916-4.698 0-.863.109-2.16 1.297-2.16.377 0 .81.108 1.133.108.324 0 .54-.162.54-.702 0-.378-.323-.702-1.025-.702h-1.351Zm-8.856-12.258c-.054-.378-.324-.702-.702-.702H25.92a.715.715 0 0 0-.701.702v.216a.68.68 0 0 0 .7.702h2.107c.378 0 .702-.27.702-.702v-.216ZM25.92 27a.68.68 0 0 0-.701.702v.216c0 .379.324.702.7.702h2.107a.715.715 0 0 0 .703-.702v-.216c0-.432-.325-.702-.703-.702H25.92Zm2.808-18.09c-.324 0-.648 0-.648.27s.486.431 1.297.756c.377.108.918.324 1.457.54.162.108.379.108.541.108.594 0 .863-.27 1.35-.594.215-.162.918-.594.918-.864 0-.216-.811-.216-1.512-.216h-3.402Zm10.53 13.122c.379 0 .703-.27.703-.702v-.216a.715.715 0 0 0-.703-.702h-2.754a.715.715 0 0 0-.701.702v.216a.68.68 0 0 0 .7.702h2.755Zm0 6.588c.379-.054.703-.323.703-.702v-.216c0-.432-.324-.702-.703-.702h-2.754a.68.68 0 0 0-.701.702v.216c0 .379.324.702.7.702h2.755ZM96.444 2.916c.648 0 5.67 1.62 6.642 1.943.918.27 2.16.594 2.16 1.08 0 .594-.594.704-1.025.811-.756.107-1.188.324-1.62.972-.27.378-.487.648-.703.971-.162.27-.215.38-.215.595 0 .485.431.648.864.648.81 0 1.565-.108 2.375-.108 1.675 0 3.564 0 3.564 1.781 0 .918-.107 1.836-.107 2.702v3.455c0 1.08.107 1.944.107 2.7 0 1.296-.756 1.404-3.023 1.404h-2.322c-1.512 0-2.592 0-2.592-1.403 0-.757.162-1.675.162-2.43 0-1.08-.649-1.621-1.729-1.621H70.686c-1.243 0-1.728.81-1.728 1.512 0 .648.162 1.566.162 2.268 0 1.189-.81 1.35-2.16 1.35h-3.401c-1.513 0-2.323-.161-2.323-1.35 0-.757.108-1.62.108-2.7v-3.185c0-.866-.108-1.784-.108-2.702 0-1.727 1.782-1.78 3.078-1.78.648 0 1.35.053 1.998.053.594 0 1.188-.162 1.188-.864 0-.378-.594-1.567-.973-2.214-.377-.702-.593-1.08-.593-1.404 0-1.026 5.4-2.539 6.373-2.539.755 0 .918.162 2.212 2.647.325.594 1.189 2.322 1.189 2.916 0 .378-.378.648-.702.81-.162.054-.378.215-.378.377 0 .325.324.325.702.325h3.727c1.08 0 1.836-.432 1.836-1.62V6.588c0-1.188-.163-2.7-.163-3.294 0-.757.594-.918 1.243-.918 1.08 0 5.777.378 7.02.485.43.055 1.187.109 1.187.703 0 .377-.324.54-.702.864-.702.648-.702 1.511-.702 2.484v1.404c0 1.188.756 1.62 1.836 1.62h.433c1.943 0 2.267-.864 2.754-1.836.377-.756 1.619-3.455 1.781-4.212.162-.486.27-.972.864-.972Zm-.432 28.62c1.837 0 3.673-.162 5.508-.162 1.728 0 2.97.378 2.97 2.376 0 1.566-.107 3.187-.107 4.86v.756c0 1.405.107 2.646.107 3.78 0 4.752-4.697 5.887-8.531 5.887-2.16 0-3.349-.217-3.943-1.89-.324-.811-.54-2.43-.54-3.348 0-1.135.432-2.215 1.728-2.215.81 0 1.62.108 2.43.108 1.026 0 1.135-.377 1.135-1.998 0-1.188-.648-1.727-1.783-1.727h-4.86c-.81 0-1.512.701-1.512 1.512v2.105c0 2.7.162 5.4.162 8.047 0 1.457-.54 1.565-2.484 1.565h-3.187c-1.888 0-2.43-.108-2.43-1.565 0-2.647.163-5.347.163-8.047v-2.105c0-.81-.701-1.512-1.512-1.512h-5.238c-.863 0-1.512.701-1.512 1.512v2.699c0 1.89.054 3.564.054 5.347 0 1.242-.648 1.35-2.269 1.35h-3.077c-1.566 0-2.214-.108-2.214-1.35 0-1.783.108-3.564.108-5.347v-3.131c0-1.89-.162-3.673-.162-5.293 0-1.998 1.242-2.376 2.97-2.376 1.836 0 3.672.162 5.562.162h6.48c.486 0 .702-.378.702-.81s-.27-.864-.702-.864h-.648c-1.89 0-3.78.109-5.67.109-1.512 0-3.349-.109-3.349-2.107 0-.864.162-2.106.162-3.618v-.594c0-1.511-.162-2.754-.162-3.618 0-2.052 1.837-2.106 3.403-2.106 1.89 0 3.78.108 5.616.108h10.854c1.891 0 3.78-.108 5.67-.108 1.512 0 3.403.054 3.403 2.106 0 .864-.163 2.107-.163 3.618v.594c0 1.512.163 2.754.163 3.618 0 1.945-1.729 2.107-3.24 2.107-1.944 0-3.835-.109-5.725-.109-.27 0-.324.27-.324.378 0 .162-.27.378-.377.487-.163.162-.594.486-.594.647 0 .162.215.162.323.162h6.642Zm-17.982-7.56c0 .594.432 1.08 1.027 1.08h11.555c.54 0 1.027-.486 1.027-1.08v-.108c0-.54-.487-1.026-1.027-1.026H79.057c-.595 0-1.027.431-1.027 1.026v.109ZM129.708 2.105c.594 0 4.212.432 6.155.649.757.107 1.35.27 1.35.648 0 .432-.43.648-.755.81-.485.216-.647.81-.647 1.134 0 .431.485.486.81.486 1.08 0 2.213-.108 3.293-.108 1.458 0 2.322.378 2.322 1.944 0 1.242-.108 2.592-.108 4.05v3.456c0 .324.162.648.54.648.162 0 .324-.054.378-.054.702 0 .702.918.702 2.539 0 1.943-.107 2.645-.973 2.968-.539.217-.647.27-.647.866v2.375c0 1.242.108 2.484.108 3.726 0 4.483-2.916 5.67-6.858 5.67-1.836 0-2.16-.648-2.483-2.43-.163-.864-.433-1.187-1.513-1.187-.109 0-.27.053-.378.053-.702 0-1.025-.108-1.025-.81 0-1.08.052-2.321.052-3.456v-1.35c0-.755 0-1.296-.485-1.296-.648 0-.756 1.026-.864 1.512a37.992 37.992 0 0 1-1.08 4.267c-.432 1.35-1.243 3.293-1.999 4.481-.215.378-.431.486-.863.486-1.08 0-5.184-1.62-5.184-2.916 0-.27.378-.971.702-1.512.756-1.35 1.89-3.996 1.89-4.752 0-.216-.109-.216-.216-.216-.162 0-.325.27-.649.27-.27 0-.485-.432-.647-1.08-.27-1.296-.81-4.59-.81-4.806 0-.324.162-.54.756-.594.863-.055 1.134-.107 1.566-.162 1.08-.162 1.188-.864 1.188-2.43v-4.266c0-1.458-.055-2.808-.055-4.05 0-1.566.865-1.944 2.269-1.944.485 0 .918.053 1.403.053 1.08 0 1.404-.27 1.567-1.187.054-.378.162-.973.216-1.512.108-.81.162-.973.972-.973Zm-3.888 38.557c0-1.08-.054-2.16-.054-3.24 0-1.998.755-2.375 2.591-2.375 1.135 0 2.269.053 3.403.053h25.002c1.134 0 2.268-.053 3.402-.053 1.782 0 2.592.377 2.592 2.321 0 1.08-.053 2.214-.053 3.294v1.944c0 1.08.809 1.513 1.781 1.513.81 0 1.567-.055 2.323-.055 1.404 0 1.511.54 1.511 2.053v2.537c0 1.405-.107 1.998-1.404 1.998-1.295 0-2.645-.107-3.996-.107h-37.206c-1.35 0-2.7.107-3.996.107s-1.404-.648-1.404-2.16v-2.214c0-1.62.108-2.214 1.458-2.214.81 0 1.62.055 2.43.055 1.026 0 1.62-.486 1.62-1.459v-1.998Zm10.205-28.135c0-.7-.593-1.295-1.295-1.295h-.594c-.216 0-.486.054-.486.325 0 .16.215.431.486.755.378.432 1.62 2.106 1.62 2.592 0 .325-.432.594-1.404 1.296-.54.378-1.243.864-1.728.864-.324 0-.433-.162-.595-.378-.539-.81-1.457-1.999-2.105-2.7-.162-.162-.216-.27-.216-.486 0-.594 1.026-1.188 1.458-1.512.162-.108.486-.324.486-.486 0-.216-.27-.27-.432-.27h-.486c-.703 0-1.297.594-1.297 1.295v3.996c0 .704.271 1.027 1.027 1.027.485 0 3.725-.432 4.104-.486 1.08-.216 1.457-.432 1.457-1.242v-3.295Zm-2.754 30.62c0 .593.487 1.025 1.08 1.025h.433c.594 0 1.08-.485 1.08-1.026v-1.08c0-.54-.486-1.025-1.08-1.025h-.432c-.594 0-1.08.485-1.08 1.025v1.08Zm2.754-19.55c0-.324-.052-.971-.539-.971-.324 0-.918.486-1.026.702-.054.162-.054.486-.054 1.404v1.35c0 .756 0 1.566.81 1.566s.81-.702.81-2.808v-1.242Zm19.98-19.98c.811 0 1.622-.053 2.432-.053 1.35 0 2.159.162 2.159 1.728v3.456c0 1.134 0 1.62.54 1.62h.163c.701 0 .863-.108 1.242-2.214.107-.648.107-1.026 1.025-1.026 1.026 0 5.077.756 5.077 2.376 0 1.296-.973 3.996-1.783 5.076-1.133 1.458-3.024 1.458-4.752 1.458h-3.131c-1.243 0-2.485-.216-3.403-1.026-.918-.81-.918-1.512-.918-2.808v-1.836c0-.486-.378-.864-.972-.864-1.133 0-1.188.594-1.404 1.512-.432 1.89-1.35 3.618-2.538 5.13-.107.108-.378.432-.378.594 0 .324.648.324 1.296.324h7.128c1.998 0 3.888-.162 4.806-.162 1.404 0 1.783.594 2.7 1.728.54.647 1.243 1.458 1.243 2.376 0 1.242-3.295 4.59-4.267 5.508-.27.216-.647.54-.647.918 0 .54 1.565.972 2.754 1.242 1.187.27 2.375.486 3.563.702.595.108.81.27.81.864 0 1.512-1.295 5.022-3.24 5.022-1.782 0-7.451-2.268-9.287-3.131-.432-.217-.865-.379-1.297-.379-.701 0-1.512.379-2.106.594-1.08.432-5.67 2.16-6.534 2.16-1.944 0-3.563-4.752-3.563-5.291 0-.595.7-.703 1.943-.865.702-.108 4.104-.702 4.104-1.512 0-.324-.377-.756-.594-.972-.216-.27-.594-.756-.864-1.242-.216-.323-.27-.485-.27-.647 0-.433.486-.756.81-.973.216-.162.27-.216.27-.378s-.378-.162-.485-.162H145.8c-1.08 0-1.189-.432-1.189-1.728v-1.62c0-1.836.054-2.106 1.241-2.214.163 0 .325-.054.325-.216s-.162-.325-.377-.432c-.595-.27-2.593-1.35-2.593-2.052 0-.378.324-.702.54-.918 1.998-2.214 2.376-5.13 2.376-7.992 0-1.458.647-1.728 2.322-1.728.972 0 1.512.053 2.808.053h4.752Zm-10.69 38.45c0-.54-.432-1.026-1.027-1.026h-.485c-.541 0-1.028.485-1.028 1.025v1.08c0 .54.487 1.026 1.028 1.026h.485c.595 0 1.026-.432 1.026-1.026v-1.08Zm7.181 1.08c0 .593.432 1.025 1.026 1.025h.486c.594 0 1.026-.485 1.026-1.026v-1.08c0-.54-.432-1.025-1.026-1.025h-.486c-.54 0-1.026.485-1.026 1.025v1.08Zm1.512-20.792c-.27 0-.863.055-.863.433 0 .485 1.35 1.674 2.051 1.674.81 0 2.484-1.296 2.484-1.728 0-.379-.81-.379-1.35-.379h-2.322Z"/></g></g></g></svg>