<svg xmlns="http://www.w3.org/2000/svg" width="912" height="144"><defs><clipPath id="e"><path fill="none" d="M0 0h912v144H0z"/></clipPath><style>.f{fill:#fff8ee}</style></defs><g id="b"><g id="c"><g clip-path="url(#e)" id="d"><path class="f" d="M161.763 81.6V56.544h4.799c2.4 0 4.32-1.824 4.32-4.224v-8.735c0-2.304-1.92-4.224-4.32-4.224h-4.8V14.404h47.23c18.238 0 26.397 8.063 26.397 19.39 0 9.792-8.639 17.471-21.886 17.471h-18.43v1.536c0 2.4 2.111 3.744 4.895 3.744h8.255v25.054h-46.46Zm33.31-35.23h11.326c2.688-.097 4.224-1.632 4.224-3.456s-1.632-3.36-4.608-3.36h-10.943v6.816ZM273.6 56.641V81.6h-38.974V56.641h5.28c2.016 0 3.743-1.536 4.703-3.36l4.32-9.311c1.44-2.784-.672-4.608-3.552-4.608h-3.647V14.404h50.108c1.728 0 3.456 1.152 4.224 2.976l13.535 35.901c.864 2.016 2.688 3.36 4.703 3.36h4.224V81.6h-40.509V56.641h3.36c2.496 0 3.647-1.248 2.784-3.072l-.768-1.92h-15.167l-.768 1.92c-.864 1.824.384 3.072 2.784 3.072h3.36Zm-4.32-9.791h11.039l-2.208-4.224c-1.056-1.92-1.92-4.224-2.496-6.24h-1.632c-.671 2.016-1.535 4.32-2.591 6.24l-2.112 4.224ZM322.754 45.794c0-18.815 9.696-32.83 27.262-32.83 12.863 0 21.023 7.391 21.023 20.35h2.016v-18.91h24.766v33.022h-24.094c.095-5.472-3.552-9.504-11.904-9.504-7.775 0-11.615 3.456-11.615 8.831 0 7.008 6.432 11.232 20.927 11.232 10.27 0 18.91-2.112 26.686-6.432v26.398c-7.2 3.264-17.087 5.088-28.414 5.088-28.414 0-46.653-11.327-46.653-37.245ZM407.425 81.6V56.64h4.8c2.304 0 4.32-1.824 4.32-4.224V43.49c0-2.304-2.016-4.224-4.32-4.224h-4.8V14.404h40.893v24.862h-3.264c-2.4 0-4.415 1.92-4.415 4.224v8.927c0 2.4 1.823 4.224 4.223 4.224h3.072V81.6h-40.509Zm43.677-18.528-.96-12.287c-.768.384-1.824.576-2.784.576-2.976 0-5.088-1.728-5.088-4.415 0-2.496 2.112-3.936 4.416-3.936 2.208 0 4.32 1.152 4.32 3.648h1.728l3.168-3.264c.767-1.632 2.784-2.304 7.871-2.304v-1.824h-11.04V14.404h43.102v24.862h-1.824c-4.224 0-7.776.864-11.807 3.264l-6.336 3.264c-2.88 2.4-10.943 2.592-16.606 2.592v1.823c12.959-.768 12.575 6.624 19.007 6.624 3.743 0 5.663-2.688 5.663-6.528v-6.72h11.903V63.84c0 12.672-9.024 19.87-20.543 19.87-15.07 0-23.998-6.91-24.19-20.638ZM543.165 56.641V81.6h-38.973V56.641h5.28c2.015 0 3.744-1.536 4.704-3.36l4.32-9.311c1.44-2.784-.673-4.608-3.553-4.608h-3.647V14.404h50.108c1.728 0 3.455 1.152 4.224 2.976l13.535 35.901c.863 2.016 2.688 3.36 4.703 3.36h4.224V81.6H547.58V56.641h3.36c2.495 0 3.648-1.248 2.784-3.072l-.768-1.92H537.79l-.769 1.92c-.863 1.824.385 3.072 2.785 3.072h3.359Zm-4.32-9.791h11.04l-2.208-4.224c-1.056-1.92-1.92-4.224-2.495-6.24h-1.632c-.673 2.016-1.536 4.32-2.592 6.24l-2.112 4.224ZM592.32 45.794c0-18.815 9.599-32.83 27.165-32.83 12.96 0 21.12 7.391 21.12 20.35h1.92v-18.91h24.86v30.622h-24.093c0-4.416-3.552-7.104-11.903-7.104-7.871 0-11.711 3.456-11.711 8.831 0 7.008 3.84 11.424 17.47 11.424 2.4 0 4.128-.288 6.72-.96v-4.32h-11.424v-4.8h35.23v27.647c-7.967 4.511-17.662 7.295-29.086 7.295-28.126 0-46.269-11.327-46.269-37.245ZM726.139 49.921h24.381V81.6h-74.49V56.641h4.8c2.304 0 4.32-1.824 4.32-4.224v-8.831c0-2.4-2.016-4.224-4.32-4.224h-4.416V14.404h28.99c12.479 0 17.471 7.295 17.471 19.39h1.728v-19.39h24.478v31.678h-24.383v-2.016c0-2.976-2.015-4.704-4.415-4.704H709.34v5.856h4.223c2.016 0 2.785-1.056 2.785-3.072v-.384h4.51v12.575h-4.51v-.384c0-2.015-.769-2.975-2.785-2.975h-4.223v5.663h12.383c2.4 0 4.416-1.728 4.416-4.703V49.92ZM374.04 126.863c.24.12 1.705.912 1.849 1.032.096.072.192.144.192.288 0 .12-.048.168-.216.264-.336.168-.432.336-.6.648-1.369 2.52-2.785 4.777-4.609 6.985-.36.432-1.704 2.064-2.184 2.064-.408 0-2.976-1.536-2.976-2.136 0-.168.12-.312.216-.408 2.592-2.569 4.8-5.545 6.24-8.93.12-.263.216-.503.408-.503.288 0 1.368.528 1.68.696Zm7.561.048c.312.24 1.44 1.704 1.729 2.112.743 1.008 3.768 5.593 3.768 6.624 0 .529-1.128 1.105-1.536 1.32s-1.32.649-1.752.649c-.312 0-.456-.288-.553-.552-1.007-2.4-2.904-5.809-4.536-7.825-.144-.168-.288-.336-.288-.552 0-.36.912-.984 1.224-1.2.336-.24 1.032-.744 1.416-.744.192 0 .36.072.528.168Zm6.217-1.104c0 1.368-1.129 2.496-2.52 2.496a2.51 2.51 0 0 1-2.497-2.496c0-1.392 1.129-2.52 2.496-2.52a2.52 2.52 0 0 1 2.52 2.52Zm-3.793 0a1.28 1.28 0 0 0 1.272 1.272c.72 0 1.273-.576 1.273-1.272a1.25 1.25 0 0 0-1.273-1.272 1.28 1.28 0 0 0-1.272 1.272ZM400.584 132.12c.12.24.192.431.192.527 0 .6-2.111 1.537-2.472 1.537-.263 0-.408-.289-.504-.48a29.967 29.967 0 0 0-1.896-3.169c-.096-.144-.216-.312-.216-.48 0-.504 1.968-1.392 2.4-1.392.12 0 .312.12.48.336.768.912 1.416 2.04 2.016 3.12Zm8.905-3.697c.72.24 1.416.456 1.416.816 0 .12-.12.24-.312.384-.216.168-.263.168-.384.6-.816 2.689-1.416 4.512-3.264 6.72-1.92 2.281-3.984 3.433-6.769 4.369-.192.072-.6.216-.792.216-.384 0-1.008-.888-1.248-1.224-.024-.048-.072-.096-.12-.168-.192-.288-.48-.72-.48-.984 0-.312.168-.408.432-.48 1.224-.288 2.808-1.008 3.913-1.632 1.464-.864 2.664-1.92 3.528-3.385.984-1.655 1.512-3.432 1.776-5.352.048-.216.12-.528.36-.528s1.632.528 1.944.648Zm-6.312-.816c.768.888 1.512 2.208 2.088 3.24.096.192.144.36.144.456 0 .576-2.088 1.512-2.448 1.512-.264 0-.408-.264-.528-.48a24.632 24.632 0 0 0-1.945-3.24c-.095-.12-.168-.24-.168-.408 0-.456 1.969-1.368 2.425-1.368.12 0 .288.12.432.288ZM435.313 126.407c1.152 0 2.424-.072 3.144-.072.72 0 .792.288.792 1.512v.72c0 1.152-.023 1.44-.815 1.44-1.033 0-2.089-.048-3.121-.048h-.552c-.504 0-.72.408-.768.864-.288 3.385-1.536 6.529-3.936 8.953-.672.696-2.953 2.64-3.865 2.64-.48 0-1.368-.792-1.752-1.128-.24-.216-.864-.864-.864-1.176 0-.24.48-.504.696-.624 3.24-1.8 5.185-3.84 5.857-7.537.048-.288.192-1.128.192-1.32 0-.384-.264-.672-.673-.672H427.8c-.743 0-1.08.072-1.416.6-.456.72-3.048 4.32-3.72 4.32-.312 0-1.152-.431-1.848-.912-.6-.431-1.104-.887-1.104-1.175 0-.217.336-.48.504-.624 2.736-2.4 5.4-6.769 6-10.37.073-.336.12-.6.336-.6.312 0 2.425.673 2.88.817.409.12 1.177.336 1.177.575 0 .12-.12.193-.264.265-.48.264-.624.72-.888 1.488-.096.288-.216.624-.36 1.008-.048.144-.144.408-.144.528 0 .36.24.504.552.528h5.808ZM461.521 129.767c1.416 0 2.953-.096 3.168-.096.624 0 .721.264.721.96v1.152c0 1.32-.024 1.728-.792 1.728-.936 0-2.04-.072-3.097-.072h-11.04c-1.056 0-2.185.072-3.073.072-.816 0-.816-.456-.816-1.728v-1.104c0-.72.072-1.008.696-1.008.336 0 1.68.096 3.192.096h11.041ZM475.68 127.919c.336 0 2.472 1.296 2.904 1.56.648.384 1.488.888 2.064 1.368.168.12.336.264.336.48 0 .528-1.536 2.665-2.064 2.665-.144 0-.408-.193-.552-.288a39.67 39.67 0 0 0-4.248-2.713c-.168-.096-.36-.192-.36-.384 0-.504 1.391-2.688 1.92-2.688Zm14.882-.648c.311.264 1.175.984 1.175 1.32 0 .24-.36 1.08-.48 1.368-2.496 5.929-6.817 9.217-12.72 11.425-.697.264-.77.336-.985.696-.048.048-.144.12-.216.12-.192 0-.408-.408-.48-.576-.312-.624-1.08-2.376-1.32-2.808-.048-.12-.097-.24-.097-.36 0-.192.336-.288.48-.336.673-.168 2.233-.744 2.929-1.008 2.28-.888 3.984-1.8 5.76-3.529 2.04-1.944 3.025-3.96 4.057-6.552.12-.264.24-.576.576-.576s1.056.6 1.32.816Zm-8.666-2.472c.48.336 1.609 1.128 1.609 1.464 0 .504-1.513 2.544-2.04 2.544-.193 0-.505-.264-.649-.384a48.626 48.626 0 0 0-4.104-2.904c-.144-.072-.264-.168-.264-.336 0-.433 1.56-2.425 2.064-2.425.312 0 2.665 1.536 3.384 2.04Zm4.657-2.304c.144 0 2.496 1.776 2.496 2.184 0 .456-1.008 1.488-1.296 1.488-.12 0-.384-.288-.528-.432-.6-.576-1.2-1.056-1.848-1.56-.12-.096-.216-.168-.216-.312 0-.312 1.128-1.368 1.392-1.368Zm2.688-1.945c.384.24 2.16 1.584 2.16 1.969 0 .432-.96 1.488-1.272 1.488-.096 0-.216-.12-.288-.193-.648-.624-1.32-1.175-2.016-1.728-.144-.096-.312-.191-.312-.36 0-.311 1.104-1.368 1.368-1.368.12 0 .24.096.36.192ZM503.593 130.343c-.12.168-.456.6-.456.792 0 .12.168.168.263.168.288 0 1.033-.024 1.033-.384 0-.192-.096-.456-.145-.624-.023-.12-.12-.408-.12-.552 0-.504 1.44-.768 1.849-.768.431 0 .503.192 1.128 2.496.12.456.528 2.136.528 2.52 0 .552-1.752.985-2.065.985-.311 0-.36-.168-.431-.528-.025-.12-.048-.312-.288-.312s-.36.24-.36.48v3.888c0 1.248.047 2.496.047 3.744 0 .624-.24.672-.983.672h-1.297c-.744 0-.936-.048-.936-.696 0-1.248.048-2.472.048-3.72V136.8c0-.144-.048-.288-.192-.288-.264 0-.264.36-.288.696-.048 1.152-.216 2.808-.408 4.104-.096.6-.144.792-.48.792-.408 0-2.064-.36-2.064-.84 0-.168.288-1.608.335-1.872.168-1.2.265-2.4.36-3.6 0-.168 0-.408.313-.408.144 0 .456.072.624.095.216.049 1.344.289 1.512.289.216 0 .288-.12.288-.336v-.336c0-.336-.12-.432-.431-.432-.097 0-1.057.071-1.249.096-.24.024-.24.072-.336.263a.312.312 0 0 1-.289.168c-.263 0-.335-.144-.671-1.631-.096-.385-.24-1.104-.24-1.489 0-.432.144-.432.768-.432.864-.048.912-.216 1.32-.912.096-.168.192-.312.192-.504 0-.336-.336-.648-.576-.888-.432-.456-1.392-1.416-1.873-1.776-.095-.072-.215-.168-.215-.312 0-.432 1.008-2.592 1.464-2.592.144 0 .264.144.36.144.168 0 .216-.12.384-.552.169-.457.625-1.632.936-2.544.12-.36.144-.577.36-.577.289 0 2.304.816 2.64.984.192.097.265.192.265.312 0 .193-.12.288-.313.312-.24.024-.36.024-.456.264-.431.937-.864 1.849-1.296 2.76-.12.241-.456.817-.456 1.009 0 .192.168.432.384.432.145 0 .24-.12.456-.528s.696-1.44 1.008-2.208c.097-.216.192-.48.433-.48.335 0 1.92.792 2.328.984.383.168.744.288.744.528 0 .24-.193.312-.313.312-.239 0-.384.048-.48.24a41.382 41.382 0 0 1-2.663 4.296Zm3.624 6.313c.143.624.528 2.424.528 2.976 0 .6-1.392.96-1.872.96-.433 0-.433-.312-.505-.864-.143-1.32-.36-2.16-.624-3.432a1.45 1.45 0 0 1-.048-.337c0-.551 1.248-.743 1.68-.743.48 0 .528.12.84 1.44Zm8.112-14.93c.576 0 1.345-.048 1.849-.048 1.44 0 1.944.24 1.944 1.753 0 1.488-.288 5.184-.912 6.432-.72 1.392-2.257 1.464-3.649 1.464-1.152 0-1.68-.024-1.68-2.184 0-.408 0-1.104.456-1.104.192 0 .48.072.768.072.552 0 .96-.072 1.153-.648.168-.552.263-1.656.263-2.232 0-.432-.095-.48-.48-.48h-1.008c-.792 0-.84.504-.935 1.032-.577 3.384-3.578 6.024-4.153 6.024-.6 0-2.089-1.68-2.089-2.184 0-.144.12-.24.24-.312.96-.72 2.065-1.872 2.497-3.024.095-.312.288-.936.288-1.224 0-.288-.24-.312-.6-.312-.408 0-.816.048-1.224.048-.577 0-.624-.24-.624-1.032v-1.128c0-.744.047-.96.648-.96.647 0 1.368.048 2.16.048h5.088Zm-7.345 12.961c0-.671-.048-1.176-.048-1.488 0-.816 1.105-.816 1.681-.816.744 0 1.464.048 2.208.048h3.12c.744 0 1.464-.048 2.208-.048.6 0 1.68 0 1.68.816 0 .337-.071.793-.071 1.488v5.833c0 .84.072 1.632.072 1.944 0 .384-.24.432-1.057.432h-1.632c-.528 0-.768-.048-.768-.432 0-.12.024-.216.024-.336 0-.36-.288-.696-.672-.696h-2.688a.697.697 0 0 0-.696.696v.336c0 .384-.24.432-.744.432h-1.656c-.768 0-1.009-.048-1.009-.408 0-.288.048-1.272.048-1.968v-5.832Zm3.313 3.193c0 .384.288.672.672.672h2.808c.36 0 .672-.312.672-.672v-1.872a.67.67 0 0 0-.672-.673h-2.808a.656.656 0 0 0-.672.673v1.872ZM540.817 139.536c0 .912.073 1.824.073 2.736 0 .552-.264.624-1.008.624h-1.656c-.697 0-.985-.072-.985-.624 0-.864.072-1.8.072-2.736v-8.257c0-.528-.024-1.08-.072-1.56 0-.072-.023-.168-.023-.24 0-.288.263-.312.504-.312.408 0 .983.024 1.248.024.12 0 .288-.048.288-.192 0-.168-.145-.288-.265-.384-.983-.816-2.496-2.424-3.311-3.432-.12-.144-.288-.336-.505-.336-.24 0-.407.216-.624.48a36.35 36.35 0 0 1-2.928 3.144c-.096.096-.216.24-.216.36 0 .288.336.312 1.2.36.24.024.528.048.624.048.72.024 1.08.072 1.08.408 0 .12-.072.192-.264.288-.312.144-.336.264-.336.768v1.632c0 2.425-.336 4.825-1.656 6.913-.72 1.152-1.776 2.352-2.928 3.096a7.428 7.428 0 0 0-.456.288c-.193.12-.288.192-.504.192-1.057 0-2.4-1.944-2.4-2.424 0-.264.311-.432.528-.552 1.607-.888 3.072-2.664 3.504-4.464.263-1.056.336-1.992.336-3.072v-1.44c0-.409-.024-.649-.288-.649-.168 0-.409.192-.529.312-.456.384-2.231 1.848-2.712 1.848-.912 0-2.208-2.184-2.208-2.52 0-.192.168-.312.336-.408 2.592-1.464 7.297-5.617 8.618-8.257.119-.216.19-.312.431-.312.408 0 2.112.336 2.664.408 1.008.144 1.393.216 1.393.6 0 .168-.049.216-.145.289-.072.047-.143.144-.143.24s.431.648.983 1.247c.072.049.12.12.145.144 1.944 2.017 4.32 3.865 6.793 5.161.48.24.792.384.792.672 0 .576-1.489 2.544-2.233 2.544-.504 0-2.137-1.272-2.593-1.632a.505.505 0 0 0-.311-.12c-.288 0-.313.336-.313.888v8.21ZM584.5 126l-3.537 3.515a4.955 4.955 0 0 0 0 7.032 5.03 5.03 0 0 0 7.074 0 4.955 4.955 0 0 0 0-7.032L584.5 126ZM327.5 126l-3.537 3.515a4.955 4.955 0 0 0 0 7.032 5.03 5.03 0 0 0 7.074 0 4.955 4.955 0 0 0 0-7.032L327.5 126Z"/></g></g></g></svg>