<svg xmlns="http://www.w3.org/2000/svg" width="350" height="84"><defs><clipPath id="e"><path fill="none" d="M0 0h350v84H0z"/></clipPath><style>.f{fill:#fff8ee}</style></defs><g id="b"><g id="c"><g clip-path="url(#e)" id="d"><path class="f" d="M33.324 39.1V27.092h2.3c1.15 0 2.07-.874 2.07-2.024v-4.186c0-1.105-.92-2.025-2.07-2.025h-2.3V6.896h22.634c8.741 0 12.651 3.865 12.651 9.293 0 4.693-4.14 8.373-10.489 8.373h-8.833v.736c0 1.15 1.013 1.794 2.347 1.794h3.956V39.1H33.324Zm15.963-16.884h5.429c1.288-.046 2.024-.782 2.024-1.656s-.782-1.61-2.208-1.61h-5.245v3.266ZM88.296 27.139v11.96H69.618V27.14h2.53c.966 0 1.794-.737 2.254-1.61l2.07-4.464c.69-1.334-.322-2.208-1.701-2.208h-1.749V6.896h24.015c.828 0 1.656.552 2.025 1.426l6.486 17.206c.414.966 1.288 1.61 2.254 1.61h2.024V39.1H90.412V27.139h1.61c1.197 0 1.749-.599 1.334-1.473l-.368-.92H85.72l-.368.92c-.414.874.183 1.473 1.334 1.473h1.61Zm-2.07-4.694h5.29l-1.058-2.023c-.506-.921-.92-2.025-1.196-2.991h-.783c-.32.966-.735 2.07-1.242 2.99l-1.011 2.024ZM112.306 21.94c0-9.017 4.646-15.734 13.065-15.734 6.165 0 10.075 3.542 10.075 9.753h.967V6.896h11.87v15.826h-11.549c.046-2.622-1.702-4.555-5.704-4.555-3.726 0-5.567 1.656-5.567 4.232 0 3.359 3.083 5.383 10.03 5.383 4.922 0 9.063-1.012 12.79-3.082v12.652c-3.451 1.564-8.19 2.438-13.619 2.438-13.617 0-22.358-5.429-22.358-17.85ZM152.418 39.1V27.139h2.3c1.104 0 2.07-.875 2.07-2.025v-4.278c0-1.105-.966-2.024-2.07-2.024h-2.3V6.896h19.598v11.916h-1.565c-1.15 0-2.116.92-2.116 2.024v4.278c0 1.15.874 2.025 2.024 2.025h1.473v11.96h-19.414Zm20.932-8.88-.46-5.888c-.369.184-.874.276-1.334.276-1.426 0-2.439-.828-2.439-2.116 0-1.196 1.013-1.887 2.116-1.887 1.059 0 2.07.552 2.07 1.749h.829l1.518-1.565c.369-.781 1.334-1.103 3.773-1.103v-.874h-5.291V6.896h20.656v11.916h-.874c-2.024 0-3.727.414-5.658 1.563l-3.037 1.564c-1.38 1.15-5.244 1.243-7.958 1.243v.874c6.21-.368 6.026 3.174 9.108 3.174 1.795 0 2.715-1.288 2.715-3.128v-3.22h5.704v9.707c0 6.072-4.324 9.522-9.845 9.522-7.222 0-11.502-3.311-11.593-9.89ZM217.003 27.139v11.96h-18.678V27.14h2.53c.966 0 1.794-.737 2.254-1.61l2.07-4.464c.69-1.334-.322-2.208-1.701-2.208h-1.749V6.896h24.015c.828 0 1.656.552 2.025 1.426l6.486 17.206c.414.966 1.288 1.61 2.254 1.61h2.024V39.1H219.12V27.139h1.61c1.197 0 1.749-.599 1.334-1.473l-.368-.92h-7.268l-.368.92c-.414.874.183 1.473 1.334 1.473h1.61Zm-2.07-4.694h5.29l-1.058-2.023c-.506-.921-.92-2.025-1.196-2.991h-.782c-.322.966-.736 2.07-1.243 2.99l-1.011 2.024ZM241.013 21.94c0-9.017 4.6-15.734 13.02-15.734 6.21 0 10.12 3.542 10.12 9.753h.92V6.896h11.916V21.57h-11.548c0-2.116-1.702-3.404-5.704-3.404-3.772 0-5.613 1.656-5.613 4.232 0 3.359 1.84 5.475 8.373 5.475 1.15 0 1.979-.138 3.22-.46v-2.07h-5.474v-2.3h16.884v13.249c-3.818 2.162-8.465 3.497-13.94 3.497-13.479 0-22.174-5.429-22.174-17.85ZM305.14 23.918h11.685V39.1h-35.699V27.139h2.3c1.104 0 2.07-.875 2.07-2.025v-4.232c0-1.15-.966-2.025-2.07-2.025h-2.116V6.896h13.893c5.98 0 8.373 3.497 8.373 9.293h.828V6.896h11.732v15.182H304.45v-.967c0-1.425-.966-2.254-2.116-2.254h-5.245v2.807h2.024c.967 0 1.334-.507 1.334-1.473v-.183h2.163v6.026h-2.163v-.184c0-.966-.367-1.426-1.334-1.426h-2.024v2.715h5.935c1.15 0 2.117-.828 2.117-2.255v-.966ZM113.531 71.145c.18.09 1.28.684 1.387.774.072.054.144.108.144.216 0 .09-.036.126-.162.198-.252.126-.324.252-.45.486-1.026 1.89-2.089 3.583-3.457 5.24-.27.324-1.278 1.548-1.639 1.548-.305 0-2.232-1.152-2.232-1.602 0-.126.09-.235.162-.307 1.945-1.926 3.6-4.159 4.68-6.697.092-.198.163-.379.307-.379.216 0 1.027.397 1.26.523Zm5.672.036c.235.18 1.08 1.278 1.297 1.585.558.755 2.826 4.194 2.826 4.968 0 .397-.846.828-1.152.99-.306.163-.99.487-1.315.487-.233 0-.341-.216-.414-.414-.756-1.8-2.177-4.358-3.402-5.87-.108-.126-.217-.252-.217-.414 0-.27.685-.739.92-.9.251-.18.774-.558 1.062-.558.143 0 .27.053.395.126Zm4.664-.828a1.886 1.886 0 0 1-1.89 1.872 1.883 1.883 0 0 1-1.873-1.872c0-1.044.846-1.891 1.873-1.891a1.89 1.89 0 0 1 1.89 1.89Zm-2.846 0a.96.96 0 0 0 .956.954c.54 0 .954-.432.954-.954a.938.938 0 0 0-.954-.955.96.96 0 0 0-.956.955ZM133.44 75.088c.09.18.144.324.144.396 0 .45-1.585 1.153-1.855 1.153-.198 0-.306-.217-.378-.36-.432-.829-.9-1.622-1.422-2.378-.073-.108-.162-.234-.162-.36 0-.378 1.476-1.044 1.8-1.044.09 0 .234.09.36.252.576.685 1.062 1.53 1.512 2.34Zm6.68-2.773c.54.18 1.062.342 1.062.612 0 .09-.09.18-.235.288-.16.127-.197.127-.287.45-.612 2.017-1.062 3.386-2.45 5.042-1.44 1.71-2.988 2.574-5.076 3.277-.145.054-.45.162-.595.162-.288 0-.756-.667-.936-.918-.018-.037-.054-.073-.09-.126-.144-.216-.36-.54-.36-.739 0-.234.126-.305.324-.36.919-.216 2.107-.756 2.935-1.224 1.098-.648 1.998-1.44 2.647-2.539.738-1.242 1.134-2.575 1.332-4.015.036-.162.09-.396.27-.396s1.225.396 1.458.486Zm-4.736-.612c.576.666 1.135 1.656 1.566 2.43.072.144.109.27.109.343 0 .432-1.567 1.134-1.837 1.134-.198 0-.306-.198-.396-.36-.432-.864-.9-1.639-1.459-2.43a.475.475 0 0 1-.126-.307c0-.342 1.477-1.027 1.819-1.027.09 0 .216.091.324.217ZM159.487 70.803c.865 0 1.819-.055 2.359-.055s.594.217.594 1.135v.54c0 .864-.018 1.08-.612 1.08-.774 0-1.566-.035-2.34-.035h-.415c-.378 0-.54.305-.576.647-.216 2.54-1.152 4.898-2.953 6.717-.504.522-2.215 1.98-2.898 1.98-.36 0-1.027-.594-1.315-.846-.18-.162-.648-.649-.648-.882 0-.18.36-.379.522-.469 2.43-1.35 3.889-2.88 4.393-5.653.036-.216.144-.847.144-.99a.482.482 0 0 0-.504-.504h-1.386c-.559 0-.811.053-1.063.45-.342.54-2.286 3.24-2.79 3.24-.234 0-.865-.324-1.387-.683-.45-.325-.829-.667-.829-.883 0-.162.253-.36.38-.468 2.052-1.8 4.05-5.078 4.5-7.778.054-.252.09-.45.252-.45.234 0 1.818.503 2.161.612.306.09.882.252.882.431 0 .09-.09.145-.198.199-.36.198-.468.54-.666 1.116a24.13 24.13 0 0 1-.27.757c-.036.107-.108.305-.108.395 0 .27.18.378.414.397h4.357ZM179.144 73.323c1.062 0 2.214-.072 2.376-.072.468 0 .54.198.54.72v.865c0 .99-.017 1.296-.593 1.296-.702 0-1.53-.054-2.323-.054h-8.283c-.792 0-1.638.054-2.304.054-.613 0-.613-.342-.613-1.296v-.828c0-.54.055-.757.523-.757.252 0 1.26.072 2.394.072h8.283ZM189.76 71.937c.253 0 1.855.972 2.18 1.17.486.289 1.116.666 1.548 1.027.126.09.252.198.252.36 0 .396-1.152 1.998-1.549 1.998-.107 0-.305-.143-.414-.216a29.836 29.836 0 0 0-3.186-2.035c-.126-.071-.27-.143-.27-.288 0-.378 1.044-2.016 1.44-2.016Zm11.164-.486c.234.197.883.738.883.99 0 .18-.27.81-.36 1.027-1.873 4.447-5.114 6.914-9.544 8.57-.521.198-.576.252-.738.523-.036.035-.107.09-.162.09-.144 0-.306-.307-.36-.433-.234-.468-.81-1.782-.99-2.107-.036-.09-.072-.18-.072-.27 0-.144.252-.216.36-.252.504-.126 1.674-.558 2.197-.756 1.71-.666 2.989-1.35 4.321-2.646 1.53-1.46 2.269-2.972 3.043-4.917.09-.198.18-.431.432-.431.253 0 .793.45.99.612Zm-6.5-1.855c.36.253 1.207.846 1.207 1.098 0 .378-1.135 1.91-1.53 1.91-.145 0-.378-.199-.487-.289a36.375 36.375 0 0 0-3.079-2.178c-.108-.055-.198-.126-.198-.252 0-.324 1.17-1.82 1.549-1.82.234 0 1.998 1.153 2.539 1.53Zm3.493-1.729c.108 0 1.873 1.333 1.873 1.639 0 .343-.756 1.116-.973 1.116-.09 0-.288-.216-.395-.323-.45-.433-.9-.793-1.387-1.171-.09-.072-.162-.126-.162-.234 0-.234.847-1.027 1.044-1.027Zm2.017-1.458c.288.18 1.62 1.189 1.62 1.477 0 .324-.72 1.116-.953 1.116-.073 0-.163-.09-.217-.144-.486-.468-.99-.882-1.512-1.296-.108-.073-.234-.144-.234-.271 0-.233.828-1.025 1.026-1.025.09 0 .18.07.27.143ZM210.695 73.756c-.09.126-.341.45-.341.594 0 .09.125.126.197.126.217 0 .774-.018.774-.289 0-.143-.072-.341-.108-.467-.018-.091-.09-.307-.09-.414 0-.38 1.081-.577 1.387-.577.324 0 .378.144.846 1.873.09.341.396 1.602.396 1.89 0 .414-1.315.738-1.548.738-.234 0-.27-.126-.324-.396-.019-.09-.036-.233-.217-.233-.18 0-.27.18-.27.359v2.917c0 .936.037 1.873.037 2.81 0 .467-.181.503-.739.503h-.972c-.558 0-.703-.036-.703-.522 0-.937.037-1.855.037-2.791v-1.278c0-.108-.036-.216-.145-.216-.197 0-.197.27-.216.522a33.17 33.17 0 0 1-.305 3.08c-.073.449-.109.593-.36.593-.306 0-1.55-.27-1.55-.63 0-.126.217-1.207.253-1.405.126-.9.198-1.8.27-2.7 0-.126 0-.307.234-.307.108 0 .342.055.468.072.162.037 1.009.216 1.135.216.162 0 .216-.09.216-.252v-.252c0-.252-.09-.324-.325-.324-.072 0-.792.055-.936.072-.18.018-.18.054-.252.199a.235.235 0 0 1-.216.126c-.198 0-.252-.109-.504-1.225-.072-.288-.18-.828-.18-1.116 0-.324.108-.324.576-.324.648-.037.684-.163.99-.684.072-.126.144-.234.144-.379 0-.252-.251-.485-.432-.666-.323-.342-1.044-1.062-1.404-1.332-.072-.054-.163-.126-.163-.234 0-.325.757-1.945 1.1-1.945.107 0 .197.108.27.108.126 0 .162-.09.288-.414.126-.342.467-1.224.702-1.909.09-.27.107-.431.27-.431.216 0 1.728.611 1.98.738.144.071.198.144.198.233 0 .145-.09.216-.233.235-.181.017-.27.017-.343.198-.324.702-.649 1.386-.972 2.07-.09.18-.343.613-.343.756 0 .145.126.325.289.325.108 0 .18-.09.342-.396.161-.307.522-1.081.756-1.657.072-.162.144-.36.324-.36.252 0 1.44.594 1.746.739.289.126.56.215.56.395 0 .18-.145.235-.235.235-.18 0-.288.036-.36.18a31.08 31.08 0 0 1-1.999 3.223Zm2.72 4.735c.106.468.396 1.819.396 2.233 0 .45-1.045.72-1.406.72-.323 0-.323-.234-.378-.648-.107-.99-.27-1.621-.467-2.575a1.037 1.037 0 0 1-.037-.252c0-.414.937-.559 1.261-.559.36 0 .396.091.63 1.081Zm6.085-11.2c.432 0 1.008-.035 1.386-.035 1.08 0 1.459.18 1.459 1.314 0 1.117-.216 3.889-.685 4.825-.54 1.044-1.692 1.1-2.736 1.1-.864 0-1.26-.02-1.26-1.64 0-.306 0-.828.34-.828.145 0 .361.054.577.054.415 0 .72-.054.864-.486.127-.414.199-1.242.199-1.675 0-.324-.072-.36-.36-.36h-.757c-.593 0-.63.378-.702.774-.431 2.539-2.682 4.52-3.115 4.52-.45 0-1.566-1.26-1.566-1.64 0-.107.09-.179.18-.233.72-.54 1.548-1.404 1.872-2.268.073-.234.216-.702.216-.92 0-.215-.18-.232-.45-.232-.306 0-.611.035-.918.035-.432 0-.468-.18-.468-.774v-.846c0-.558.036-.72.486-.72.486 0 1.027.035 1.62.035h3.818Zm-5.51 9.724c0-.505-.036-.883-.036-1.117 0-.612.828-.612 1.26-.612.558 0 1.098.036 1.657.036h2.34c.559 0 1.099-.036 1.657-.036.45 0 1.26 0 1.26.612 0 .252-.054.594-.054 1.117v4.375c0 .63.055 1.224.055 1.458 0 .289-.18.324-.793.324h-1.224c-.396 0-.576-.035-.576-.324 0-.09.018-.161.018-.252 0-.27-.216-.522-.504-.522h-2.017a.522.522 0 0 0-.522.522v.252c0 .289-.18.324-.558.324h-1.243c-.576 0-.756-.035-.756-.306 0-.216.036-.954.036-1.476v-4.375Zm2.485 2.394c0 .288.216.504.504.504h2.107c.27 0 .504-.233.504-.504v-1.404a.503.503 0 0 0-.504-.504h-2.107a.492.492 0 0 0-.504.504v1.404ZM238.615 80.651c0 .685.054 1.369.054 2.053 0 .414-.197.468-.756.468h-1.242c-.523 0-.738-.054-.738-.468 0-.648.053-1.35.053-2.053v-6.193c0-.396-.017-.81-.053-1.17 0-.055-.019-.127-.019-.18 0-.216.198-.235.379-.235.306 0 .738.019.936.019.09 0 .216-.037.216-.145 0-.126-.108-.216-.198-.288-.738-.612-1.873-1.818-2.485-2.574-.09-.109-.216-.253-.378-.253-.18 0-.306.162-.468.36a27.3 27.3 0 0 1-2.196 2.359c-.073.072-.162.18-.162.27 0 .216.252.234.899.27.18.018.397.036.469.036.54.018.81.054.81.306 0 .09-.054.144-.198.216-.234.109-.252.198-.252.576v1.225c0 1.818-.253 3.62-1.243 5.186-.54.864-1.332 1.764-2.196 2.322a5.49 5.49 0 0 0-.342.217c-.145.09-.216.143-.378.143-.793 0-1.8-1.458-1.8-1.818 0-.198.234-.324.395-.414 1.207-.666 2.304-2 2.629-3.35.198-.792.252-1.494.252-2.305v-1.08c0-.305-.018-.486-.216-.486-.126 0-.306.145-.396.234-.343.289-1.675 1.387-2.035 1.387-.685 0-1.656-1.639-1.656-1.89 0-.145.126-.235.252-.307 1.944-1.098 5.473-4.213 6.464-6.193.09-.163.144-.235.324-.235.306 0 1.584.252 1.998.307.757.107 1.045.162 1.045.45 0 .126-.036.162-.109.216-.053.036-.107.107-.107.18s.323.486.738.936c.054.036.09.09.108.108 1.459 1.512 3.24 2.899 5.095 3.871.36.18.594.289.594.504 0 .432-1.116 1.909-1.674 1.909-.378 0-1.602-.954-1.944-1.224a.378.378 0 0 0-.234-.09c-.216 0-.235.251-.235.666v6.157ZM272 70.5l-2.653 2.637a3.716 3.716 0 0 0 0 5.273 3.773 3.773 0 0 0 5.306 0 3.716 3.716 0 0 0 0-5.273L272 70.5ZM78 70.5l-2.653 2.637a3.716 3.716 0 0 0 0 5.273 3.773 3.773 0 0 0 5.306 0 3.716 3.716 0 0 0 0-5.273L78 70.5Z"/></g></g></g></svg>