<svg xmlns="http://www.w3.org/2000/svg" width="200" height="200"><defs><clipPath id="e"><path fill="none" d="M0 0h200v200H0z"/></clipPath><style>.f{fill:#ff622c}</style></defs><g id="b"><g id="c"><g clip-path="url(#e)" id="d"><path class="f" d="m51.973 32.733-2.88-5.034.965-.55c.482-.277.658-.864.382-1.346l-1.004-1.755a.992.992 0 0 0-1.353-.353l-.965.552-2.868-5.015 9.49-5.427c3.664-2.096 6.23-1.414 7.531.862 1.126 1.967.272 4.503-2.39 6.025l-3.702 2.119.176.308c.276.483.855.51 1.415.19l1.658-.949 2.88 5.034-9.335 5.34Zm2.643-10.906 2.276-1.302c.529-.328.661-.813.452-1.18-.21-.366-.715-.487-1.312-.145l-2.199 1.258.783 1.37ZM83.687 18.956 67.62 23.935l-1.71-5.519.976-.303c.51-.157.83-.699.666-1.23l-.605-1.951c-.165-.532-.736-.796-1.245-.639l-1.06.33-1.71-5.52 10.23-3.17 1.71 5.52-1.932.598a.971.971 0 0 0-.645 1.222l.895 2.887 2.42-.749c.53-.165.877-.62.627-1.428l-.559-1.803 5.391-1.671 2.618 8.447ZM95.632 12.104l.238 5.773-9.014.371-.238-5.771 1.22-.051c.467-.02.852-.39 1.057-.822l.91-2.195c.306-.657-.2-1.06-.866-1.032l-.843.035-.238-5.772 11.59-.478c.399-.017.81.233 1.004.648l3.473 8.174c.22.458.654.751 1.12.732l.976-.04.239 5.772-9.369.387-.238-5.773.777-.032c.577-.023.832-.323.614-.737l-.195-.437-3.508.145-.16.451c-.182.43.118.707.673.685l.778-.033Zm-1.093-2.223 2.553-.106-.55-.955a7.26 7.26 0 0 1-.637-1.42l-.378.016c-.136.473-.314 1.014-.54 1.468l-.448.997ZM124.667 15.247l-1.19 5.653-12.851-2.705 1.19-5.653 2.805.59a.972.972 0 0 0 1.158-.755l.1-.479c-.978-.206-1.45-.441-1.984-1.03l-1.427-1.527c-.804-.714-1.497-1.087-2.476-1.293l-.718-.152 1.186-5.631 9.285 1.955-1.185 5.63-2.088-.439-.087.414c.718.15 1.226.644 1.426 1.208l.558 1.23.392.083 1.007-.9c.41-.437 1.075-.683 1.792-.532l.086-.413-2.086-.44 1.185-5.631 9.284 1.955-1.185 5.632-.717-.152c-.914-.192-1.747-.118-2.787.186l-2.009.802c-.77.316-1.188.364-2.124.167l-.1.478a.959.959 0 0 0 .755 1.158l2.805.591ZM151.685 28.476l-3.036 4.916-11.04-6.818 3.035-4.915 2.381 1.47a.972.972 0 0 0 1.346-.317l1.996-3.234-.321-.198c-.454-.28-.865-.037-1.215.53l-1.249 2.023-4.708-2.908 4.447-7.203 15.976 9.865-4.447 7.203-4.727-2.918 1.25-2.024c.35-.567.382-1.043-.071-1.323l-.303-.187-1.996 3.233a.959.959 0 0 0 .318 1.346l2.364 1.459ZM152.285 35.745l4.182-4.017.723.752c.385.4.982.413 1.382.028l1.443-1.386a.96.96 0 0 0 .027-1.383l-.724-.753 4.182-4.018 6.636 6.905-4.182 4.019-.646-.673c-.385-.4-.997-.428-1.399-.043l-.24.23 3.403 3.541.24-.231a.958.958 0 0 0 .028-1.382l-.662-.69 4.181-4.017 6.62 6.889-4.181 4.018-.693-.72c-.384-.4-.997-.43-1.398-.044l-1.441 1.385c-.4.385-.398.998-.013 1.399l.693.72-4.181 4.019-6.62-6.889 4.181-4.018.662.688c.385.4.982.412 1.382.028l.225-.215-3.403-3.541-.224.216c-.4.384-.398.997-.013 1.398l.648.673-4.182 4.017-6.636-6.905ZM179.734 59.08l2.748 4.93-6.405 3.57-8.394-15.061 5.046-2.813.54.97c.26.467.856.668 1.341.398l1.786-.996c.486-.27.627-.883.368-1.35l-.498-.892 5.047-2.813 3.266 5.862c1.406 2.523.494 4.354-1.951 5.718l.194.35 3.921-2.186 2.759 4.949-6.405 3.57-2.748-4.93.408-.227c.601-.335.723-.938.453-1.423l-1.233-2.213-1.184.66.476.855c.227.407.527.443.934.217l.078-.044.508.912-2.542 1.418-.509-.913.078-.043c.408-.228.515-.49.288-.899l-.476-.853-1.146.637 1.396 2.504c.27.486.848.699 1.45.364l.406-.228ZM179.384 76.048l5.704-.926.179 1.074c.091.548.58.918 1.129.826l2.017-.335c.548-.091.892-.6.8-1.147l-.178-1.074 5.701-.948 1.426 8.573-3.808 1.895c-.812.406-1.985.668-2.686.785l.076.46c.701-.117 1.9-.225 2.796-.126l4.22.582 1.423 8.551-5.702.949-.178-1.075c-.091-.549-.581-.918-1.13-.826l-2.017.335c-.548.092-.891.6-.8 1.148l.178 1.074-5.7.948-1.499-9.012 5.635-.937.073.438c.09.548.581.918 1.129.826l.548-.09c.811-.135 1.55-.303 2.236-.238l.037-.456c-.753-.055-1.52-.198-2.36-.374l-2.784-.618-.202-1.342 2.416-1.46c.925-.537 1.485-.833 2.113-1.118l-.182-.42c-.629.284-1.386.343-2.197.478l-.548.092c-.548.09-.888.62-.8 1.146l.076.461-5.635.938-1.506-9.057ZM190.438 99.192c4.537.41 7.806 3.716 7.265 9.712-.544 6.019-4.351 8.663-8.888 8.254-4.557-.412-7.807-3.695-7.263-9.713.54-5.996 4.329-8.665 8.886-8.253Zm-1.069 11.837c1.283.116 2.347-.792 2.515-2.65.172-1.903-.714-2.965-1.997-3.08-1.305-.118-2.366.767-2.538 2.67-.168 1.858.714 2.942 2.02 3.06ZM179.335 122.107l9.572-.166c.492.001.914-.35 1.063-.792l.346-1.032 5.479 1.837-2.903 8.66-5.48-1.837.142-.42c.176-.528-.182-.789-.631-.775l-2.425.102c-.577.04-1.118.046-1.638-.08l-.12.357c.513.219 1.095.719 1.355.924l1.874 1.542c.343.302.794.289.97-.238l.141-.421 5.48 1.836-2.905 8.662-5.478-1.837.346-1.033a1.173 1.173 0 0 0-.37-1.273l-7.539-5.902 2.72-8.114ZM174.321 147.43l-5.05-2.852 4.743-8.396 5.05 2.851-.514.91a.958.958 0 0 0 .37 1.331l1.742.984a.959.959 0 0 0 1.332-.371l.513-.91 5.05 2.852-4.742 8.398-5.05-2.852.492-.871c.273-.483.124-1.078-.36-1.352l-1.74-.983c-.484-.273-1.071-.094-1.344.39l-.492.87ZM166.128 160.472l-3.671 4.29-5.574-4.769 11.214-13.107 4.391 3.757-.722.844c-.347.406-.33 1.035.092 1.396l1.555 1.33c.422.361 1.046.28 1.393-.125l.665-.776 4.391 3.756-4.363 5.101c-1.879 2.196-3.914 1.977-6.042.156l-.26.304 3.411 2.919-3.684 4.308-5.574-4.769 3.67-4.291.355.304c.523.448 1.13.353 1.492-.07l1.648-1.925-1.03-.881-.636.743c-.304.354-.234.648.12.952l.068.058-.679.794-2.212-1.893.678-.794.068.058c.355.303.64.312.943-.042l.636-.744-.997-.852-1.864 2.179c-.361.422-.361 1.037.162 1.485l.356.304ZM149.886 165.9l3.02 4.95-.95.579c-.474.289-.634.88-.344 1.354l1.052 1.727a.991.991 0 0 0 1.362.313l.95-.578 3.006 4.932-9.332 5.69c-3.603 2.197-6.187 1.587-7.551-.65-1.18-1.935-.399-4.493 2.22-6.09l3.641-2.22-.186-.303c-.289-.475-.868-.486-1.418-.15l-1.631.994-3.019-4.95 9.18-5.599Zm-2.336 10.974-2.238 1.365c-.52.343-.638.831-.418 1.192s.726.466 1.314.108l2.162-1.318-.82-1.347ZM118.553 180.57l15.918-5.428 1.864 5.466-.967.33c-.505.172-.81.723-.63 1.249l.658 1.934c.18.525.758.775 1.262.603l1.052-.359 1.864 5.467-10.135 3.456-1.864-5.467 1.913-.652a.972.972 0 0 0 .61-1.24l-.975-2.86-2.397.818c-.526.178-.86.644-.587 1.443l.609 1.788-5.34 1.821-2.855-8.369ZM106.79 187.748l-.397-5.765 9.002-.619.396 5.765-1.22.084c-.465.031-.84.414-1.032.85l-.85 2.22c-.289.665.228 1.053.894 1.007l.842-.058.397 5.765-11.573.796c-.4.027-.817-.211-1.023-.62l-3.697-8.076c-.232-.452-.675-.734-1.14-.701l-.975.066-.397-5.764 9.356-.644.397 5.764-.776.054c-.577.04-.823.346-.595.753l.208.432 3.503-.242.148-.455c.17-.435-.138-.704-.693-.666l-.775.054Zm1.153 2.193-2.55.175.578.94c.274.427.51.946.675 1.402l.376-.025c.124-.477.287-1.023.5-1.483l.421-1.009ZM77.72 185.41l1.031-5.686 12.923 2.344-1.03 5.686-2.822-.512a.971.971 0 0 0-1.136.787l-.088.482c.984.177 1.464.4 2.014.974l1.47 1.487c.823.691 1.526 1.045 2.51 1.223l.722.131-1.027 5.663-9.337-1.693 1.027-5.664 2.1.38.075-.414c-.722-.131-1.245-.61-1.46-1.168l-.592-1.215-.394-.071-.981.928c-.398.448-1.056.712-1.777.581l-.076.416 2.1.381-1.028 5.663-9.337-1.694 1.028-5.663.721.13c.918.168 1.75.07 2.78-.263l1.986-.86c.761-.335 1.179-.395 2.12-.225l.086-.48a.958.958 0 0 0-.787-1.137l-2.82-.512ZM50.331 172.943l2.897-4.999 11.228 6.505-2.896 5-2.423-1.404a.972.972 0 0 0-1.336.355l-1.905 3.288.327.189c.461.268.865.014 1.2-.563l1.191-2.057 4.787 2.773-4.243 7.325-16.246-9.412 4.243-7.325 4.807 2.784-1.192 2.058c-.334.577-.354 1.054.108 1.321l.308.178 1.904-3.288a.958.958 0 0 0-.356-1.336l-2.403-1.392ZM49.517 165.683l-4.07 4.133-.744-.733a.96.96 0 0 0-1.384.01l-1.403 1.427a.958.958 0 0 0 .01 1.382l.745.734-4.07 4.134-6.827-6.722 4.07-4.134.666.655c.396.39 1.01.4 1.399.005l.234-.237-3.5-3.446-.235.237a.959.959 0 0 0 .011 1.383l.681.67-4.07 4.134-6.81-6.706 4.07-4.133.712.702c.396.39 1.01.4 1.4.005l1.403-1.426c.39-.396.37-1.009-.027-1.399l-.713-.702 4.07-4.134 6.811 6.707-4.07 4.133-.681-.67a.959.959 0 0 0-1.383.01l-.218.222 3.5 3.446.219-.222c.39-.395.369-1.008-.027-1.398l-.665-.655 4.07-4.134 6.826 6.722ZM21.442 143.129l-2.883-4.853 6.304-3.746 8.81 14.824-4.967 2.953-.568-.956c-.272-.458-.873-.644-1.35-.36l-1.759 1.044c-.477.284-.602.9-.33 1.36l.523.878-4.967 2.952-3.429-5.77c-1.475-2.483-.614-4.339 1.793-5.77l-.204-.343-3.86 2.293-2.894-4.871 6.304-3.747 2.884 4.852-.401.238c-.593.353-.698.958-.414 1.436l1.294 2.178 1.165-.693-.5-.84c-.238-.402-.539-.43-.94-.19l-.076.044-.534-.897 2.503-1.488.533.898-.076.046c-.401.238-.502.504-.263.905l.5.84 1.127-.67-1.465-2.463c-.283-.478-.866-.675-1.458-.322l-.402.238ZM21.31 126.146l-5.674 1.085-.208-1.069c-.107-.545-.606-.9-1.151-.793l-2.006.392c-.545.106-.875.623-.768 1.168l.208 1.068-5.669 1.107-1.665-8.526 3.752-2c.8-.428 1.964-.723 2.662-.86l-.09-.456c-.697.135-1.891.278-2.788.205l-4.234-.464-1.66-8.504 5.67-1.107.208 1.068c.106.545.606.9 1.15.794l2.007-.392c.545-.106.874-.623.768-1.168l-.209-1.069 5.67-1.106 1.75 8.961-5.605 1.094-.085-.435c-.106-.545-.606-.9-1.15-.794l-.546.106c-.807.157-1.54.346-2.228.299l-.024.457c.754.034 1.524.155 2.37.308l2.798.54.238 1.334-2.373 1.527c-.908.562-1.459.874-2.079 1.176l.194.415c.62-.303 1.374-.382 2.181-.54l.546-.106c.544-.106.87-.645.767-1.169l-.09-.458 5.605-1.093 1.758 9.004ZM9.614 103.333c-4.549-.281-7.913-3.496-7.54-9.509.373-6.035 4.107-8.788 8.655-8.507 4.57.284 7.914 3.475 7.54 9.51-.372 6.012-4.085 8.79-8.655 8.506Zm.735-11.87c-1.287-.08-2.326.858-2.44 2.723-.119 1.907.797 2.944 2.084 3.024 1.309.081 2.345-.835 2.464-2.743.115-1.863-.8-2.923-2.108-3.004ZM20.081 80.127l-9.561.435c-.492.012-.904.375-1.04.82l-.317 1.043-5.527-1.683 2.66-8.735 5.526 1.681-.13.425c-.161.532.204.783.653.756l2.42-.169c.575-.056 1.116-.078 1.639.034l.11-.361c-.519-.204-1.115-.687-1.38-.884L13.218 72c-.352-.293-.801-.267-.963.265l-.129.424L6.6 71.008l2.658-8.737 5.527 1.682-.317 1.042c-.136.446.011.955.406 1.262l7.698 5.687-2.49 8.183ZM24.382 54.662l5.13 2.712-4.51 8.53-5.13-2.713.489-.923a.96.96 0 0 0-.407-1.323l-1.77-.934a.959.959 0 0 0-1.321.407l-.488.924-5.13-2.712 4.51-8.53 5.13 2.713-.469.883c-.26.492-.094 1.082.397 1.342l1.77.936c.49.26 1.072.063 1.332-.428l.467-.884ZM32.218 41.387l3.55-4.392 5.705 4.612-10.846 13.416-4.495-3.633.699-.866c.336-.414.3-1.043-.132-1.392l-1.59-1.286c-.432-.35-1.054-.252-1.39.163l-.643.796-4.495-3.635 4.221-5.22c1.817-2.248 3.858-2.085 6.036-.324l.252-.312-3.492-2.823 3.564-4.408 5.705 4.612-3.55 4.392-.363-.294c-.536-.434-1.141-.321-1.49.11l-1.594 1.971 1.055.853.615-.761c.293-.362.215-.654-.148-.948l-.07-.056.658-.813 2.265 1.831-.657.813-.07-.056c-.363-.294-.647-.296-.94.068l-.616.76 1.02.826 1.803-2.23c.35-.433.332-1.048-.204-1.481l-.363-.293Z"/></g></g></g></svg>