<svg xmlns="http://www.w3.org/2000/svg" width="350" height="84"><defs><clipPath id="e"><path fill="none" d="M0 0h350v84H0z"/></clipPath><style>.h{fill:#542e14}</style></defs><g id="b"><g id="c"><g clip-path="url(#e)" id="d"><path class="h" d="M11.66 39.1V27.092h2.299c1.15 0 2.07-.874 2.07-2.024v-4.186c0-1.105-.92-2.025-2.07-2.025h-2.3V6.896h22.634c8.741 0 12.651 3.865 12.651 9.293 0 4.693-4.14 8.373-10.489 8.373h-8.833v.736c0 1.15 1.013 1.794 2.347 1.794h3.956V39.1H11.659Zm15.962-16.884h5.429c1.288-.046 2.024-.782 2.024-1.656s-.782-1.61-2.208-1.61h-5.245v3.266ZM71.093 29.347l-.46-4.877c-.368.23-.828.322-1.288.322-1.242 0-2.254-.782-2.254-2.116 0-1.15.92-1.84 2.07-1.887 1.104 0 2.162.645 2.3 1.75h.552c.92 0 1.978-.645 1.978-1.796 0-1.334-1.15-1.977-3.635-1.977h-4.6v6.348c0 1.15.967 2.025 2.07 2.025h1.427v11.96h-19.46V27.14h2.3c1.15 0 2.07-.875 2.07-2.025v-4.278c0-1.105-.92-2.024-2.07-2.024h-2.3V6.896h23.186c9.155 0 12.881 3.312 12.881 8.465 0 3.956-3.772 7.545-8.97 7.545h-2.025v.874c5.843-.368 4.6 3.45 7.96 3.45 1.564 0 2.024-1.472 2.024-3.128v-3.45h5.75v9.891c0 6.118-3.358 9.247-9.246 9.247-5.43 0-10.03-2.484-10.26-10.443ZM114.057 27.092V39.1H94.09V27.092h2.162c1.15 0 2.023-.874 2.023-2.024v-4.14c0-1.15-.874-2.025-2.023-2.025H94.09V6.896h19.966v12.007h-2.07c-1.151 0-2.071.874-2.071 2.025v4.14c0 1.15.92 2.024 2.07 2.024h2.07ZM129.05 39.1l-6.624-18.678c-.322-.967-1.288-1.565-2.254-1.565h-2.255V6.896h18.908v11.961h-.92c-1.15 0-1.426.874-1.104 1.748l1.795 4.693c.46 1.104.828 2.162.92 3.266h.782c.092-1.15.69-2.622.92-3.266l1.794-4.693c.368-.874.046-1.748-1.105-1.748h-.92V6.896h18.909v11.961h-2.254c-.966 0-1.887.598-2.254 1.565L146.763 39.1H129.05ZM181.676 27.092V39.1H161.71V27.092h2.162c1.15 0 2.024-.874 2.024-2.024v-4.14c0-1.15-.875-2.025-2.024-2.025h-2.162V6.896h19.966v12.007h-2.07c-1.15 0-2.07.874-2.07 2.025v4.14c0 1.15.92 2.024 2.07 2.024h2.07ZM220.685 39.1h-34.827V27.139h2.117c1.104 0 2.07-.875 2.07-2.025v-4.232c0-1.15-.966-2.025-2.07-2.025h-2.3V6.896h22.174v11.961h-4.187a2.013 2.013 0 0 0-2.024 2.025v6.257h5.245c1.15 0 2.116-.69 2.116-2.439v-3.91h11.686V39.1ZM248.191 23.918h11.685V39.1h-35.7V27.139h2.3c1.105 0 2.07-.875 2.07-2.025v-4.232c0-1.15-.965-2.025-2.07-2.025h-2.116V6.896h13.894c5.98 0 8.373 3.497 8.373 9.293h.828V6.896h11.732v15.182H247.5v-.967c0-1.425-.966-2.254-2.116-2.254h-5.245v2.807h2.024c.967 0 1.334-.507 1.334-1.473v-.183h2.163v6.026h-2.163v-.184c0-.966-.367-1.426-1.334-1.426h-2.024v2.715h5.935c1.15 0 2.116-.828 2.116-2.255v-.966ZM262.677 21.94c0-9.017 4.6-15.734 13.02-15.734 6.21 0 10.12 3.542 10.12 9.753h.92V6.896h11.916V21.57h-11.548c0-2.116-1.702-3.404-5.704-3.404-3.772 0-5.613 1.656-5.613 4.232 0 3.359 1.84 5.475 8.373 5.475 1.15 0 1.979-.138 3.22-.46v-2.07h-5.474v-2.3h16.884v13.249c-3.818 2.162-8.465 3.497-13.94 3.497-13.479 0-22.174-5.429-22.174-17.85ZM326.804 23.918h11.684V39.1H302.79V27.139h2.3c1.104 0 2.07-.875 2.07-2.025v-4.232c0-1.15-.966-2.025-2.07-2.025h-2.116V6.896h13.893c5.98 0 8.373 3.497 8.373 9.293h.828V6.896H337.8v15.182h-11.686v-.967c0-1.425-.966-2.254-2.116-2.254h-5.245v2.807h2.024c.967 0 1.334-.507 1.334-1.473v-.183h2.163v6.026h-2.163v-.184c0-.966-.367-1.426-1.334-1.426h-2.024v2.715h5.935c1.15 0 2.117-.828 2.117-2.255v-.966ZM144.925 82.254c-.38 0-.595.162-.595.54 0 .27-.216.324-.648.324h-1.315c-.54 0-.756-.036-.756-.324 0-.162.054-.882.054-1.386v-3.674c0-.467-.054-.792-.054-1.116 0-.54.576-.648 1.387-.648.432 0 .864.036 1.278.036.342 0 .54-.234.54-.558v-3.241c0-.864-.053-1.206-.593-1.206h-2.54a.503.503 0 0 0-.503.504v2.232c0 2.251-.199 4.754-.9 6.897-.235.738-.54 1.512-.973 2.16-.09.144-.18.252-.36.252-.45 0-1.963-.81-1.963-1.26 0-.09.198-.505.252-.612 1.332-2.683 1.386-5.024 1.386-7.923v-1.872c0-.63-.054-1.26-.054-1.89 0-.721.36-.919 1.01-.919.629 0 1.241.035 1.854.035h2.142c.342 0 .558-.197.558-.521 0-.252-.071-.774-.071-1.026 0-.235.18-.27.377-.27.126 0 .325.018.45.018.648.071 1.279.107 1.926.18.163.018.415.053.415.27 0 .126-.072.162-.198.288-.144.144-.144.378-.144.576 0 .234.162.485.558.485h3.08c.72 0 1.44-.035 2.16-.035.467 0 .503.18.503.739v1.007c0 .54-.036.739-.485.739-.72 0-1.459-.054-2.179-.054h-2.466c-.037 0-.199 0-.199.107 0 .055.037.055.037.126 0 .109-.073.126-.199.217-.144.09-.162.18-.162.468 0 .324.235.504.559.504h2.214c.667 0 1.35-.036 2.016-.036.38 0 .414.18.414.666v.936c0 .523-.035.685-.414.685-.666 0-1.35-.054-2.016-.054h-2.287a.503.503 0 0 0-.503.504v.378c0 .288.215.504.503.504h.882c.559 0 1.117-.036 1.675-.036.81 0 1.368.072 1.368.648 0 .252-.053.576-.053 1.116v3.728c0 .666.053 1.278.053 1.368 0 .307-.216.342-.756.342h-1.17c-.486 0-.72-.035-.72-.324v-.09c0-.342-.252-.504-.576-.504h-3.8Zm3.907-2.215a.492.492 0 0 0 .504-.504v-.828a.503.503 0 0 0-.504-.504h-4.052a.503.503 0 0 0-.504.504v.828c0 .288.199.504.504.504h4.052ZM161.753 74.674c0 .18.036.288.253.288.54 0 1.08-.036 1.638-.036.468 0 .504.126.504.612v.685c0 .576-.036.683-.504.683-.648 0-1.279-.036-1.927-.036h-2.196c-.63 0-1.279.036-1.909.036-.486 0-.505-.143-.505-.648v-.72c0-.486.037-.612.505-.612.45 0 .9.036 1.405.036.27 0 .378-.019.378-.252v-.162c0-.145-.037-.252-.199-.252-.45 0-.882.036-1.332.036-.342 0-.378-.144-.378-.576v-.775c0-.468.036-.594.396-.594.396 0 .774.036 1.17.036.234 0 .343-.108.343-.342 0-.324 0-.468-.144-.468-.108 0-.18.09-.234.161-.126.109-.288.288-.45.288-.45 0-1.73-.899-1.73-1.278 0-.107.09-.18.163-.233.99-.793 2.286-2.45 2.827-3.583.071-.145.09-.217.252-.217.09 0 1.315.414 1.548.486.343.109.883.252.883.487 0 .09-.09.143-.18.162-.09.017-.163.036-.163.143 0 .217 1.585 1.621 1.765 1.621.198 0 .216-.198.234-.36.018-.324.126-.432.486-.432.63 0 1.279.054 1.909.054h.252c.396 0 .558-.198.558-.612 0-.27 0-.775-.036-1.044-.018-.055-.018-.126-.018-.18 0-.217.162-.234.342-.234.54 0 1.332.035 1.908.053.288.018.559.054.559.27 0 .108-.09.162-.162.234-.162.163-.18.45-.18.937 0 .414.216.576.612.576h.198c.072 0 .324 0 .324-.198s-.486-.882-.63-1.08a.36.36 0 0 1-.072-.145c0-.233 1.296-.828 1.585-.828.252 0 .702.72.828.92.09.125.432.629.432.736 0 .126-.18.253-.289.307-.053.036-.126.09-.126.162s.09.09.145.09c.306.036.342.288.342.792v.63c0 .54-.036.757-.487.757-.648 0-1.295-.036-1.944-.036h-.576a.332.332 0 0 0-.343.341v.288c0 .109.091.217.198.217h.252c.505 0 1.01-.054 1.513-.054.612 0 .99.126.99.828 0 .576-.036 1.152-.036 1.747V79.3c0 .469.036.936.036 1.404 0 .649-.017 1.28-.486 1.8-.485.54-1.314.65-2.017.65-.504 0-.702-.073-.828-.379-.071-.144-.162-.215-.324-.215h-1.044c-.36 0-.594-.037-.594-.433 0-.864.054-1.729.054-2.593v-.234a.2.2 0 0 0-.198-.197h-.216a.34.34 0 0 0-.342.341v.81c0 .793.035 1.585.035 2.377 0 .469-.16.505-.683.505h-1.009c-.504 0-.612-.073-.612-.721 0-.252.054-1.26.054-2.16v-5.87c0-.595-.054-1.171-.054-1.747 0-.666.379-.828.972-.828.487 0 .99.054 1.477.054h.252c.108 0 .198-.108.198-.217v-.288a.331.331 0 0 0-.342-.341h-.468c-.63 0-1.26.036-1.873.036-.126 0-.18 0-.306-.018-.036-.018-.071-.018-.108-.018-.162 0-.234.126-.342.234-.162.198-.468.576-.739.576-.431 0-1.782-1.404-2.088-1.783-.09-.09-.18-.18-.306-.18-.162 0-.342.198-.594.523-.198.252-.324.395-.324.504 0 .198.162.215.864.234.378.018.414.018.666.036.18.018.775.018.775.288 0 .108-.126.144-.216.197-.217.091-.217.235-.217.433 0 .216.126.342.324.342.397 0 .775-.036 1.171-.036.342 0 .378.144.378.594v.775c0 .432-.036.576-.378.576-.414 0-.828-.036-1.242-.036-.18 0-.253.09-.253.252v.126Zm-3.942 4.105c0-.396-.037-.648-.037-.864 0-.486.703-.486 1.224-.486.469 0 .937.017 1.405.017h.414c.468 0 .936-.017 1.422-.017.576 0 1.206.017 1.206.467 0 .09 0 .235-.017.307-.018.197-.018.378-.018.576v2.719c0 .522.054.954.054 1.044 0 .216-.18.252-.486.252h-1.134c-.649 0-.703-.054-.703-.288 0-.216-.144-.306-.342-.306h-.414c-.216 0-.342.071-.342.306v.306c0 .216-.036.27-.559.27h-1.206c-.341 0-.504-.018-.504-.234 0-.072.037-.703.037-1.062V78.78Zm2.196 1.098c0 .252.18.433.431.433h.325c.234 0 .432-.181.432-.433v-.126a.438.438 0 0 0-.432-.432h-.325a.438.438 0 0 0-.431.432v.126Zm7.202-5.312a.296.296 0 0 0 .288-.288v-.215a.284.284 0 0 0-.288-.289h-.18a.284.284 0 0 0-.288.289v.215c0 .162.126.288.288.288h.18Zm-.18 1.855a.284.284 0 0 0-.288.288v.217c0 .16.126.288.288.288h.18a.285.285 0 0 0 .288-.288v-.217c0-.162-.108-.27-.288-.288h-.18Zm3.133-1.855a.284.284 0 0 0 .288-.288v-.215a.284.284 0 0 0-.288-.289h-.217a.284.284 0 0 0-.288.289v.215c0 .162.109.27.288.288h.217Zm-.217 1.855a.284.284 0 0 0-.288.288v.217c0 .16.126.288.288.288h.217a.285.285 0 0 0 .288-.288v-.217a.284.284 0 0 0-.288-.288h-.217Zm-.09 2.684a.189.189 0 0 0-.198.197v.757c0 .485.055.63.541.63.252 0 .252-.163.252-.739v-.504a.331.331 0 0 0-.343-.341h-.252ZM189.8 68.768c.594 0 1.404-.036 1.998-.036.469 0 .505.216.505.756v.684c0 .522-.036.757-.505.757-.594 0-1.17-.036-1.765-.036h-.521a.426.426 0 0 0-.433.431v.145c0 .234.198.431.433.431h.9c.648 0 1.278-.035 1.926-.035.469 0 .505.197.505.774v.757c0 .576-.036.755-.505.755-.252 0-.504-.017-.756-.017-.198 0-.252.071-.306.18-.054.072-.108.108-.162.162a.48.48 0 0 0-.144.324c0 .27.252.486.504.486.126 0 .396-.018.63-.018.504 0 .522.18.522.864v.72c0 .54-.035.793-.45.793-.234 0-.45-.018-.684-.018-.252 0-.54.162-.54.647v2.198c0 2.268-.648 2.629-3.115 2.629-.774 0-.973-.109-1.152-.685a5.782 5.782 0 0 1-.199-1.242c0-.145-.036-.288-.215-.288-.073 0-.18.053-.289.126-.18.107-.396.234-.63.234-.198 0-.306-.144-.648-.648a42.222 42.222 0 0 0-.9-1.261c-.109-.126-.235-.288-.235-.45 0-.342.667-.828.937-1.027.054-.017.108-.09.108-.143 0-.072-.072-.09-.126-.09-.217 0-.432.018-.648.018-.342 0-.433-.27-.433-.577 0-.396-.071-.558-.252-.558-.162 0-.27.09-.468.162-.467.198-.576.648-.576 1.117v2.233c0 .864.054 1.71.054 2.556 0 .414-.18.468-.702.468h-1.26c-.54 0-.72-.054-.72-.468 0-.847.053-1.692.053-2.556v-1.495c0-.18-.054-.379-.288-.379-.144 0-.378.109-.521.163-.325.144-.559.234-.666.54-.055.126-.109.306-.29.306-.233 0-.305-.324-.485-1.08-.072-.288-.144-.63-.252-1.045-.036-.18-.126-.468-.126-.648 0-.288.18-.306.846-.486 1.602-.414 1.782-.522 1.782-1.243V72.55a.226.226 0 0 0-.233-.234h-.073c-.198 0-.27.108-.27.27v.036c0 .162-.054 1.08-.09 1.225-.072.324-.342.342-.612.342-.36 0-1.603-.144-1.603-.613 0-.126.055-.45.091-.594.233-1.26.288-2.718.323-4.015 0-.342-.035-.558.307-.558.162 0 1.17.144 1.387.162.18.035.647.072.647.306 0 .126-.071.216-.162.288-.162.108-.197.145-.197.612 0 .126.107.216.233.216.09 0 .252-.054.252-.252v-1.135c0-.449-.017-.881-.054-1.26 0-.054-.017-.108-.017-.161 0-.18.197-.235.36-.235.342 0 1.602.072 2.124.109.414.036.504.053.504.215 0 .126-.072.18-.18.289-.144.144-.162.594-.162 1.026v.9a.5.5 0 0 0 .504.487c.072 0 .288-.019.433-.019.395 0 .45.162.45.54v.955c0 .414.414.45 1.206.45h1.35a.438.438 0 0 0 .432-.432v-.126c0-.252-.143-.45-.431-.45h-.181c-.485 0-.99.036-1.494.036-.468 0-.504-.216-.504-.739v-.702c0-.558.036-.756.54-.756s1.026.036 1.549.036c.306 0 .521-.198.521-.486 0-.234-.036-.702-.053-.919 0-.053-.019-.126-.019-.18 0-.234.162-.27.36-.27.666 0 1.477.055 2.162.09.377.018.503.036.503.217 0 .126-.09.198-.18.305-.18.181-.18.487-.18.721 0 .197.055.522.72.522Zm-7.689 5.005c0 .163.036.414.235.414.071 0 .126-.036.18-.053a2.48 2.48 0 0 1 .324-.145c.18-.036.198-.126.198-.27 0-.287-.019-.575-.019-.864v-.09a.435.435 0 0 0-.431-.414c-.235 0-.487.144-.487.486v.936Zm3.331.325c-1.728 0-2.016.017-2.016.252 0 .072.036.162.053.234.054.144.09.27.109.414.036.27.18.27.414.27.54 0 1.206.036 1.818.036h2.035c.522 0 .612-.396.612-.504 0-.378-.126-.702-.558-.702h-2.467Zm3.043 3.997a.515.515 0 0 0-.504-.504h-1.836c-.18 0-.397.017-.397.233 0 .127.09.235.162.324.252.307 1.116 1.423 1.116 1.784 0 .035 0 .09-.017.126 0 .036-.054.162-.054.18 0 .251.288.251.378.27.162.017.432.035.594.035.469 0 .558-.09.558-.882v-1.566ZM208.412 79.031c-.198 0-.288.018-.288.108s.108.126.18.18c1.26.775 2.81 1.35 4.231 1.746.126.037.378.109.378.27 0 .36-.612 1.135-.864 1.405-.18.198-.324.36-.612.36-.18 0-.774-.234-.972-.306-.864-.288-2.035-.846-2.845-1.296-.27-.162-1.765-1.045-1.765-1.314 0-.145.577-.666.703-.775.072-.072.126-.126.126-.234 0-.108-.09-.144-.325-.144h-3.457c-.18 0-.341 0-.341.162 0 .09.702.739.81.828.252.199.396.306.396.487 0 .143-.144.18-.252.18h-.126a.66.66 0 0 0-.181-.037c-.107 0-.233.09-.323.162-1.297.829-2.738 1.477-4.178 2.017-.216.072-.63.234-.864.234-.342 0-.63-.396-.882-.738-.126-.18-.595-.864-.595-1.062s.216-.235.378-.27a15.49 15.49 0 0 0 3.205-1.045c.198-.09 1.35-.648 1.35-.81 0-.108-.179-.108-.305-.108H199.5c-.792 0-1.584.054-2.376.054-.414 0-.45-.216-.45-.666v-.973c0-.557.036-.756.45-.756.216 0 .432.018.648.018.251 0 .522-.198.522-.594v-4.537c0-.612-.054-1.207-.054-1.82 0-.737.342-.953 1.027-.953.54 0 1.097.036 1.656.036h.143c.38 0 .559-.198.559-.576 0-.397-.036-.792-.036-1.189 0-.233.09-.305.307-.305.16 0 2.16.107 2.286.125.144.018.324.073.324.252 0 .109-.126.18-.235.289-.162.144-.198.377-.198.846 0 .378.198.558.559.558h.09c.378 0 .558-.18.558-.558 0-.396-.018-.81-.018-1.207 0-.233.072-.305.288-.305.18 0 2.161.107 2.305.126.125.017.306.072.306.251 0 .109-.108.18-.217.289-.197.18-.197.467-.197.936 0 .162.107.468.558.468h.234c.504 0 1.026-.036 1.549-.036.576 0 1.026.108 1.026.954 0 .612-.036 1.224-.036 1.82v4.554c0 .36.216.576.504.576.198 0 .414-.018.612-.018.432 0 .468.163.468.739v.99c0 .468-.036.666-.45.666-.792 0-1.584-.054-2.377-.054h-1.422Zm-7.635-6.608c0 .234.181.432.433.432h.27a.439.439 0 0 0 .432-.432v-.775a.438.438 0 0 0-.433-.431h-.269a.438.438 0 0 0-.433.431v.775Zm0 3.87c0 .235.199.434.433.434h.27a.439.439 0 0 0 .432-.433v-.792a.438.438 0 0 0-.433-.432h-.269a.416.416 0 0 0-.433.432v.792Zm4.502-4.572a.516.516 0 0 0-.504-.504h-.198a.516.516 0 0 0-.505.504v.63c0 .27.235.504.505.504h.198a.493.493 0 0 0 .504-.504v-.63Zm0 3.853a.515.515 0 0 0-.504-.504h-.198a.515.515 0 0 0-.505.504v.649c0 .287.235.504.505.504h.198a.482.482 0 0 0 .504-.504v-.649Zm3.26-3.926a.438.438 0 0 0-.434-.431h-.233a.438.438 0 0 0-.433.431v.775c0 .234.199.432.433.432h.233a.439.439 0 0 0 .433-.432v-.775Zm0 3.854a.438.438 0 0 0-.434-.432h-.233a.438.438 0 0 0-.433.432v.792c0 .234.199.433.433.433h.233c.235 0 .433-.181.433-.433v-.792ZM241.75 70.5l-2.653 2.637a3.716 3.716 0 0 0 0 5.273 3.773 3.773 0 0 0 5.306 0 3.716 3.716 0 0 0 0-5.273L241.75 70.5ZM108.25 70.5l-2.653 2.637a3.716 3.716 0 0 0 0 5.273 3.773 3.773 0 0 0 5.306 0 3.716 3.716 0 0 0 0-5.273L108.25 70.5Z"/></g></g></g></svg>