<svg xmlns="http://www.w3.org/2000/svg" width="912" height="144"><defs><clipPath id="e"><path fill="none" d="M0 0h912v144H0z"/></clipPath><style>.f{fill:#4e2709}</style></defs><g id="b"><g id="c"><g clip-path="url(#e)" id="d"><path class="f" d="M110.788 81.6V56.545h4.8c2.4 0 4.32-1.824 4.32-4.224v-8.735c0-2.304-1.92-4.224-4.32-4.224h-4.8V14.404h47.229c18.238 0 26.398 8.063 26.398 19.39 0 9.792-8.64 17.472-21.887 17.472h-18.43V52.8c0 2.4 2.111 3.744 4.895 3.744h8.256V81.6h-46.46Zm33.31-35.23h11.327c2.687-.097 4.223-1.632 4.223-3.456s-1.631-3.36-4.607-3.36h-10.943v6.815ZM235.776 61.248l-.96-10.175c-.768.48-1.728.672-2.688.672-2.591 0-4.703-1.632-4.703-4.415 0-2.4 1.92-3.84 4.32-3.935 2.303 0 4.511 1.343 4.799 3.646h1.152c1.92 0 4.128-1.344 4.128-3.743 0-2.784-2.4-4.128-7.584-4.128h-9.599v13.247c0 2.4 2.016 4.224 4.32 4.224h2.976V81.6h-40.605V56.64h4.799c2.4 0 4.32-1.824 4.32-4.223V43.49c0-2.304-1.92-4.224-4.32-4.224h-4.8V14.404h48.38c19.103 0 26.879 6.911 26.879 17.662 0 8.256-7.872 15.744-18.719 15.744h-4.224v1.823c12.192-.768 9.6 7.2 16.607 7.2 3.264 0 4.224-3.071 4.224-6.528v-7.2h11.999v20.64c0 12.767-7.007 19.294-19.294 19.294-11.328 0-20.927-5.184-21.407-21.791ZM327.36 56.545V81.6H285.7V56.545h4.511c2.4 0 4.224-1.824 4.224-4.224v-8.64c0-2.399-1.824-4.223-4.224-4.223H285.7V14.404h41.66v25.054h-4.319c-2.4 0-4.32 1.824-4.32 4.224v8.64c0 2.399 1.92 4.223 4.32 4.223h4.32ZM359.617 81.6l-13.824-38.974c-.671-2.017-2.688-3.264-4.703-3.264h-4.704V14.404h39.453v24.958h-1.92c-2.4 0-2.975 1.824-2.303 3.648l3.743 9.79c.96 2.305 1.728 4.513 1.92 6.817h1.632c.192-2.4 1.44-5.472 1.92-6.816l3.744-9.791c.768-1.824.096-3.648-2.304-3.648h-1.92V14.404h39.453v24.958h-4.703a5.056 5.056 0 0 0-4.704 3.264L396.574 81.6h-36.957ZM470.4 56.545V81.6h-41.662V56.545h4.512c2.4 0 4.224-1.824 4.224-4.224v-8.64c0-2.399-1.825-4.223-4.224-4.223h-4.512V14.404H470.4v25.054h-4.319c-2.4 0-4.32 1.824-4.32 4.224v8.64c0 2.399 1.92 4.223 4.32 4.223h4.32ZM552.764 81.6h-72.667V56.64h4.416c2.303 0 4.319-1.824 4.319-4.223v-8.831c0-2.4-2.016-4.224-4.32-4.224h-4.8V14.404h46.27v24.958h-8.736c-2.304 0-4.224 1.824-4.224 4.224V56.64h10.944c2.4 0 4.416-1.44 4.416-5.088v-8.158h24.382V81.6ZM611.133 49.922h24.382V81.6h-74.49V56.64h4.8c2.303 0 4.319-1.824 4.319-4.223v-8.831c0-2.4-2.016-4.224-4.32-4.224h-4.416V14.404h28.99c12.479 0 17.471 7.295 17.471 19.39h1.728v-19.39h24.478v31.678h-24.383v-2.016c0-2.976-2.015-4.704-4.415-4.704h-10.943v5.856h4.224c2.015 0 2.784-1.056 2.784-3.072v-.384h4.51v12.575h-4.51v-.384c0-2.015-.769-2.975-2.784-2.975h-4.224v5.663h12.383c2.4 0 4.416-1.728 4.416-4.703v-2.016ZM642.335 45.794c0-18.815 9.6-32.83 27.166-32.83 12.959 0 21.12 7.391 21.12 20.35h1.919v-18.91h24.861v30.621h-24.093c0-4.416-3.552-7.103-11.904-7.103-7.87 0-11.71 3.456-11.71 8.832 0 7.008 3.84 11.423 17.47 11.423 2.4 0 4.128-.288 6.72-.96v-4.32H682.46v-4.8h35.23v27.647c-7.967 4.512-17.663 7.295-29.086 7.295-28.126 0-46.269-11.327-46.269-37.245ZM777.114 49.922h24.382V81.6h-74.49V56.64h4.8c2.303 0 4.319-1.824 4.319-4.223v-8.831c0-2.4-2.016-4.224-4.32-4.224h-4.415V14.404h28.99c12.478 0 17.47 7.295 17.47 19.39h1.728v-19.39h24.479v31.678h-24.383v-2.016c0-2.976-2.016-4.704-4.415-4.704h-10.944v5.856h4.224c2.016 0 2.784-1.056 2.784-3.072v-.384h4.511v12.575h-4.51v-.384c0-2.015-.77-2.975-2.785-2.975h-4.224v5.663h12.383c2.4 0 4.416-1.728 4.416-4.703v-2.016ZM415.897 141.672c-.503 0-.792.217-.792.72 0 .36-.288.432-.864.432h-1.752c-.72 0-1.008-.048-1.008-.431 0-.217.072-1.176.072-1.85v-4.896c0-.624-.072-1.055-.072-1.487 0-.72.768-.865 1.848-.865.576 0 1.152.049 1.704.049.456 0 .72-.313.72-.744v-4.32c0-1.153-.071-1.61-.792-1.61h-3.384a.67.67 0 0 0-.672.673v2.976c0 3-.264 6.337-1.2 9.193-.312.984-.72 2.016-1.296 2.88-.12.192-.24.337-.48.337-.6 0-2.616-1.08-2.616-1.68 0-.121.263-.673.335-.817 1.777-3.576 1.85-6.697 1.85-10.561v-2.496c0-.84-.073-1.68-.073-2.52 0-.96.48-1.224 1.344-1.224.84 0 1.656.048 2.472.048h2.857c.456 0 .743-.264.743-.696 0-.337-.096-1.033-.096-1.369 0-.311.24-.36.504-.36.168 0 .433.024.6.024.865.096 1.705.145 2.569.24.216.024.552.073.552.36 0 .169-.096.217-.264.385-.192.19-.192.503-.192.767 0 .313.216.649.744.649h4.104c.96 0 1.92-.048 2.88-.048.624 0 .672.239.672.983v1.345c0 .72-.048.983-.647.983-.96 0-1.945-.071-2.905-.071h-3.288c-.049 0-.264 0-.264.143 0 .073.047.073.047.168 0 .145-.095.168-.263.29-.193.119-.216.239-.216.623 0 .432.311.671.744.671h2.952c.888 0 1.8-.046 2.689-.046.504 0 .551.24.551.887v1.248c0 .697-.047.912-.551.912-.889 0-1.801-.072-2.689-.072h-3.049a.67.67 0 0 0-.671.673v.504c0 .383.288.672.671.672h1.177c.744 0 1.488-.049 2.232-.049 1.08 0 1.824.097 1.824.865 0 .336-.071.768-.071 1.488v4.968c0 .888.07 1.704.07 1.824 0 .408-.287.457-1.007.457h-1.56c-.648 0-.96-.05-.96-.432v-.121c0-.455-.336-.672-.768-.672h-5.065Zm5.208-2.952a.656.656 0 0 0 .673-.672v-1.105a.671.671 0 0 0-.673-.672h-5.4a.671.671 0 0 0-.672.672v1.105c0 .384.264.672.672.672h5.4ZM438.338 131.567c0 .24.048.384.336.384.72 0 1.44-.048 2.183-.048.624 0 .672.168.672.816v.912c0 .768-.048.912-.672.912-.864 0-1.704-.047-2.568-.047h-2.928c-.84 0-1.704.047-2.544.047-.648 0-.672-.191-.672-.863v-.961c0-.648.048-.816.672-.816.6 0 1.2.048 1.872.048.36 0 .504-.023.504-.336v-.216c0-.192-.047-.336-.264-.336-.6 0-1.176.048-1.776.048-.456 0-.504-.191-.504-.767v-1.033c0-.624.048-.791.528-.791.528 0 1.032.046 1.56.046.312 0 .456-.143.456-.455 0-.431 0-.625-.192-.625-.144 0-.24.121-.312.217-.168.145-.384.384-.6.384-.6 0-2.304-1.2-2.304-1.704 0-.145.12-.24.216-.313 1.32-1.055 3.048-3.263 3.769-4.775.095-.192.12-.29.335-.29.12 0 1.752.554 2.064.65.456.144 1.177.335 1.177.648 0 .119-.12.191-.24.216s-.216.047-.216.192c0 .287 2.112 2.16 2.351 2.16.265 0 .288-.264.313-.48.024-.432.168-.577.648-.577.84 0 1.704.073 2.544.073h.336c.528 0 .744-.264.744-.817 0-.36 0-1.03-.048-1.392-.024-.072-.024-.168-.024-.24 0-.288.216-.311.456-.311.72 0 1.776.047 2.544.071.385.025.744.073.744.36 0 .145-.12.216-.216.313-.216.215-.24.6-.24 1.248 0 .55.288.768.816.768h.264c.097 0 .433 0 .433-.264 0-.265-.649-1.177-.84-1.44a.477.477 0 0 1-.097-.193c0-.312 1.729-1.103 2.112-1.103.336 0 .937.96 1.105 1.223.12.168.576.841.576.985 0 .168-.24.336-.385.407-.07.049-.168.121-.168.217s.12.119.193.119c.408.049.456.385.456 1.057v.84c0 .72-.048 1.007-.649 1.007-.864 0-1.727-.047-2.591-.047h-.769a.441.441 0 0 0-.456.455v.385c0 .145.12.287.265.287h.336c.671 0 1.343-.071 2.015-.071.817 0 1.32.168 1.32 1.104 0 .768-.047 1.536-.047 2.329v6.552c0 .623.048 1.248.048 1.871 0 .866-.024 1.706-.648 2.4-.648.722-1.753.865-2.688.865-.672 0-.937-.096-1.105-.504-.096-.192-.216-.288-.432-.288h-1.392c-.48 0-.792-.048-.792-.576 0-1.152.072-2.305.072-3.456v-.312a.267.267 0 0 0-.264-.264h-.288a.456.456 0 0 0-.456.456v1.08c0 1.056.048 2.112.048 3.168 0 .625-.216.672-.912.672h-1.345c-.672 0-.815-.096-.815-.96 0-.335.072-1.68.072-2.88v-7.824c0-.793-.072-1.56-.072-2.329 0-.888.504-1.104 1.296-1.104.648 0 1.32.071 1.968.071h.336c.144 0 .264-.142.264-.287v-.385a.441.441 0 0 0-.456-.455h-.624c-.84 0-1.68.047-2.496.047-.168 0-.24 0-.408-.023-.048-.024-.096-.024-.145-.024-.216 0-.311.168-.456.312-.216.264-.624.768-.983.768-.576 0-2.376-1.873-2.784-2.377-.12-.119-.24-.24-.409-.24-.215 0-.456.265-.792.697-.264.336-.432.528-.432.672 0 .264.217.287 1.152.312.504.024.552.024.889.048.24.023 1.031.023 1.031.385 0 .143-.168.19-.288.263-.287.12-.287.313-.287.576 0 .287.168.455.432.455.528 0 1.032-.046 1.56-.046.455 0 .504.191.504.79v1.034c0 .576-.049.767-.504.767-.553 0-1.104-.048-1.656-.048-.24 0-.336.12-.336.336v.168Zm-5.257 5.472c0-.527-.048-.863-.048-1.151 0-.648.936-.648 1.632-.648.624 0 1.248.024 1.872.024h.552c.624 0 1.249-.024 1.896-.024.769 0 1.609.024 1.609.623 0 .121 0 .313-.025.408-.023.264-.023.504-.023.768v3.625c0 .696.071 1.272.071 1.393 0 .287-.24.336-.647.336h-1.513c-.863 0-.936-.073-.936-.385 0-.287-.192-.408-.456-.408h-.551c-.288 0-.456.096-.456.408v.408c0 .288-.05.36-.745.36h-1.608c-.456 0-.672-.024-.672-.311 0-.097.048-.937.048-1.416v-4.01Zm2.928 1.465c0 .336.24.576.576.576h.433a.57.57 0 0 0 .576-.576v-.168a.584.584 0 0 0-.576-.576h-.433a.584.584 0 0 0-.576.576v.168Zm9.601-7.08a.395.395 0 0 0 .384-.385v-.287a.38.38 0 0 0-.384-.385h-.24a.38.38 0 0 0-.384.385v.287a.38.38 0 0 0 .384.385h.24Zm-.24 2.471a.379.379 0 0 0-.384.384v.288c0 .216.168.384.384.384h.24a.379.379 0 0 0 .384-.384v-.288c0-.216-.144-.36-.384-.383h-.24Zm4.177-2.471a.38.38 0 0 0 .384-.385v-.287a.38.38 0 0 0-.384-.385h-.288a.38.38 0 0 0-.385.385v.287c0 .217.145.36.385.385h.288Zm-.288 2.471a.38.38 0 0 0-.385.384v.288a.38.38 0 0 0 .385.384h.288a.379.379 0 0 0 .384-.384v-.288a.379.379 0 0 0-.384-.383h-.288Zm-.12 3.577c-.168 0-.265.12-.265.264v1.008c0 .649.072.84.72.84.337 0 .337-.216.337-.984v-.672a.442.442 0 0 0-.456-.456h-.336ZM475.73 123.695c.791 0 1.872-.049 2.664-.049.625 0 .672.289.672 1.008v.912c0 .697-.047 1.008-.672 1.008-.792 0-1.56-.047-2.352-.047h-.696a.57.57 0 0 0-.576.577v.19c0 .313.264.577.576.577h1.2c.864 0 1.704-.049 2.568-.049.624 0 .672.265.672 1.033v1.008c0 .768-.048 1.008-.672 1.008-.336 0-.672-.023-1.008-.023-.264 0-.336.095-.408.24-.072.096-.144.143-.216.215a.65.65 0 0 0-.192.432c0 .36.336.648.672.648.168 0 .528-.024.84-.024.673 0 .696.24.696 1.153v.96c0 .72-.048 1.055-.6 1.055-.312 0-.6-.023-.912-.023-.336 0-.72.216-.72.863v2.929c0 3.024-.864 3.505-4.153 3.505-1.032 0-1.296-.145-1.536-.912-.143-.48-.24-1.153-.264-1.657 0-.192-.047-.384-.288-.384-.095 0-.24.072-.383.168-.24.144-.529.312-.84.312-.265 0-.408-.191-.864-.864a57.04 57.04 0 0 0-1.2-1.68c-.145-.169-.313-.384-.313-.6 0-.457.888-1.104 1.248-1.369.072-.024.144-.12.144-.192 0-.096-.096-.12-.168-.12-.288 0-.576.024-.864.024-.456 0-.576-.36-.576-.767 0-.529-.096-.744-.336-.744-.216 0-.36.12-.624.215-.624.265-.769.865-.769 1.489v2.975c0 1.153.073 2.282.073 3.408 0 .553-.24.625-.936.625h-1.68c-.72 0-.96-.072-.96-.625 0-1.126.072-2.255.072-3.408v-1.992c0-.24-.072-.504-.384-.504-.192 0-.505.145-.696.217-.433.191-.744.311-.889.72-.071.168-.143.408-.384.408-.311 0-.408-.433-.647-1.44-.097-.384-.193-.84-.337-1.393-.048-.24-.168-.623-.168-.863 0-.385.24-.409 1.129-.649 2.136-.552 2.376-.695 2.376-1.656v-2.809a.302.302 0 0 0-.313-.311h-.095c-.264 0-.36.143-.36.36v.048c0 .216-.072 1.44-.12 1.632-.096.431-.457.457-.816.457-.48 0-2.137-.193-2.137-.817 0-.167.072-.6.12-.792.313-1.68.384-3.624.433-5.352 0-.457-.049-.744.407-.744.217 0 1.56.191 1.849.216.24.047.864.095.864.407 0 .169-.097.289-.216.385-.217.144-.265.191-.265.816 0 .168.145.287.313.287.12 0 .336-.071.336-.336v-1.512c0-.6-.025-1.175-.072-1.68 0-.071-.025-.144-.025-.216 0-.24.265-.312.48-.312.457 0 2.136.096 2.833.144.552.049.672.072.672.29 0 .167-.096.238-.24.382-.192.192-.216.793-.216 1.369v1.2c0 .36.312.648.672.648.096 0 .384-.024.577-.024.527 0 .6.215.6.72v1.272c0 .551.55.6 1.608.6h1.8a.584.584 0 0 0 .576-.576v-.168c0-.336-.193-.6-.577-.6h-.24c-.647 0-1.32.047-1.992.047-.624 0-.672-.287-.672-.983v-.937c0-.744.048-1.008.72-1.008.673 0 1.368.05 2.064.05.408 0 .697-.265.697-.65 0-.312-.048-.936-.073-1.224 0-.072-.023-.168-.023-.24 0-.312.216-.36.48-.36.888 0 1.968.073 2.88.12.504.024.672.049.672.289 0 .168-.12.263-.24.408-.24.24-.24.647-.24.959 0 .265.072.697.96.697Zm-10.25 6.672c0 .216.05.553.313.553.096 0 .168-.049.24-.072a3.34 3.34 0 0 1 .432-.193c.24-.048.264-.168.264-.36 0-.384-.024-.768-.024-1.152v-.12a.58.58 0 0 0-.576-.552c-.312 0-.649.192-.649.648v1.248Zm4.44.432c-2.303 0-2.687.024-2.687.336 0 .096.048.217.072.312.072.192.12.36.144.553.048.36.24.36.552.36.72 0 1.608.047 2.425.047h2.712c.696 0 .816-.528.816-.672 0-.504-.169-.936-.744-.936h-3.29Zm4.058 5.328a.687.687 0 0 0-.672-.672h-2.449c-.24 0-.528.024-.528.313 0 .168.12.312.216.431.337.408 1.488 1.897 1.488 2.377 0 .048 0 .12-.023.168 0 .048-.073.216-.073.24 0 .336.384.336.504.36.216.024.577.049.792.049.624 0 .745-.122.745-1.177v-2.09ZM500.546 137.376c-.264 0-.384.024-.384.144s.144.167.24.24c1.68 1.032 3.744 1.8 5.641 2.328.168.049.504.144.504.36 0 .48-.817 1.512-1.152 1.872-.24.264-.432.48-.817.48-.24 0-1.032-.312-1.296-.407-1.152-.385-2.712-1.13-3.792-1.729-.36-.216-2.352-1.393-2.352-1.752 0-.192.768-.889.936-1.032.096-.097.168-.168.168-.312s-.12-.192-.432-.192H493.2c-.24 0-.456 0-.456.216 0 .12.937.984 1.08 1.103.336.265.529.409.529.649 0 .192-.193.24-.336.24h-.168a.874.874 0 0 0-.24-.048c-.144 0-.312.12-.432.216-1.729 1.103-3.649 1.969-5.569 2.688-.288.096-.84.312-1.152.312-.456 0-.84-.527-1.177-.984-.168-.24-.792-1.152-.792-1.416s.288-.312.505-.36a20.651 20.651 0 0 0 4.272-1.392c.264-.12 1.8-.864 1.8-1.08 0-.144-.24-.144-.408-.144h-1.992c-1.056 0-2.112.071-3.168.071-.553 0-.6-.287-.6-.887v-1.296c0-.744.047-1.008.6-1.008.288 0 .576.023.863.023.337 0 .697-.263.697-.792v-6.048c0-.816-.072-1.609-.072-2.424 0-.984.456-1.273 1.368-1.273.72 0 1.464.049 2.209.049h.19c.505 0 .745-.265.745-.769 0-.528-.048-1.055-.048-1.584 0-.311.12-.408.408-.408.216 0 2.88.144 3.048.168.193.025.433.097.433.337 0 .143-.168.24-.313.383-.215.192-.263.504-.263 1.129 0 .504.263.744.744.744h.12c.504 0 .744-.24.744-.744 0-.528-.024-1.08-.024-1.609 0-.311.095-.408.383-.408.24 0 2.881.144 3.073.168.168.025.408.097.408.337 0 .143-.144.24-.288.383-.264.24-.264.625-.264 1.248 0 .217.144.625.744.625h.312c.672 0 1.368-.049 2.064-.049.768 0 1.368.145 1.368 1.273 0 .815-.047 1.631-.047 2.424v6.073c0 .48.288.767.672.767.263 0 .551-.023.816-.023.575 0 .624.216.624.984v1.32c0 .624-.049.887-.6.887-1.056 0-2.113-.071-3.169-.071h-1.896Zm-10.177-8.81c0 .313.24.577.576.577h.36a.583.583 0 0 0 .576-.577v-1.03a.583.583 0 0 0-.575-.577h-.36a.584.584 0 0 0-.577.576v1.031Zm0 5.162c0 .311.264.576.576.576h.36a.584.584 0 0 0 .576-.576v-1.056a.583.583 0 0 0-.575-.576h-.36a.555.555 0 0 0-.577.576v1.056Zm6.001-6.097a.688.688 0 0 0-.673-.672h-.263a.687.687 0 0 0-.672.672v.84c0 .36.311.672.672.672h.263a.656.656 0 0 0 .673-.672v-.84Zm0 5.137a.687.687 0 0 0-.673-.672h-.263a.686.686 0 0 0-.672.672v.863a.67.67 0 0 0 .672.673h.263c.385 0 .673-.265.673-.673v-.863Zm4.344-5.233a.584.584 0 0 0-.576-.576h-.312a.584.584 0 0 0-.576.576v1.031c0 .313.264.577.576.577h.312a.584.584 0 0 0 .576-.577v-1.03Zm0 5.137a.584.584 0 0 0-.576-.576h-.312a.584.584 0 0 0-.576.576v1.056c0 .311.264.576.576.576h.312c.312 0 .576-.24.576-.576v-1.056ZM545 126l-3.537 3.515a4.955 4.955 0 0 0 0 7.032 5.03 5.03 0 0 0 7.074 0 4.955 4.955 0 0 0 0-7.032L545 126ZM367 126l-3.537 3.515a4.955 4.955 0 0 0 0 7.032 5.03 5.03 0 0 0 7.074 0 4.955 4.955 0 0 0 0-7.032L367 126Z"/></g></g></g></svg>