<svg xmlns="http://www.w3.org/2000/svg" width="194" height="194"><defs><clipPath id="a"><path fill="none" d="M0 0h194v194H0z"/></clipPath></defs><g clip-path="url(#a)"><path d="M71.643 10.028c3.257 0 7.072 1.32 11.111 2.72C87.372 14.347 92.146 16 97 16c4.854 0 9.629-1.653 14.246-3.252 4.04-1.399 7.854-2.72 11.113-2.72 1.028 0 1.934.132 2.77.403 3.963 1.287 7.013 5.695 10.242 10.362 2.703 3.907 5.498 7.946 9.237 10.667 3.79 2.759 8.537 4.192 13.126 5.578 5.394 1.629 10.488 3.167 12.892 6.47 2.364 3.248 2.262 8.537 2.155 14.136-.092 4.82-.188 9.804 1.277 14.316 1.401 4.317 4.345 8.172 7.19 11.901C184.72 88.411 188 92.707 188 97c0 4.293-3.28 8.59-6.752 13.14-2.846 3.728-5.789 7.584-7.19 11.9-1.465 4.512-1.37 9.496-1.277 14.316.107 5.6.208 10.888-2.155 14.136-2.404 3.303-7.499 4.842-12.893 6.47-4.59 1.387-9.335 2.82-13.126 5.579-3.738 2.72-6.533 6.76-9.236 10.666-3.23 4.667-6.28 9.075-10.243 10.362-.835.271-1.741.403-2.77.403-3.258 0-7.073-1.32-11.112-2.72C106.628 179.653 101.854 178 97 178c-4.854 0-9.628 1.653-14.246 3.252-4.039 1.399-7.854 2.72-11.112 2.72-1.029 0-1.935-.132-2.77-.403-3.964-1.287-7.014-5.695-10.243-10.362-2.703-3.907-5.498-7.946-9.237-10.667-3.79-2.759-8.537-4.192-13.126-5.578-5.394-1.629-10.488-3.167-12.892-6.47-2.364-3.248-2.262-8.537-2.155-14.136.092-4.82.188-9.804-1.277-14.316-1.401-4.317-4.345-8.172-7.19-11.901C9.28 105.589 6 101.292 6 97c0-4.293 3.28-8.59 6.752-13.14 2.846-3.728 5.789-7.584 7.19-11.9 1.465-4.512 1.37-9.496 1.277-14.316-.107-5.6-.208-10.888 2.155-14.136 2.404-3.303 7.5-4.842 12.893-6.47 4.59-1.387 9.335-2.82 13.126-5.579 3.738-2.72 6.533-6.76 9.236-10.666 3.23-4.667 6.28-9.075 10.243-10.362.835-.271 1.741-.403 2.77-.403m0-4c-1.374 0-2.713.179-4.006.598-9.079 2.948-13.04 16.099-20.597 21.599-7.633 5.555-21.344 5.296-26.899 12.93-5.5 7.557-1.054 20.49-4.002 29.57C13.293 79.484 2 87.29 2 97s11.293 17.515 14.137 26.275c2.948 9.08-1.498 22.012 4.002 29.57 5.556 7.633 19.267 7.374 26.9 12.93 7.557 5.5 11.517 18.65 20.597 21.599 1.293.42 2.631.598 4.006.598C79.585 187.972 88.724 182 97 182c8.277 0 17.414 5.972 25.357 5.972 1.375 0 2.714-.179 4.007-.598 9.079-2.948 13.04-16.099 20.597-21.599 7.633-5.555 21.344-5.296 26.899-12.93 5.5-7.557 1.054-20.49 4.002-29.57C180.707 114.516 192 106.71 192 97s-11.293-17.515-14.137-26.275c-2.948-9.08 1.498-22.012-4.002-29.57-5.556-7.633-19.267-7.374-26.9-12.93-7.557-5.5-11.517-18.65-20.597-21.599-1.293-.42-2.631-.598-4.006-.598C114.415 6.028 105.276 12 97 12c-8.277 0-17.414-5.972-25.357-5.972Z" fill="#4e2709"/></g></svg>